<?xml version="1.0" encoding="UTF-8" standalone="no"?>
<!-- Created with Inkscape (http://www.inkscape.org/) -->

<svg
   xmlns:dc="http://purl.org/dc/elements/1.1/"
   xmlns:cc="http://creativecommons.org/ns#"
   xmlns:rdf="http://www.w3.org/1999/02/22-rdf-syntax-ns#"
   xmlns:svg="http://www.w3.org/2000/svg"
   xmlns="http://www.w3.org/2000/svg"
   xmlns:xlink="http://www.w3.org/1999/xlink"
   version="1.1"
   width="700"
   height="800"
   id="svg2">
  <title
     id="title3854">regions</title>
  <defs
     id="defs4">
    <marker
       refX="0"
       refY="0"
       orient="auto"
       id="Arrow2Lend"
       style="overflow:visible">
      <path
         d="M 8.7185878,4.0337352 -2.2072895,0.01601326 8.7185884,-4.0017078 c -1.7454984,2.3720609 -1.7354408,5.6174519 -6e-7,8.035443 z"
         transform="matrix(-1.1,0,0,-1.1,-1.1,0)"
         id="path4370"
         style="font-size:12px;fill-rule:evenodd;stroke-width:0.625;stroke-linejoin:round" />
    </marker>
    <marker
       refX="0"
       refY="0"
       orient="auto"
       id="Arrow2Lstart"
       style="overflow:visible">
      <path
         d="M 8.7185878,4.0337352 -2.2072895,0.01601326 8.7185884,-4.0017078 c -1.7454984,2.3720609 -1.7354408,5.6174519 -6e-7,8.035443 z"
         transform="matrix(1.1,0,0,1.1,1.1,0)"
         id="path4367"
         style="font-size:12px;fill-rule:evenodd;stroke-width:0.625;stroke-linejoin:round" />
    </marker>
    <marker
       refX="0"
       refY="0"
       orient="auto"
       id="Arrow1Send"
       style="overflow:visible">
      <path
         d="M 0,0 5,-5 -12.5,0 5,5 0,0 z"
         transform="matrix(-0.2,0,0,-0.2,-1.2,0)"
         id="path4364"
         style="fill-rule:evenodd;stroke:#000000;stroke-width:1pt;marker-start:none" />
    </marker>
    <marker
       refX="0"
       refY="0"
       orient="auto"
       id="Arrow1Sstart"
       style="overflow:visible">
      <path
         d="M 0,0 5,-5 -12.5,0 5,5 0,0 z"
         transform="matrix(0.2,0,0,0.2,1.2,0)"
         id="path4361"
         style="fill-rule:evenodd;stroke:#000000;stroke-width:1pt;marker-start:none" />
    </marker>
  </defs>
  <metadata
     id="metadata7">
    <rdf:RDF>
      <cc:Work
         rdf:about="">
        <dc:format>image/svg+xml</dc:format>
        <dc:type
           rdf:resource="http://purl.org/dc/dcmitype/StillImage" />
        <dc:title>regions</dc:title>
      </cc:Work>
    </rdf:RDF>
  </metadata>
  <g
     transform="translate(0,-252.36218)"
     id="layer3">
    <path
       d="m 380.07822,346.26718 17.22737,30.18004"
       id="path3942"
       style="fill:none;stroke:#000000;stroke-width:0.89187753;stroke-linecap:butt;stroke-linejoin:miter;stroke-miterlimit:4;stroke-opacity:1;stroke-dasharray:3.56750988, 1.78375494;stroke-dashoffset:0;marker-start:url(#Arrow2Lstart);marker-end:url(#Arrow2Lend)" />
    <path
       d="m 91.03271,716.27985 48.43287,-12.19459"
       id="path4124"
       style="fill:none;stroke:#000000;stroke-width:0.89187753;stroke-linecap:butt;stroke-linejoin:miter;stroke-miterlimit:4;stroke-opacity:1;stroke-dasharray:3.56750988, 1.78375494;stroke-dashoffset:0;marker-start:url(#Arrow2Lstart);marker-end:url(#Arrow2Lend)" />
    <path
       d="m 372.19098,435.13064 60.19205,29.701"
       id="path4306"
       style="fill:none;stroke:#000000;stroke-width:0.89187753;stroke-linecap:butt;stroke-linejoin:miter;stroke-miterlimit:4;stroke-opacity:1;stroke-dasharray:3.56750988, 1.78375494;stroke-dashoffset:0;marker-start:url(#Arrow2Lstart);marker-end:url(#Arrow2Lend)" />
    <path
       d="m 467.2529,408.78298 -29.05823,56.5277"
       id="path4308"
       style="fill:none;stroke:#000000;stroke-width:0.89187753;stroke-linecap:butt;stroke-linejoin:miter;stroke-miterlimit:4;stroke-opacity:1;stroke-dasharray:3.56750988, 1.78375494;stroke-dashoffset:0;marker-start:url(#Arrow2Lstart);marker-end:url(#Arrow2Lend)" />
    <path
       d="m 447.74238,471.05927 51.47458,77.12677"
       id="path4310"
       style="fill:none;stroke:#000000;stroke-width:0.89187753;stroke-linecap:butt;stroke-linejoin:miter;stroke-miterlimit:4;stroke-opacity:1;stroke-dasharray:3.56750988, 1.78375494;stroke-dashoffset:0;marker-start:url(#Arrow2Lstart);marker-end:url(#Arrow2Lend)" />
    <path
       d="m 333.16993,399.20202 59.36182,-17.24575"
       id="path4312"
       style="fill:none;stroke:#000000;stroke-width:0.89187753;stroke-linecap:butt;stroke-linejoin:miter;stroke-miterlimit:4;stroke-opacity:1;stroke-dasharray:3.56750988, 1.78375494;stroke-dashoffset:0;marker-start:url(#Arrow2Lstart);marker-end:url(#Arrow2Lend)" />
    <path
       d="m 472.64943,401.59726 9.96281,-56.04865"
       id="path4314"
       style="fill:none;stroke:#000000;stroke-width:0.89187753;stroke-linecap:butt;stroke-linejoin:miter;stroke-miterlimit:4;stroke-opacity:1;stroke-dasharray:3.56750988, 1.78375494;stroke-dashoffset:0;marker-start:url(#Arrow2Lstart);marker-end:url(#Arrow2Lend)" />
    <path
       d="m 352.68046,624.35472 37.7757,-34.49149"
       id="path4316"
       style="fill:none;stroke:#000000;stroke-width:0.89187753;stroke-linecap:butt;stroke-linejoin:miter;stroke-miterlimit:4;stroke-opacity:1;stroke-dasharray:3.56750988, 1.78375494;stroke-dashoffset:0;marker-start:url(#Arrow2Lstart);marker-end:url(#Arrow2Lend)" />
    <path
       d="M 524.12401,570.22226 504.61348,629.1452"
       id="path4318"
       style="fill:none;stroke:#000000;stroke-width:0.89187753;stroke-linecap:butt;stroke-linejoin:miter;stroke-miterlimit:4;stroke-opacity:1;stroke-dasharray:3.56750988, 1.78375494;stroke-dashoffset:0;marker-start:url(#Arrow2Lstart);marker-end:url(#Arrow2Lend)" />
    <path
       d="m 501.70765,663.15764 53.13505,57.00673"
       id="path4320"
       style="fill:none;stroke:#000000;stroke-width:0.89187753;stroke-linecap:butt;stroke-linejoin:miter;stroke-miterlimit:4;stroke-opacity:1;stroke-dasharray:3.56750988, 1.78375494;stroke-dashoffset:0;marker-start:url(#Arrow2Lstart);marker-end:url(#Arrow2Lend)" />
    <path
       d="M 525.36936,1029.1506 588.0521,993.22188"
       id="path4322"
       style="fill:none;stroke:#000000;stroke-width:0.89187753;stroke-linecap:butt;stroke-linejoin:miter;stroke-miterlimit:4;stroke-opacity:1;stroke-dasharray:3.56750988, 1.78375494;stroke-dashoffset:0;marker-start:url(#Arrow2Lstart);marker-end:url(#Arrow2Lend)" />
    <path
       d="M 608.39287,955.3771 656.5465,908.43036"
       id="path4324"
       style="fill:none;stroke:#000000;stroke-width:0.89187753;stroke-linecap:butt;stroke-linejoin:miter;stroke-miterlimit:4;stroke-opacity:1;stroke-dasharray:3.56750988, 1.78375494;stroke-dashoffset:0;marker-start:url(#Arrow2Lstart);marker-end:url(#Arrow2Lend)" />
    <path
       d="M 655.30115,897.89131 600.50563,855.256"
       id="path4326"
       style="fill:none;stroke:#000000;stroke-width:0.89187753;stroke-linecap:butt;stroke-linejoin:miter;stroke-miterlimit:4;stroke-opacity:1;stroke-dasharray:3.56750988, 1.78375494;stroke-dashoffset:0;marker-start:url(#Arrow2Lstart);marker-end:url(#Arrow2Lend)" />
    <path
       d="m 500.87742,827.4712 82.19327,-17.72479"
       id="path4328"
       style="fill:none;stroke:#000000;stroke-width:0.89187753;stroke-linecap:butt;stroke-linejoin:miter;stroke-miterlimit:4;stroke-opacity:1;stroke-dasharray:3.56750988, 1.78375494;stroke-dashoffset:0;marker-start:url(#Arrow2Lstart);marker-end:url(#Arrow2Lend)" />
    <path
       d="m 572.27764,728.3082 1.24535,62.27628"
       id="path4330"
       style="fill:none;stroke:#000000;stroke-width:0.89187753;stroke-linecap:butt;stroke-linejoin:miter;stroke-miterlimit:4;stroke-opacity:1;stroke-dasharray:3.56750988, 1.78375494;stroke-dashoffset:0;marker-start:url(#Arrow2Lstart);marker-end:url(#Arrow2Lend)" />
    <path
       d="m 383.39916,686.15196 24.90705,16.28763"
       id="path4332"
       style="fill:none;stroke:#000000;stroke-width:0.89187753;stroke-linecap:butt;stroke-linejoin:miter;stroke-miterlimit:4;stroke-opacity:1;stroke-dasharray:3.56750988, 1.78375494;stroke-dashoffset:0;marker-start:url(#Arrow2Lstart);marker-end:url(#Arrow2Lend)" />
    <path
       d="M 459.78078,755.61395 508.34953,743.1587"
       id="path4334"
       style="fill:none;stroke:#000000;stroke-width:0.89187753;stroke-linecap:butt;stroke-linejoin:miter;stroke-miterlimit:4;stroke-opacity:1;stroke-dasharray:3.56750988, 1.78375494;stroke-dashoffset:0;marker-start:url(#Arrow2Lstart);marker-end:url(#Arrow2Lend)" />
    <path
       d="M 443.17609,799.20735 421.17485,761.36253"
       id="path4336"
       style="fill:none;stroke:#000000;stroke-width:0.89187753;stroke-linecap:butt;stroke-linejoin:miter;stroke-miterlimit:4;stroke-opacity:1;stroke-dasharray:3.56750988, 1.78375494;stroke-dashoffset:0;marker-start:url(#Arrow2Lstart);marker-end:url(#Arrow2Lend)" />
    <path
       d="M 371.36075,737.41012 346.45369,713.93675"
       id="path4338"
       style="fill:none;stroke:#000000;stroke-width:0.89187753;stroke-linecap:butt;stroke-linejoin:miter;stroke-miterlimit:4;stroke-opacity:1;stroke-dasharray:3.56750988, 1.78375494;stroke-dashoffset:0;marker-start:url(#Arrow2Lstart);marker-end:url(#Arrow2Lend)" />
    <path
       d="m 262.16213,837.54816 3.5224,58.94046"
       id="path4340"
       style="fill:none;stroke:#000000;stroke-width:0.89187753;stroke-linecap:butt;stroke-linejoin:miter;stroke-miterlimit:4;stroke-opacity:1;stroke-dasharray:3.56750988, 1.78375494;stroke-dashoffset:0;marker-start:url(#Arrow2Lstart);marker-end:url(#Arrow2Lend)" />
    <path
       d="m 266.85864,906.65076 49.31345,89.42702"
       id="path4342"
       style="fill:none;stroke:#000000;stroke-width:0.89187753;stroke-linecap:butt;stroke-linejoin:miter;stroke-miterlimit:4;stroke-opacity:1;stroke-dasharray:3.56750988, 1.78375494;stroke-dashoffset:0;marker-start:url(#Arrow2Lstart);marker-end:url(#Arrow2Lend)" />
    <path
       d="m 399.17363,599.44421 97.13749,28.7429"
       id="path4344"
       style="fill:none;stroke:#000000;stroke-width:0.89187753;stroke-linecap:butt;stroke-linejoin:miter;stroke-miterlimit:4;stroke-opacity:1;stroke-dasharray:3.56750988, 1.78375494;stroke-dashoffset:0;marker-start:url(#Arrow2Lstart);marker-end:url(#Arrow2Lend)" />
  </g>
  <g
     transform="translate(0,-252.36218)"
     id="regions"
     style="display:inline">
    <path
       d="m 509.65625,254.20593 c -8.38664,0 -5.25873,10.87066 1.03125,14.5 6.28999,3.62934 1.68932,27.57518 -1.875,32.65625 -3.56432,5.08107 -16.99018,1.46071 -21.8125,1.21875 -4.82231,-0.24196 -22.8481,7.73669 -28.71875,10.15625 -5.87065,2.41956 -14.46292,2.41956 -18.65625,0 -4.19332,-2.41956 -10.05051,8.97153 -11.9375,11.875 -1.88699,2.90347 3.75617,17.40284 6.0625,22 2.30633,4.59716 5.87644,1.92946 13.84375,1.6875 7.96731,-0.24196 12.17078,8.25278 19.71875,11.15625 7.54797,2.90347 25.55377,-2.44091 31.84375,2.15625 10.90264,7.98455 4.41061,10.90625 10.28125,10.90625 5.87065,0 14.67259,-20.32609 18.65625,-26.375 3.98365,-6.0489 -3.54324,-27.57702 -1.65625,-34.59375 1.887,-7.01673 13.20203,-7.99381 20.75,-9.6875 7.54797,-1.69369 -2.51743,-24.92355 -7.96875,-34.84375 -5.45132,-9.92019 -21.17586,-12.8125 -29.5625,-12.8125 z M 470.75,399.11218 c -3.7847,-0.0561 -8.41264,1.89107 -10.125,3.6875 -0.62268,3.11381 3.71263,7.64613 7.65625,8.84375 3.94362,1.19762 9.14316,-0.21911 11.21875,-1.65625 2.07559,-1.43714 -1.67019,-7.90678 -5.40625,-10.0625 -0.93401,-0.53893 -2.08218,-0.79379 -3.34375,-0.8125 z"
       id="00_Evros"
       style="fill:none;stroke:#000000;stroke-width:1px;stroke-linecap:butt;stroke-linejoin:miter;stroke-opacity:1" />
    <path
       d="m 365.44532,276.93723 c -6.44345,0.0825 -10.96015,8.36834 -13.05025,12.09596 -2.30634,4.11325 -7.76015,2.17106 -17.82412,3.6228 -10.06396,1.45172 -15.08514,5.57851 -16.55281,13.56305 1.04833,2.66152 6.09138,-0.48802 9.23637,3.38328 3.14498,3.8713 -3.57486,8.21253 1.0378,13.2936 4.61265,5.08107 15.09278,9.44904 20.96343,10.65882 5.87065,1.20978 8.60605,11.6119 4.20306,21.04819 -4.40298,9.43628 -16.35855,7.26658 -17.61655,11.13787 -1.258,3.87129 8.80927,8.69082 12.58326,10.86841 3.77398,2.1776 19.48312,-4.58805 22.20879,-12.81454 2.72565,-8.22651 11.38459,-15.12338 14.68478,-14.76068 4.40298,0.48391 15.52541,13.30089 22.23473,12.57502 6.70931,-0.72586 11.74314,-8.46664 15.30746,-12.09597 2.29569,-2.33756 5.88754,-4.63587 9.39203,-6.19769 -2.59484,-6.11676 -6.14641,-16.32145 -4.59223,-18.71282 1.88698,-2.90348 7.76725,-14.27601 11.96057,-11.85646 0.92331,0.53276 2.07274,0.92943 3.34689,1.22758 -0.5855,-2.07329 -1.7393,-4.17254 -2.93178,-6.07793 -2.72566,-4.35521 -10.2565,-3.87115 -17.17548,-8.95222 -6.91898,-5.08107 -18.87586,-2.40815 -22.64986,-4.10184 -3.77397,-1.6937 -7.54363,-4.8341 -8.17261,-9.43127 -0.62901,-4.59716 -2.10918,-6.30697 -6.51217,-4.37131 -4.40298,1.93563 -10.4837,-1.92668 -18.03167,-3.86233 -0.70762,-0.18146 -1.38308,-0.24806 -2.04964,-0.23952 z"
       id="01_Drama"
       style="fill:none;stroke:#000000;stroke-width:1px;stroke-linecap:butt;stroke-linejoin:miter;stroke-opacity:1" />
    <path
       d="m 390.5616,387.99403 c -3.56432,-3.38739 -2.51599,-12.82367 1.25799,-16.45301 3.77401,-3.62933 11.95096,-7.01672 14.67664,1.45174 2.72565,8.46846 5.03197,13.06562 1.88698,15.96909 -3.14499,2.90348 -6.49964,6.77477 -9.8543,5.08108 -3.35466,-1.69369 -3.14498,-7.98455 -7.96731,-6.0489 z"
       id="02_Thasos"
       style="fill:none;stroke:#000000;stroke-width:1px;stroke-linecap:butt;stroke-linejoin:miter;stroke-opacity:1" />
    <path
       d="m 299.83081,296.69796 c -8.81689,0.24544 -11.68532,8.65183 -13.25782,10.23966 -1.67732,1.69369 -19.91156,-5.80041 -23.89521,-3.6228 -2.51599,1.6937 -1.46976,10.64255 0.20757,15.23972 1.67733,4.59715 16.97134,8.71588 21.79366,11.3774 4.82232,2.66151 4.20584,10.39331 6.51216,15.9583 2.30633,5.56498 8.38637,11.8572 15.51501,14.76067 7.12866,2.90347 3.75845,4.85598 6.69377,7.27554 2.93533,2.41956 15.93145,3.1389 20.96344,3.62281 2.06829,0.1989 3.0765,-0.46419 3.76201,-1.37727 -1.69293,-1.48701 -2.74097,-3.02231 -2.28315,-4.43119 1.258,-3.87129 13.21357,-1.70159 17.61655,-11.13787 4.40299,-9.43629 1.66759,-19.83841 -4.20306,-21.04819 -5.87065,-1.20978 -16.35078,-5.57775 -20.96343,-10.65882 -4.61266,-5.08107 2.10718,-9.4223 -1.0378,-13.2936 -3.14499,-3.8713 -8.18804,-0.72176 -9.23637,-3.38328 0.47002,-2.557 1.32074,-4.69251 2.56854,-6.49709 -4.78918,-1.6546 -11.44845,-2.23089 -18.91379,-2.93417 -0.6421,-0.0605 -1.25429,-0.10623 -1.84208,-0.0898 z"
       id="03_Serres"
       style="fill:none;stroke:#000000;stroke-width:1px;stroke-linecap:butt;stroke-linejoin:miter;stroke-opacity:1" />
    <path
       d="m 261.61405,304.27292 c -2.73844,0.23248 -4.83626,1.2343 -6.69377,2.42517 -3.77399,2.41956 -2.94441,11.62574 -1.68641,16.70681 1.25799,5.08108 -12.16037,3.60821 -15.51503,5.05996 -3.35465,1.45173 -9.6528,-2.17032 -14.68478,-0.71857 -3.774,0.96782 -2.51033,4.8268 -3.13934,10.14982 -0.62898,5.32304 -4.82995,5.09066 -4.41061,7.99413 0.41933,2.90346 10.91988,10.89834 16.3712,10.89834 5.45131,0 10.67953,6.52947 6.4862,6.28752 -4.19332,-0.24195 -2.71721,4.58166 -0.83022,7.48513 1.88698,2.90346 -3.77321,4.61402 -5.24086,7.27554 -1.46767,2.66151 5.23308,5.06146 8.58773,10.86841 3.35466,5.80693 6.71617,12.35009 9.65149,10.89834 2.93533,-1.45173 11.31049,-13.79527 14.03617,-14.52114 2.72566,-0.72587 4.41694,5.8124 3.78795,11.3774 -0.62901,5.56498 -5.04095,3.86718 -9.44393,3.38326 -4.40298,-0.48391 -1.24892,5.5843 1.68641,7.03603 2.93533,1.45174 2.71499,7.96007 8.79531,11.34746 1.14956,0.64042 2.18059,1.15959 3.13932,1.55691 -0.0762,-5.2162 3.61071,-10.2696 6.09704,-10.2696 2.93532,0 6.07175,-4.10505 8.58774,-6.76656 2.51599,-2.66152 12.59024,-5.54705 14.47723,-7.72465 1.88699,-2.17761 11.92896,-5.80846 15.07396,-5.80846 3.14499,0 9.44458,-5.56332 11.96057,-3.14375 1.02049,0.98137 1.82995,2.25612 2.64637,3.50303 -1.62404,-3.40725 -4.45857,-6.59585 -5.99325,-8.11388 -1.97079,-1.9494 1.44208,-7.05043 4.72196,-10.2696 -5.98454,-0.51246 -14.37785,-1.36376 -16.68255,-3.26352 -2.93532,-2.41956 0.43489,-4.37207 -6.69377,-7.27554 -7.12864,-2.90347 -13.20868,-9.19569 -15.51501,-14.76067 -2.30632,-5.56499 -1.68984,-13.29679 -6.51216,-15.9583 -4.82232,-2.66152 -20.11633,-6.78025 -21.79366,-11.3774 -1.46766,-4.02252 -2.44825,-11.37127 -0.98591,-14.28162 -0.0928,0.005 -0.194,-0.008 -0.28539,0 z"
       id="04_Thessaloniki"
       style="fill:none;stroke:#000000;stroke-width:1px;stroke-linecap:butt;stroke-linejoin:miter;stroke-opacity:1" />
    <path
       d="m 272.93897,422.59372 c -1.887,-6.04889 2.72565,-13.06561 5.66098,-13.06561 2.93533,0 6.08031,-4.11325 8.5963,-6.77476 2.51599,-2.66151 12.57997,-5.56499 14.46695,-7.74259 1.887,-2.17761 11.95097,-5.80694 15.09597,-5.80694 3.14498,0 9.43496,-5.56499 11.95096,-3.14544 2.51599,2.41957 3.77399,6.77477 6.91897,7.50064 3.14499,0.72587 11.04941,6.48441 2.47406,7.37966 -4.63642,0.48402 -5.61904,5.44401 -2.47406,8.10553 3.14499,2.6615 5.47229,6.41182 12.18161,7.13769 6.7093,0.72587 15.26367,3.00025 17.77967,8.08133 2.51599,5.08107 17.27648,14.73511 14.76049,17.63858 -2.516,2.90348 -5.30455,6.33925 -10.54621,-0.67748 -5.24165,-7.01671 -6.91897,-12.09779 -12.16062,-14.2754 -5.24165,-2.1776 -17.52808,-9.77502 -22.76974,-8.63782 -2.41182,0.52326 -9.93816,-1.0404 -9.30916,4.28261 0.62899,5.32304 2.30632,11.37194 9.64463,15.24323 7.33832,3.8713 8.59632,7.01672 11.53163,12.33975 2.93533,5.32303 5.66099,18.63061 0.62899,17.66279 -5.03197,-0.96784 -14.59275,-11.20255 -15.85074,-15.3158 -1.258,-4.11326 -6.16418,-16.42881 -10.56716,-18.60642 -4.40299,-2.1776 -12.9364,-6.16987 -16.77329,-5.51659 -3.1113,0.52973 -6.60448,1.42754 -5.45131,10.16214 1.18664,8.98816 6.85608,17.15467 12.51705,19.57424 5.66098,2.41956 22.70683,11.88003 14.94919,11.63807 -7.75764,-0.24196 -21.30206,-4.74232 -25.11799,-8.71041 -3.50023,-3.63981 -5.49325,-14.54154 -5.49325,-17.44501 0,-2.90348 1.25801,-11.5897 -3.35465,-12.31556 -4.61265,-0.72588 -14.67663,-4.11326 -19.28927,-8.71043 z"
       id="05_Chalkidiki"
       style="fill:none;stroke:#000000;stroke-width:1px;stroke-linecap:butt;stroke-linejoin:miter;stroke-opacity:1" />
    <path
       d="m 213.64203,322.17734 c -4.32975,0.054 -14.2513,2.17912 -19.9516,5.80847 -6.08031,3.87129 -12.17089,13.54998 -14.47722,20.80866 -1.04833,3.62934 3.15408,1.7025 1.68642,5.08988 -1.46766,3.38739 -5.0445,3.63087 -6.51216,5.80847 -1.46767,2.1776 1.26985,5.06875 3.99551,10.14983 2.72566,5.08107 8.17262,6.78587 8.17262,13.80258 0,7.01673 1.26774,15.46467 4.20307,16.9164 2.93532,1.45173 14.94103,12.3864 16.34525,18.17388 1.46767,6.0489 -3.76767,9.18353 -0.62267,15.9583 3.14498,6.77477 4.61673,11.36616 7.34239,6.52704 2.72566,-4.83912 7.94755,0.24834 7.10888,5.32941 -0.83866,5.08108 2.72487,7.00608 5.24086,7.00608 2.51599,0 7.56457,10.88861 13.85455,11.85645 6.28998,0.96782 1.89333,-5.32287 -0.62266,-8.95222 -2.516,-3.62933 -1.68577,-18.61479 0.83022,-25.38956 2.51599,-6.77477 2.91846,-12.36133 1.66047,-15.74872 -1.258,-3.38737 -1.24259,-10.37719 1.06374,-11.58697 1.26165,-0.6618 2.77595,-2.98899 4.43658,-5.11983 -2.09371,-1.96621 -4.32625,-6.08157 -6.53812,-9.91031 -3.35465,-5.80695 -10.0554,-8.2069 -8.58773,-10.86841 1.46765,-2.66152 7.12784,-4.37208 5.24086,-7.27554 -1.88699,-2.90347 -3.3631,-7.72708 0.83022,-7.48513 4.19333,0.24195 -1.03489,-6.28752 -6.4862,-6.28752 -5.45132,0 -15.95187,-7.99488 -16.3712,-10.89834 -0.41934,-2.90347 3.78163,-2.67109 4.41061,-7.99413 0.62901,-5.32302 -0.63466,-9.182 3.13934,-10.14982 0.28833,-0.0832 0.58628,-0.12788 0.88212,-0.17965 -4.5065,-3.10462 -8.22875,-5.30972 -9.46986,-5.3893 -0.23588,-0.0152 -0.51564,-0.004 -0.80429,0 z"
       id="06_Imathia"
       style="fill:none;stroke:#000000;stroke-width:1px;stroke-linecap:butt;stroke-linejoin:miter;stroke-opacity:1" />
    <path
       d="m 180.19912,346.09982 c -5.76522,0.76763 -13.4038,6.71421 -16.39714,9.37138 -3.85467,3.42178 -6.22306,-5.462 -9.78122,-5.11983 -3.55815,0.34217 -14.8182,4.43976 -19.56241,3.41322 -4.74421,-1.02653 -16.6047,3.43034 -18.68029,10.95823 -1.18604,5.13266 4.43656,8.19087 6.51216,13.32354 2.07559,5.13266 0.60415,6.84782 -2.36098,15.06008 -2.96513,8.21226 -13.05027,7.54501 -17.20144,9.94025 -4.15117,2.39523 -4.15117,9.22167 -2.07559,11.61692 2.07559,2.39524 9.18448,7.17716 13.33566,15.38942 4.15117,8.21226 3.85465,8.92228 8.30235,6.52704 4.44769,-2.39525 1.18233,-15.06008 3.55445,-19.85057 2.37209,-4.79048 16.61209,-4.46114 24.02493,-6.85637 7.41281,-2.39525 8.00212,-18.13112 9.7812,-20.86855 1.77908,-2.73741 16.6084,-1.02652 19.27702,-2.39523 1.56661,-0.80352 3.33359,-5.70739 5.18897,-9.85045 -1.80149,-2.26786 -4.20064,-4.05815 -5.73381,-6.91625 -2.72566,-5.08108 -5.46318,-7.97223 -3.99551,-10.14983 1.46766,-2.1776 5.0445,-2.42108 6.51216,-5.80847 1.46766,-3.38738 -2.73475,-1.46054 -1.68642,-5.08988 0.27609,-0.86894 0.60787,-1.77047 0.98591,-2.69465 z"
       id="07_Florina"
       style="fill:none;stroke:#000000;stroke-width:1px;stroke-linecap:butt;stroke-linejoin:miter;stroke-opacity:1" />
    <path
       d="m 184.11679,376.7589 c -1.85538,4.14306 -3.62236,9.04693 -5.18897,9.85045 -2.66862,1.36871 -17.49794,-0.34218 -19.27702,2.39523 -1.77908,2.73743 -2.36839,18.4733 -9.7812,20.86855 -7.41284,2.39523 -21.65284,2.06589 -24.02493,6.85637 -2.37212,4.79049 0.89324,17.45532 -3.55445,19.85057 -4.21478,2.26981 -4.29312,1.54004 -7.8094,-5.50906 -0.11979,3.56716 -0.0404,7.16328 -0.49295,9.25162 -0.88954,4.10614 2.66491,5.4834 7.70562,8.56299 5.04071,3.0796 -2.37951,6.15493 -3.26906,11.28757 -0.88953,5.13267 8.89539,9.25591 16.60471,9.94026 7.70933,0.68436 4.4514,7.1686 10.97467,4.4312 6.52328,-2.73742 12.45353,-3.76823 18.6803,-3.08388 6.22675,0.68437 18.09467,4.79904 21.94933,6.16775 3.85467,1.36872 -0.60044,-8.2208 -3.26904,-13.35348 -2.66862,-5.13265 5.05553,-5.11126 8.61368,-8.53304 2.07547,-1.99592 8.76873,-11.5446 14.71073,-20.59909 -0.0757,-0.16438 -0.12996,-0.28193 -0.20756,-0.4491 -3.145,-6.77477 2.09034,-9.9094 0.62267,-15.9583 -1.40422,-5.78748 -13.40993,-16.72215 -16.34525,-18.17388 -2.93533,-1.45173 -4.20307,-9.89967 -4.20307,-16.9164 0,-3.06981 -1.03766,-5.12243 -2.43881,-6.88633 z"
       id="08_Kozani"
       style="fill:none;stroke:#000000;stroke-width:1px;stroke-linecap:butt;stroke-linejoin:miter;stroke-opacity:1" />
    <path
       d="m 100.62626,414.60373 c -2.35625,1.68585 -4.32541,3.67848 -5.05924,5.08988 -1.887,3.62934 -1.47109,16.68887 -4.82575,24.43146 -3.35465,7.7426 -11.95978,-0.22903 -17.201418,1.70662 -5.24165,1.93564 -2.51521,7.48513 -5.240859,7.48513 -2.725664,0 -6.693117,0.97254 -4.177124,8.47317 2.935325,2.90347 5.013683,7.99806 4.384677,13.56305 -0.628993,5.56499 2.536936,4.34214 5.681926,7.2456 3.144988,2.90348 2.497028,7.2447 1.868018,13.29359 -0.628978,6.0489 1.0644,7.52556 3.5804,9.4612 2.51599,1.93565 6.47989,11.83366 7.10888,20.06016 0.62901,8.22651 3.41815,6.09337 6.09704,3.65274 3.98366,-3.62934 15.00229,4.47264 18.86191,-3.89227 3.89747,-8.4469 8.61683,-15.10504 13.41348,-12.81455 6.08032,2.90349 5.66019,-3.85897 5.24087,-10.14982 -0.41934,-6.29085 -5.64544,-4.11797 -6.69377,-8.47317 -1.04834,-4.35521 6.08294,-3.87935 10.0666,-2.18567 3.98365,1.6937 -1.70117,-7.26248 -0.2335,-14.52115 0.44801,-2.21577 1.25716,-4.51409 2.15342,-6.82643 -0.20847,-0.0298 -0.39575,-0.0697 -0.62268,-0.0898 -7.70932,-0.68435 -17.49424,-4.8076 -16.60471,-9.94025 0.88955,-5.13266 8.30977,-8.20798 3.26906,-11.28757 -5.04071,-3.0796 -8.59516,-4.45687 -7.70562,-8.56299 0.45241,-2.08835 0.37316,-5.68446 0.49295,-9.25164 -0.19431,-0.38957 -0.27559,-0.58797 -0.49295,-1.01802 -4.15118,-8.21225 -11.26007,-12.99418 -13.33566,-15.38942 -0.0128,-0.0148 -0.0133,-0.0447 -0.0259,-0.0599 z m 13.85456,16.46728 c 0.79181,1.58735 1.39028,2.81809 1.91992,3.80245 -0.49445,-0.93599 -1.18658,-2.33232 -1.91992,-3.80245 z m 1.91992,3.80245 c 0.20537,0.38169 0.41274,0.74898 0.59674,1.04792 -0.19193,-0.319 -0.37812,-0.63407 -0.59674,-1.04792 z m 8.38018,-5.23959 c -0.0319,0.69738 -0.0799,1.36581 -0.15566,2.00601 0.0766,-0.6382 0.12392,-1.31043 0.15566,-2.00601 z m -0.72645,4.64077 c -0.12552,0.3486 -0.27179,0.66722 -0.44106,0.95811 0.1705,-0.29246 0.31451,-0.60757 0.44106,-0.95811 z"
       id="09_Ioannina"
       style="fill:none;stroke:#000000;stroke-width:1px;stroke-linecap:butt;stroke-linejoin:miter;stroke-opacity:1" />
    <path
       d="m 60.625,473.01843 c -2.168827,-0.0234 -0.444044,7.3991 0.59375,10.09375 1.186051,3.0796 -3.864812,8.19379 -8.3125,9.5625 -4.151175,1.02653 -3.579212,4.80013 -4.46875,8.90625 -0.889538,4.10613 0.02179,6.51416 5.0625,9.59375 5.040713,3.0796 0.295788,3.76573 -0.59375,7.1875 -0.889538,3.42177 5.334287,13.30956 10.375,19.46875 5.040713,6.15919 9.192575,-1.00158 13.34375,-1.34375 4.151175,-0.34218 10.082112,-0.69537 13.34375,-2.40625 1.009005,-0.52927 1.674133,-2.21736 2.125,-4.375 -2.433172,2.08709 -4.772671,3.18774 -5.34375,-4.28125 -0.628998,-8.2265 -4.609008,-18.12686 -7.125,-20.0625 -2.515993,-1.93565 -4.191498,-3.41985 -3.5625,-9.46875 0.628999,-6.0489 1.26999,-10.37778 -1.875,-13.28125 -2.985534,-2.75625 -5.95986,-1.8127 -5.71875,-6.46875 -2.815463,-0.82565 -5.327756,-1.68156 -6.65625,-2.625 -0.481833,-0.34217 -0.877668,-0.49666 -1.1875,-0.5 z m -35.0625,0.59375 c -3.342715,-0.008 -8.876445,1.72067 -11.65625,0.4375 -3.706407,-1.71088 -6.5123618,7.17983 -3.84375,12.3125 0,0 0.593005,6.31879 6.375,7.6875 5.781995,1.36871 7.275431,15.90016 8.90625,21.375 1.630818,5.47484 13.043593,8.404 16.75,11.3125 3.706407,2.90851 5.019632,1.53105 1.90625,-5.3125 -3.113381,-6.84355 -4.302312,-3.2446 -8.75,-5.46875 -4.447687,-2.22414 -5.905525,-11.1306 -5.3125,-15.75 0.593025,-4.6194 -5.040694,-6.99234 -6.375,-12.125 -1.334307,-5.13266 7.40915,-6.3579 9.78125,-9.4375 2.3721,-3.07959 -3.564674,-2.02585 -5.34375,-4.25 -0.444769,-0.55604 -1.323262,-0.77858 -2.4375,-0.78125 z"
       id="10_Thesprotia"
       style="fill:none;stroke:#000000;stroke-width:1px;stroke-linecap:butt;stroke-linejoin:miter;stroke-opacity:1" />
    <path
       d="m 123.32801,511.91041 c -4.16998,-0.14456 -8.21301,5.87259 -11.62329,13.26365 -3.85962,8.36491 -14.87825,0.26293 -18.86191,3.89227 -0.24668,0.22474 -0.50563,0.41707 -0.7524,0.62874 -0.002,0.01 0.002,0.0202 0,0.0299 -0.45078,2.1439 -1.12303,3.84443 -2.12748,4.37132 -3.26163,1.71087 -9.18446,2.05305 -13.33565,2.39523 -1.799278,0.14831 -3.604198,1.56357 -5.474358,2.63477 1.13292,2.84244 2.1637,5.48247 2.38693,6.85638 0.629,3.87128 10.283898,12.33625 14.477218,15.23972 4.19331,2.90346 0.83656,8.72394 0.20755,13.56305 -0.62898,4.83913 9.01196,0.96297 10.68929,0.47906 1.67732,-0.48392 -3.97865,-4.12207 -5.65598,-5.08989 -1.67733,-0.96782 2.72763,-3.87281 7.54996,-5.80847 4.8223,-1.93564 9.85824,4.8601 15.0999,3.89228 7.75763,-1.93565 4.38534,-8.23927 6.90133,-10.65883 2.51598,-2.41956 6.29326,0.47661 12.58325,0.71857 6.28998,0.24196 6.08439,-6.5132 7.34239,-10.86841 1.258,-4.3552 3.55655,-6.53585 3.34688,-11.61692 -0.20966,-5.08107 -8.80227,-5.80922 -10.68927,-8.7127 -1.88701,-2.90347 -4.82574,-7.99 -4.82574,-11.37738 0,-0.93922 -0.46883,-2.19797 -1.14158,-3.53299 -0.80887,0.97246 -2.13062,1.18889 -4.30685,0.1497 -0.59958,-0.28625 -1.19448,-0.42839 -1.79019,-0.44905 z"
       id="11_Arta"
       style="fill:none;stroke:#000000;stroke-width:1px;stroke-linecap:butt;stroke-linejoin:miter;stroke-opacity:1" />
    <path
       d="m 185.49187,468.61642 c 2.21833,4.82561 4.05202,10.04554 1.14157,9.0121 -3.85466,-1.36871 -15.72258,-5.48338 -21.94933,-6.16775 -6.22677,-0.68435 -12.15702,0.34646 -18.6803,3.08388 -6.33125,2.65682 -3.47883,-3.35839 -10.35199,-4.34138 -0.89626,2.31234 -1.70541,4.61066 -2.15342,6.82643 -1.46767,7.25867 4.21715,16.21485 0.2335,14.52115 -3.98366,-1.69368 -11.11494,-2.16954 -10.0666,2.18567 1.04833,4.3552 6.27443,2.18232 6.69377,8.47317 0.26924,4.03927 0.51707,8.25556 -0.93402,10.00014 0.67275,1.335 1.14158,2.59376 1.14158,3.53297 0,3.38738 2.93873,8.47393 4.82574,11.3774 1.887,2.90347 10.47961,3.63161 10.68927,8.71268 0.20967,5.08108 -2.08888,7.26174 -3.34688,11.61694 -0.64983,2.24968 -0.92817,5.13012 -1.89397,7.36535 4.35771,-0.53954 9.82325,-3.91212 13.20592,-6.88631 4.40299,-3.8713 11.131,-2.18079 13.64699,-2.66471 2.516,-0.48392 0.4221,9.92642 2.3091,14.28163 1.88698,4.35521 6.07662,-2.41302 10.68928,-3.6228 4.61264,-1.20977 1.24034,13.05239 6.90132,16.19782 5.66098,3.14542 14.48631,-10.87722 16.16364,-15.9583 1.67733,-5.08107 6.70075,-9.4571 8.58774,-12.84449 1.88699,-3.38739 -3.35532,-5.30022 -2.51665,-8.2037 0.83866,-2.90347 1.04412,-6.29388 0.41511,-11.61691 -0.62898,-5.32303 -0.63109,-12.09507 0.20758,-18.14397 0.83865,-6.04889 -8.79386,-5.82456 -11.51952,-10.17977 -2.72566,-4.3552 -7.33673,-2.64114 -10.48172,-7.96417 -3.145,-5.32303 6.70431,-5.58505 5.65597,-9.94026 -0.60855,-2.52819 -5.01064,-6.08709 -8.61368,-8.65281 z"
       id="12_Trikala"
       style="fill:none;stroke:#000000;stroke-width:1px;stroke-linecap:butt;stroke-linejoin:miter;stroke-opacity:1" />
    <path
       d="m 206.68881,435.14291 c -5.942,9.05449 -12.63526,18.60317 -14.71073,20.59909 -3.55815,3.42178 -11.2823,3.40039 -8.61368,8.53304 0.65368,1.25729 1.40777,2.77582 2.12747,4.34138 0.002,0.004 0.024,-0.004 0.0259,0 3.59968,2.56474 7.98019,6.12885 8.58772,8.65281 1.04835,4.35521 -8.80096,4.61723 -5.65596,9.94026 3.14499,5.32303 7.75606,3.60897 10.48172,7.96417 2.72566,4.35521 12.35817,4.13088 11.51952,10.17977 -0.83867,6.0489 -0.83656,12.82094 -0.20758,18.14397 0.62901,5.32303 0.42355,8.71344 -0.41511,11.61691 -0.83867,2.90348 4.40364,4.81631 2.51665,8.2037 -0.23587,0.42343 -0.50901,0.86363 -0.83024,1.31739 1.80755,1.08086 3.54951,1.66468 5.03331,1.58684 4.61265,-0.24195 6.70983,2.4413 10.27415,6.7965 3.56432,4.35522 2.72698,7.98683 5.03331,8.71269 2.30632,0.72588 3.14144,-6.53099 2.93177,-12.09597 -0.20967,-5.56499 2.29434,-3.16153 3.762,-4.37131 1.46766,-1.20978 3.97589,-7.49804 3.34688,-9.19174 -0.62899,-1.69369 -0.82049,-7.74487 3.37284,-8.71269 4.19331,-0.96783 1.47042,0.95414 2.30908,-4.61084 0.83866,-5.56498 3.77597,-4.3324 7.54995,-8.2037 3.774,-3.87129 6.28142,-6.05361 8.58775,-8.47316 2.30633,-2.41956 -2.09943,-10.39332 -2.3091,-15.9583 -0.20966,-5.565 -5.44696,-10.66688 -8.17261,-12.84449 -2.72567,-2.17759 -4.81733,-12.09672 -5.65599,-15.00019 -0.48795,-1.68931 -4.16165,-3.29131 -7.16077,-4.34138 2.44107,3.62223 5.11456,8.33197 -0.38918,7.48513 -6.28998,-0.96784 -11.33855,-11.85645 -13.85455,-11.85645 -2.516,0 -6.07952,-1.925 -5.24086,-7.00608 0.83867,-5.08107 -4.38322,-10.16853 -7.10888,-5.32941 -2.6584,4.7197 -4.14625,0.42028 -7.13483,-6.07794 z"
       id="13_Larisa"
       style="fill:none;stroke:#000000;stroke-width:1px;stroke-linecap:butt;stroke-linejoin:miter;stroke-opacity:1" />
    <path
       d="m 262.875,506.92468 c -2.08856,2.10756 -4.42253,4.21174 -7.75,7.625 -3.77398,3.87129 -6.72384,2.62252 -7.5625,8.1875 -0.83866,5.56499 1.91207,3.65718 -2.28125,4.625 -4.19332,0.96782 -4.00399,7.02506 -3.375,8.71875 0.629,1.69369 -1.87609,7.97772 -3.34375,9.1875 -1.46766,1.20978 -3.99091,-1.18999 -3.78125,4.375 0.20967,5.56498 -0.63117,12.81962 -2.9375,12.09375 -1.38599,-0.43621 -1.65333,-1.9386 -2.40625,-4 0.26249,5.7337 0.91551,11.71097 1.375,13.125 0.88953,2.73743 6.82048,-0.51326 13.34375,0 6.52328,0.51327 6.54794,5.13129 13.8125,6.5 7.26456,1.36871 10.18386,0.69447 13.59375,-1.1875 3.40989,-1.88198 1.94259,-3.60544 -0.28125,-2.75 -2.22385,0.85545 -4.88809,-1.35633 -2.8125,-4.09375 2.07559,-2.73742 -2.9702,-9.04383 -4.15625,-11.78125 -1.18605,-2.73742 -5.48763,-2.06496 -8.15625,-6 -2.66862,-3.93504 2.22092,-6.86174 4,-7.375 1.77908,-0.51326 5.48836,-6.6477 8.75,-8.1875 3.26164,-1.5398 12.7529,7.17895 15.125,8.71875 2.3721,1.5398 2.67805,11.80867 1.34375,14.375 -1.3343,2.56634 -9.49418,2.21335 -11.125,4.4375 -1.63081,2.22415 9.04432,1.19447 13.34375,-0.6875 4.29943,-1.88198 8.1577,-5.62431 9.34375,-8.875 1.18605,-3.25069 -5.64099,-13.72661 -5.9375,-15.4375 -0.29652,-1.71088 -4.90697,-8.00786 -5.5,-9.71875 -0.59302,-1.71088 -8.41715,-12.33992 -10.9375,-14.90625 -2.52036,-2.56633 -6.07993,-3.58048 -7.5625,-4.09375 -0.62527,-0.21647 -2.36054,-1.50042 -4.125,-2.875 z m 93.8125,25.21875 c -1.3566,0.10025 -3.25872,1.02104 -4,2.625 -0.44477,2.56633 -1.93823,1.71178 -2.53125,3.59375 -0.59303,1.88198 3.99491,4.29452 6.21875,3.78125 2.22384,-0.51326 1.92951,-7.7102 1.78125,-9.25 -0.0556,-0.57743 -0.65479,-0.81015 -1.46875,-0.75 z m -12.21875,13.3125 c -0.21572,0.002 -0.44657,0.0297 -0.6875,0.0937 -1.92732,0.51327 -4.29797,5.12115 -5.1875,7.6875 -0.88954,2.73742 -4.44259,5.13288 -2.21875,6.84375 2.22385,1.71089 3.86046,-1.18525 4.75,-4.09375 0.88954,-2.90851 4.59447,-4.27742 5.1875,-6.84375 0.5189,-2.24554 -0.33368,-3.70153 -1.84375,-3.6875 z m -27.65625,6.53125 c -0.15835,-0.005 -0.32976,0.0198 -0.46875,0.0625 -1.03779,2.05306 1.7907,4.79069 3.125,6.84375 1.3343,2.05307 2.0654,5.654 4.4375,8.5625 2.37211,2.90851 5.78341,-0.67895 7.5625,-2.21875 1.77907,-1.5398 0.88954,-5.3125 0,-5.3125 -0.88954,0 -5.01743,-3.07735 -6.5,-2.90625 -1.3899,0.16039 -5.78093,-4.95669 -8.15625,-5.03125 z m -8.875,0.125 c -1.61395,-0.002 -4.53179,1.66809 -5.375,4.03125 -1.33431,0.17109 -2.49855,0.18367 -1.3125,2.75 1.18607,2.56633 4.29143,1.36556 6.21875,-0.6875 1.92733,-2.05307 2.35029,-4.78598 1.3125,-5.8125 -0.19459,-0.19248 -0.4713,-0.28087 -0.84375,-0.28125 z"
       id="14_Magnisia"
       style="fill:none;stroke:#000000;stroke-width:1px;stroke-linecap:butt;stroke-linejoin:miter;stroke-opacity:1" />
    <path
       d="m 86.25,588.79968 c -0.137977,-0.002 -0.289244,-8.3e-4 -0.4375,0.0312 -2.3721,0.51327 -6.674412,10.26032 -8.75,15.90625 -2.075588,5.64592 -2.966575,12.48988 -1.1875,13.6875 1.779075,-0.68436 3.867731,-6.6594 4.3125,-7.34375 0.444769,-0.68436 1.478919,4.43682 3.40625,7.6875 1.927332,3.25069 2.2231,-2.72662 5.78125,-4.4375 3.55815,-1.71089 2.381544,-4.12117 1.34375,-6.6875 -1.037794,-2.56633 -0.890987,-5.11733 -1.1875,-10.25 -0.27798,-4.81187 -1.211598,-8.56555 -3.28125,-8.59375 z m -3.03125,37.875 c -1.842706,-0.26754 -3.810143,5.52933 -2.28125,6.8125 1.630818,1.36871 2.954212,7.18682 3.84375,10.4375 0.889537,3.25069 2.385169,8.20234 4.3125,8.03125 1.482562,-0.34217 1.608288,-8.53911 0.71875,-10.25 -0.889537,-1.71088 -3.09375,-3.76258 -3.09375,-6.5 0,-2.73742 -1.197668,-7.17738 -3.125,-8.375 -0.120458,-0.0749 -0.252153,-0.13841 -0.375,-0.15625 z m -8.5,3.25 c -0.891854,-0.0468 -0.879724,6.78571 -0.75,9.03125 0.148257,2.56633 -2.665693,9.08363 -4,10.28125 -1.334307,1.19762 -5.064675,-4.10859 -6.84375,-3.9375 -1.779075,0.1711 -4.422963,14.72121 -5.3125,18.65625 -0.593025,2.9085 2.947668,5.125 4.875,5.125 1.927331,0 2.219475,-4.12431 2.8125,-7.375 0.593025,-3.25069 1.196943,-5.12028 2.53125,-4.09375 1.334307,1.02653 0.891713,11.81968 1.78125,16.78125 0.889538,4.96157 8.150431,-0.36645 9.78125,-1.90625 1.630818,-1.5398 12.456388,7.71247 15.125,6.34375 2.668613,-1.36871 -4.307406,-11.46423 -6.53125,-17.28125 -2.223844,-5.81702 -5.339381,-5.63984 -8.15625,-5.46875 -2.816869,0.1711 -1.0298,-6.17041 0.15625,-9.25 1.186051,-3.0796 -3.696943,-13.83992 -5.03125,-16.40625 -0.166788,-0.32079 -0.310092,-0.49332 -0.4375,-0.5 z m 8.5625,65.84375 c -1.572495,0.36294 -4.400253,5.44028 -5.34375,8.34375 -0.943497,2.90346 3.789423,9.67913 5.78125,13.1875 3.564323,1.45173 8.601923,10.76701 10.59375,12.21875 1.991827,1.45174 2.521078,-2.4081 0.84375,-4.34375 -1.677328,-1.93564 2.392256,-5.70853 4.59375,-7.28125 2.20149,-1.57272 6.07267,3.86386 7.75,4.46875 1.67733,0.60488 -1.24709,-3.72772 -3.34375,-4.9375 -2.09666,-1.20978 -2.50417,-7.38892 -5.125,-9.6875 -2.620826,-2.29858 -8.506173,-2.90006 -10.8125,-4.59375 -2.306326,-1.69368 -3.365005,-7.73794 -4.9375,-7.375 z"
       id="15_Kefalonia"
       style="fill:none;stroke:#000000;stroke-width:1px;stroke-linecap:butt;stroke-linejoin:miter;stroke-opacity:1" />
    <path
       d="m 145.17357,553.52774 c -1.48088,0.62549 -2.94375,1.11543 -4.30684,1.28743 -0.90627,2.09746 -2.42249,3.62044 -5.47436,3.50306 -6.28999,-0.24197 -10.06727,-3.13815 -12.58325,-0.71858 -1.75488,1.68761 -0.63851,5.2676 -2.43882,7.93423 1.31104,2.22856 2.53862,4.07459 3.295,4.88031 2.72566,2.90346 0.83168,10.89105 -1.89397,11.61692 -2.72568,0.72586 -7.32976,0.5058 -8.58775,-2.15572 -1.258,-2.66152 -14.89301,-1.1078 -17.409,-1.1078 -2.51599,0 -2.1653,2.78854 -1.16751,7.27556 0.88397,3.97521 -3.2389,1.67343 -3.65823,7.60487 -0.20478,2.89665 3.77806,4.3584 7.3424,2.66472 3.5643,-1.6937 3.33845,-1.21145 4.17711,3.14375 0.83867,4.35521 3.98774,9.43689 7.3424,11.85644 3.35466,2.41957 2.52297,12.83552 1.89397,16.70681 -0.62899,3.8713 4.39377,-4.34866 6.0711,-3.6228 1.67731,0.72587 2.10785,13.06532 1.47886,17.90444 -0.629,4.83912 1.67231,10.86596 5.65597,11.10792 3.98365,0.24196 10.68572,-9.19005 13.62104,-12.33548 2.93532,-3.14543 5.67416,9.93371 9.02881,13.56305 3.35466,3.62933 5.04093,-1.22832 9.44392,-4.13179 4.40299,-2.90348 11.31683,1.47438 13.41349,0.74851 2.09666,-0.72587 4.8131,-3.63087 6.07109,-5.80847 1.258,-2.1776 4.39798,-4.83652 5.65597,-9.19173 1.258,-4.35521 6.09561,-5.80923 8.82125,-8.7127 2.72567,-2.90347 -0.0175,-10.17324 -0.85617,-13.80257 -0.83866,-3.62933 2.31751,-8.2344 1.47885,-11.13788 -0.83866,-2.90348 -1.88133,-4.35596 -3.13932,-2.90422 -1.258,1.45174 -9.23004,4.37937 -9.85904,6.55697 -0.629,2.1776 -5.04449,5.55846 -6.51216,3.6228 -1.46766,-1.93564 -13.61749,-5.81895 -16.55281,-7.75459 -2.93531,-1.93565 2.71854,-10.1579 5.86354,-12.33549 3.14498,-2.17761 -6.69021,-6.76732 -9.62554,-9.6708 -2.93532,-2.90347 -9.87801,-9.67641 -7.99101,-12.09596 1.88698,-2.41957 3.14986,-5.31802 2.10153,-9.43127 -0.46325,-1.81761 -0.67429,-3.53081 -0.70052,-5.05994 z"
       id="16_Akarnanien"
       style="fill:none;stroke:#000000;stroke-width:1px;stroke-linecap:butt;stroke-linejoin:miter;stroke-opacity:1" />
    <path
       d="m 211.51455,544.6354 c -2.24859,3.17636 -6.28985,7.08116 -7.75751,11.5271 -1.67733,5.08108 -10.50266,19.10372 -16.16364,15.9583 -5.66098,-3.14543 -2.28868,-17.40759 -6.90132,-16.19782 -4.61266,1.20978 -8.8023,7.97801 -10.68928,3.6228 -1.887,-4.35521 0.2069,-14.76555 -2.3091,-14.28163 -2.51599,0.48392 -9.244,-1.20659 -13.64699,2.66471 -2.3191,2.03905 -5.62421,4.22661 -8.87314,5.59888 0.0262,1.52913 0.23727,3.24233 0.70052,5.05994 1.04833,4.11325 -0.21455,7.0117 -2.10153,9.43127 -1.887,2.41955 5.05569,9.19249 7.99101,12.09596 2.93533,2.90348 12.77052,7.49319 9.62554,9.6708 -3.145,2.17759 -8.79885,10.39984 -5.86354,12.33549 2.93532,1.93564 15.08515,5.81895 16.55281,7.75459 1.46767,1.93566 5.88316,-1.4452 6.51216,-3.6228 0.629,-2.1776 8.60104,-5.10523 9.85904,-6.55697 1.22074,-1.40876 2.23594,-0.0681 3.06148,2.66471 1.27009,-0.95385 2.31895,-1.61474 2.80206,-1.67668 1.887,-0.24195 6.25271,6.10358 9.36609,5.41923 3.11337,-0.68435 10.37052,-7.67761 12.29785,-7.33542 1.92733,0.34217 -1.92733,4.95302 -2.07558,7.00608 -0.14826,2.05307 3.11707,2.5535 7.86127,1.52696 4.74421,-1.02653 16.16735,-1.7066 20.91155,0.68864 4.74421,2.39524 12.88718,3.61424 17.92789,4.64078 5.04072,1.02653 2.23867,-5.84269 2.38693,-8.92227 0.14826,-3.0796 -4.15117,-3.0796 -7.26455,-2.39525 -3.11339,0.68436 -7.86871,-4.9359 -10.09255,-6.6468 -2.22384,-1.71087 -8.43207,-1.55261 -10.50767,-2.06588 -2.07558,-0.51326 2.79834,-5.9924 4.28092,-6.67674 1.48255,-0.68436 12.30898,4.78192 14.08804,4.61084 1.77907,-0.17109 4.229,-4.3371 9.41798,-5.44918 5.18896,-1.11207 7.34609,-6.69384 8.97692,-7.63483 0.42509,-0.24529 -0.045,-0.58184 -0.95996,-0.9581 -3.1561,1.61655 -6.16962,2.14999 -12.97243,0.86827 -7.26456,-1.3687 -7.27938,-5.98381 -13.80265,-6.49708 -6.52328,-0.51326 -12.44613,2.73742 -13.33565,0 -0.4595,-1.41403 -1.1126,-7.38025 -1.37508,-13.11395 -0.49997,-1.36883 -1.1981,-2.99266 -2.62043,-4.73061 -3.56433,-4.3552 -5.66151,-7.03845 -10.27416,-6.7965 -1.4838,0.0778 -3.22576,-0.50598 -5.0333,-1.58684 z m 23.63575,2.00601 c -0.0391,0.0827 -0.0701,0.17099 -0.1038,0.26947 0.0329,-0.0973 0.0654,-0.18751 0.1038,-0.26947 z"
       id="17_Evrytania"
       style="fill:none;stroke:#000000;stroke-width:1px;stroke-linecap:butt;stroke-linejoin:miter;stroke-opacity:1" />
    <path
       d="m 215.97706,598.76786 c -1.92733,-0.34219 -9.18448,6.65107 -12.29785,7.33542 -3.11338,0.68435 -7.47909,-5.66118 -9.36609,-5.41923 -0.48311,0.0619 -1.53197,0.72283 -2.80206,1.67668 0.0252,0.0833 0.053,0.15352 0.0777,0.23951 0.83865,2.90348 -2.31752,7.50855 -1.47887,11.13788 0.83867,3.62933 3.58184,10.8991 0.85619,13.80257 -2.72565,2.90347 -7.56326,4.35749 -8.82125,8.7127 -1.15556,4.00056 -3.87857,6.57313 -5.29275,8.65282 1.69902,1.01463 3.22479,1.82127 3.83984,2.21559 1.88699,1.20977 7.95096,-2.65741 11.93463,-3.38328 3.98365,-0.72586 8.82401,9.67808 11.13034,8.95221 2.30632,-0.72586 8.37031,-2.89374 11.93463,-0.9581 3.56432,1.93566 4.61608,-3.3889 4.82574,-5.80846 0.20967,-2.41956 4.19739,-5.33107 7.34239,-2.18565 3.14499,3.14543 4.82429,15.9656 7.54995,15.23972 2.72565,-0.72586 1.45924,-4.10747 0.83024,-6.52704 -0.629,-2.41955 3.36294,-7.26263 6.92726,-5.56893 0.41935,2.1776 -0.84288,6.04068 0.41512,6.76657 1.258,0.72586 6.09494,6.55529 6.3046,9.70072 0.20967,3.14542 10.67796,4.10186 16.96794,4.10186 6.28998,0 3.57261,3.87766 6.92726,5.3294 3.35466,1.45173 4.4001,-1.45174 5.44842,0 1.04834,1.45173 10.25941,-1.46222 11.72708,-1.94613 1.46766,-0.48391 1.4907,-7.98196 5.47436,-9.19174 3.98366,-1.20978 3.97798,0.25 3.13933,2.18566 -0.83867,1.93563 -0.22166,3.88011 3.76199,5.08988 3.98366,1.20979 6.92373,7.48514 9.85905,7.48514 2.93533,0 5.87894,-5.08001 6.92727,-15.00021 1.04833,-9.9202 1.462,-5.068 3.13933,-7.2456 1.67733,-2.1776 -7.95729,-3.88497 -11.31195,-4.61084 -3.35466,-0.72588 -6.5065,-6.53508 -9.65149,-8.71269 -3.14499,-2.1776 -7.75396,3.14376 -10.68928,3.14376 -2.93531,0 -0.84708,-3.13966 0.83024,-6.52704 1.67733,-3.38738 2.10785,-6.05361 1.47886,-8.47318 -0.62901,-2.41956 0.19281,-5.32773 1.66046,-8.47316 1.46767,-3.14543 -11.31471,-6.04311 -13.62104,-6.52703 -2.30632,-0.48392 -3.55931,3.15106 -5.65597,2.42518 -2.09667,-0.72586 -3.15263,-7.99974 -4.41062,-10.41929 -0.54093,-1.04039 -4.44097,-1.70802 -8.89909,-2.18566 -0.0956,3.11824 2.60879,9.8498 -2.38693,8.83245 -5.04071,-1.02654 -13.18369,-2.24554 -17.92789,-4.64078 -4.7442,-2.39524 -16.16734,-1.71517 -20.91154,-0.68864 -4.74421,1.02654 -8.00954,0.52611 -7.86129,-1.52696 0.14826,-2.05306 4.00292,-6.66391 2.07559,-7.00608 z"
       id="18_Fokida"
       style="fill:none;stroke:#000000;stroke-width:1px;stroke-linecap:butt;stroke-linejoin:miter;stroke-opacity:1" />
    <path
       d="m 292.375,571.86218 c -1.89186,-0.0261 -3.8338,1.32558 -6.21875,1.71875 -2.93533,0.48392 -7.36301,6.02598 -9.25,8.6875 -1.88699,2.66151 -17.60901,6.55815 -20.125,10.1875 -2.51599,3.62934 5.0356,1.65625 10.90625,1.65625 5.87065,0 7.77034,0.0304 11.125,-0.9375 3.35466,-0.96782 5.44985,4.5724 10.0625,6.75 4.61265,2.1776 16.76925,15.26886 18.65625,18.65625 1.88699,3.38738 2.50727,6.0625 6.28125,6.0625 3.77399,0 4.59884,5.55816 5.4375,9.1875 0.83867,3.62934 -3.32268,4.6151 -5,2.4375 -1.67733,-2.1776 -6.93676,-0.50186 -11.96875,-2.4375 -2.59293,-0.99743 -5.48951,-0.77066 -8.40625,-0.1875 -0.28248,1.1694 -0.75642,2.43707 -1.4375,3.8125 -1.67732,3.38738 -3.77907,6.53125 -0.84375,6.53125 2.93532,0 7.54251,-5.33385 10.6875,-3.15625 3.145,2.17761 6.30159,7.99288 9.65625,8.71875 1.63477,0.35372 4.76213,0.95802 7.34375,1.71875 0.13813,-2.68052 0.61931,-5.45129 2.09375,-6.8125 3.14499,-2.90347 1.44876,-1.70174 4.59375,-0.25 3.145,1.45174 14.27361,0.50804 22.03125,0.75 7.75764,0.24196 3.77616,5.54919 2.9375,7.96875 -0.83866,2.41956 6.69367,7.0099 9,9.1875 2.30633,2.1776 1.26417,10.42326 2.3125,11.875 1.04833,1.45174 5.44875,6.54826 8.59375,8 3.14499,1.45174 1.25834,8.70018 6.5,13.78125 5.24165,5.08107 2.52943,-3.36696 6.09375,-3.125 3.56432,0.24195 7.33284,5.53559 10.6875,1.90625 3.35466,-3.62934 1.89099,-16.71441 -0.625,-20.34375 -2.51599,-3.62935 -5.87826,2.21782 -10.28125,1.25 -4.40299,-0.96782 -12.363,-6.30197 -14.25,-11.625 -1.88699,-5.32303 -7.12391,-19.35735 -5.65625,-25.40625 1.46766,-6.0489 -0.22093,-10.64294 -3.15625,-13.0625 -2.93532,-2.41956 -10e-4,-5.81528 -1.46875,-8.71875 -1.46766,-2.90347 -14.89134,-4.09375 -18.875,-4.09375 -3.98365,0 -13.00508,-6.29642 -13.84375,-5.8125 -0.83866,0.48391 -12.58393,-6.0823 -17.40625,-10.4375 -4.82232,-4.35521 -5.02726,-12.30816 -5.65625,-15.9375 -0.629,-3.62934 -5.41351,-6.55631 -9.1875,-8.25 -0.43244,-0.18146 -0.90717,-0.24397 -1.34375,-0.25 z m 93.90625,7.6875 c -0.41032,0.0229 -0.67137,0.2681 -0.75,0.8125 -0.41933,2.90347 -2.30741,7.96348 -1.46875,10.625 1.46766,2.66152 2.92042,2.42946 3.96875,2.1875 1.04833,-0.24196 4.40225,2.418 5.03125,6.53125 0.62899,4.11325 5.87826,4.58386 10.28125,2.40625 4.40299,-2.1776 -3.76126,-7.25989 -6.90625,-9.4375 -3.14499,-2.1776 -1.04142,-7.96163 -2.71875,-8.6875 -1.36283,-0.58976 -5.65943,-4.53656 -7.4375,-4.4375 z"
       id="19_Euboa"
       style="fill:none;stroke:#000000;stroke-width:1px;stroke-linecap:butt;stroke-linejoin:miter;stroke-opacity:1" />
    <path
       d="m 326.15625,653.08093 c -0.85754,0.009 -1.94405,0.0383 -2.9375,0.0625 0.24673,0.3257 0.30283,0.64748 0.0312,1 -1.67733,2.1776 -2.07667,-2.6702 -3.125,7.25 -1.04833,9.92019 -4.00218,15 -6.9375,15 -2.93533,0 -5.8601,-6.25897 -9.84375,-7.46875 -3.98366,-1.20978 -4.61991,-3.15811 -3.78125,-5.09375 0.83866,-1.93565 0.85865,-3.39728 -3.125,-2.1875 -3.98366,1.20978 -4.00109,8.70359 -5.46875,9.1875 -1.0008,0.32998 -5.56021,1.78365 -8.71875,2.21875 0.38629,2.47682 0.54202,4.57165 -0.125,5.78125 -2.07559,3.76396 -5.0625,6.17513 -5.0625,10.28125 0,4.10612 5.62718,9.5625 7.40625,9.5625 1.77908,0 9.50362,-3.0969 12.46875,-3.78125 2.96513,-0.68436 2.67224,5.48762 2.96875,9.59375 0.29651,4.10612 7.41132,2.08589 11.5625,0.375 4.15118,-1.71088 4.73981,-3.78125 9.1875,-3.78125 4.44769,0 4.72528,6.1596 10.0625,13.6875 5.33722,7.52791 4.17514,-0.35927 6.84375,3.0625 2.66862,3.42177 5.33502,10.25944 10.96875,12.3125 6.52327,-2.05306 5.31467,-3.74706 7.09375,-9.90625 1.77908,-6.15919 -3.25145,-9.23605 -4.4375,-13 -1.18606,-3.76395 -1.76671,-16.11577 -2.65625,-20.90625 -0.88954,-4.79048 -2.97967,-3.38915 0.875,-6.46875 3.85467,-3.07959 4.46658,-9.92984 2.6875,-15.0625 -1.77907,-5.13267 -19.58138,-11.28283 -22.25,-11.625 -0.66715,-0.0856 -2.01035,-0.10984 -3.6875,-0.0937 z m -15.40625,64.25 c -2.33504,0.0855 -5.35464,0.67423 -7.875,1.1875 -2.66862,1.71088 0.28342,4.125 2.0625,4.125 1.77908,0 1.17513,7.84218 3.84375,7.5 2.66861,-0.34217 5.06323,-7.8579 5.65625,-10.9375 0.29651,-1.5398 -1.35246,-1.96054 -3.6875,-1.875 z m -12.3125,13.84375 c -2.45027,0.21569 -3.90734,7.68284 -2.40625,10.28125 1.77908,3.07959 1.19987,3.40625 -1.46875,3.40625 -2.66862,0 -8.00218,-5.125 -9.78125,-5.125 -5.93025,4.79048 -1.77472,6.85633 3.5625,9.59375 5.33722,2.73743 9.78559,4.4375 13.34375,4.4375 3.55815,0 -0.29289,7.1875 2.96875,7.1875 3.26164,0 5.90842,-2.07037 7.6875,-3.78125 1.77908,-1.71089 -2.35974,-7.50786 -2.65625,-9.21875 -0.29652,-1.71088 -5.9404,-1.36105 -8.3125,-5.125 -2.37211,-3.76395 1.79289,-7.54698 -1.46875,-10.96875 -0.50963,-0.53465 -1.015,-0.72744 -1.46875,-0.6875 z m 14,33.1875 c -1.77213,0.0468 -4.75798,1.46683 -8.09375,2.75 -5.33722,2.05307 -5.31903,1.03912 -10.65625,2.75 0.88954,3.0796 7.10028,4.4375 12.4375,4.4375 5.33722,0 8,-4.79698 8,-8.21875 0,-1.28317 -0.62422,-1.74682 -1.6875,-1.71875 z m -50.96875,117.8125 c -0.65789,-0.0321 -1.37209,0.42738 -2.1875,1.625 -3.26164,4.79048 -0.58723,17.77517 4.75,23.25 2.96512,0.34217 5.31395,3.09375 6.5,3.09375 1.18605,0 0,-5.48291 0,-8.5625 0,-3.0796 5.36046,-2.04068 6.25,-4.09375 0.88954,-2.05307 -5.05158,-7.19693 -8.90625,-9.25 -2.89099,-1.53979 -4.43259,-5.96626 -6.40625,-6.0625 z"
       id="20_Attika"
       style="fill:none;stroke:#000000;stroke-width:1px;stroke-linecap:butt;stroke-linejoin:miter;stroke-opacity:1" />
    <path
       d="m 223.08594,674.42755 c -1.6249,-0.0302 -3.09757,0.29453 -4.67006,0.77845 0,0 0.84288,6.99226 -0.41512,11.34746 -1.258,4.35521 -8.60315,10.17734 -9.65149,10.4193 -1.04833,0.24196 -0.81903,7.5134 0.64863,10.65883 1.46766,3.14542 9.00772,7.47783 11.1044,8.2037 2.09665,0.72587 -1.26213,13.78291 -0.20758,12.60496 2.84414,-3.17694 7.87141,1.65636 10.06662,8.2037 2.13589,6.37049 1.87711,14.76386 3.55444,17.42539 1.67731,2.66151 9.44668,-0.47494 11.75301,-3.86233 2.30633,-3.38738 -0.007,-9.21197 3.34689,-10.17978 3.35466,-0.96783 7.56114,8.48045 9.0288,7.75459 1.46766,-0.72586 8.16064,1.45326 11.93464,5.80847 3.77397,4.3552 7.13126,1.93959 10.06659,5.56894 2.93532,3.62933 -5.45053,3.61624 -5.24085,7.24559 0.20967,3.62934 5.87959,5.34478 9.44393,6.79651 3.56431,1.45173 6.08162,-6.55774 5.03329,-9.46121 -1.04834,-2.90348 5.22189,-2.17837 7.10889,-2.90423 1.22444,-0.471 4.43708,-0.85829 7.26455,-1.31739 -0.27603,-2.09377 0.96176,-5.74858 -1.58263,-5.74858 -3.55815,0 -7.99843,-1.7237 -13.33565,-4.46112 -5.10661,-2.61914 -9.11126,-4.61892 -4.25496,-8.98216 -1.72861,-2.87696 -3.2577,-6.1439 -4.229,-7.54501 -1.67733,-2.41958 1.26076,-8.21981 2.30909,-12.57503 1.04832,-4.3552 -1.68497,-7.50047 -4.41064,-8.9522 -2.72564,-1.45174 -7.73577,-8.24656 -7.31643,-9.94026 0.41931,-1.69369 7.96151,0.98241 10.89683,-1.43715 0.58769,-0.48442 1.0727,-1.16305 1.47885,-1.94613 -2.34664,-1.6314 -5.7338,-5.64054 -5.7338,-8.83246 0,-1.60173 0.44343,-2.95698 1.11562,-4.2216 -4.75226,-1.16867 -11.18683,-1.68631 -13.43942,-1.22757 -3.56434,0.72587 -6.70642,6.07792 -5.44843,6.07792 1.258,0 5.67351,2.8977 6.51216,6.52703 0.83866,3.62934 -8.60592,1.44445 -11.96057,0.71858 -3.35466,-0.72586 -6.90897,-11.14107 -11.31195,-13.80258 -4.40299,-2.66152 -9.45157,-5.79143 -13.85455,-7.48513 -2.2015,-0.84684 -3.97918,-1.22726 -5.6041,-1.2575 z"
       id="21_Korinthia"
       style="fill:none;stroke:#000000;stroke-width:1px;stroke-linecap:butt;stroke-linejoin:miter;stroke-opacity:1" />
    <path
       d="m 177.99381,651.97216 c -0.49936,0.0238 -0.98962,0.0942 -1.45292,0.17965 -7.41281,1.3687 -13.32453,16.74102 -19.84781,19.82062 -6.52327,3.07959 -14.5254,-6.83072 -16.00797,-5.11983 -1.48255,1.71089 -5.95248,15.04725 -9.80715,22.57516 -3.85466,7.52789 -13.63586,10.62459 -13.93237,14.73073 -0.29652,4.10612 14.54393,9.92314 16.91604,14.37144 2.37209,4.4483 -0.89696,9.22168 2.95771,9.22168 3.85466,0 9.18447,7.20712 17.48682,15.41938 3.55815,5.13265 5.63745,13.31924 6.8235,17.42538 1.18605,4.10611 5.34834,0.36783 12.16812,-0.6587 6.8198,-1.02653 5.62632,-4.79048 7.1089,-7.18573 1.48255,-2.39524 8.00583,0.32935 6.22676,-4.46112 -1.77908,-4.79049 -8.93161,-11.22497 -15.12585,-13.68283 -1.70514,-0.6766 1.78278,-18.81547 2.67232,-23.26378 1.68278,-8.415 7.40911,-0.33789 11.8568,3.08388 4.44769,3.42177 9.79973,-0.70574 14.84044,-1.04792 2.39156,-0.16234 5.97385,-1.77647 9.46988,-3.95216 -0.59917,-0.6216 -1.08227,-1.22448 -1.34913,-1.79642 -1.46766,-3.14543 -1.69696,-10.41687 -0.64863,-10.65883 1.04834,-0.24196 8.39349,-6.06409 9.65149,-10.4193 1.258,-4.3552 0.41512,-11.34746 0.41512,-11.34746 0.89154,-0.27436 1.74712,-0.49239 2.62043,-0.62875 -2.83216,-4.13884 -6.71066,-5.00006 -9.49582,-5.00006 -3.55814,0 -7.4054,-1.02226 -11.26005,-6.4971 -3.61376,-5.13266 -14.79636,-11.4638 -22.28663,-11.10793 z"
       id="22_Elis"
       style="fill:none;stroke:#000000;stroke-width:1px;stroke-linecap:butt;stroke-linejoin:miter;stroke-opacity:1" />
    <path
       d="m 176.77439,707.63159 c -1.1532,0.0539 -2.06862,1.08293 -2.59448,3.71262 -0.88954,4.44831 -4.37746,22.58718 -2.67232,23.26378 6.19424,2.45786 13.34677,8.89234 15.12585,13.68283 1.1399,3.06938 -1.1279,3.07092 -3.29499,3.29345 1.23015,2.4386 2.01086,4.58763 1.81614,5.59887 -0.59304,3.07959 1.18975,8.20799 6.82349,18.47331 5.63375,10.26533 8.28382,10.27388 13.62105,13.35346 3.85465,-1.3687 0.31134,-12.32693 2.38692,-13.35346 2.07559,-1.02653 4.74419,3.77677 8.30235,6.85637 3.55815,3.0796 4.74049,-2.73742 3.55445,-4.79048 -1.18605,-2.05307 3.55072,-9.24306 7.10888,-10.2696 3.55815,-1.02652 8.01325,9.5724 11.57141,15.38942 3.55814,5.81703 2.97254,12.31411 3.26904,18.47331 0.29652,6.15919 9.1956,4.12323 15.12584,5.14977 5.93025,1.02653 7.1052,-2.07019 8.58775,-5.14977 1.48257,-3.0796 -2.0867,-7.18573 -3.86577,-7.18573 -1.77908,0 -1.47887,-7.84441 -1.47887,-10.23966 0,-2.39524 -9.18447,-18.49039 -9.18447,-21.22782 0,-1.41421 -2.75858,-6.94043 -5.47436,-12.84448 -0.0734,0.13205 -0.14792,0.26351 -0.23351,0.38923 -2.30633,3.38739 -10.0757,6.52384 -11.75301,3.86233 -1.67733,-2.66153 -1.41855,-11.0549 -3.55444,-17.42539 -2.19521,-6.54734 -7.22248,-11.38064 -10.06662,-8.2037 -1.05455,1.17795 2.30423,-11.87909 0.20758,-12.60496 -1.71545,-0.59389 -7.05921,-3.61026 -9.75527,-6.40728 -3.49603,2.17569 -7.07832,3.78982 -9.46988,3.95216 -5.04071,0.34218 -10.39275,4.46969 -14.84044,1.04792 -3.05778,-2.35248 -6.72527,-6.91517 -9.26232,-6.7965 z"
       id="23_Arkadien"
       style="fill:none;stroke:#000000;stroke-width:1px;stroke-linecap:butt;stroke-linejoin:miter;stroke-opacity:1" />
    <path
       d="m 183.33846,751.58427 c -1.21516,0.12477 -2.39912,0.30713 -2.93177,1.16767 -1.48258,2.39525 -0.2891,6.1592 -7.1089,7.18573 -5.00828,0.75387 -8.56986,2.95714 -10.58549,2.45513 0.50189,2.91713 0.97386,5.56353 1.08969,6.76654 0.29651,3.0796 -1.48998,3.08389 -5.34464,7.87437 -3.85467,4.79048 -7.10889,15.38514 -5.03331,19.49128 2.07559,4.10612 5.34093,10.28243 8.89909,21.91646 3.55814,11.63403 7.1163,13.00701 12.45353,17.45532 5.33722,4.4483 6.81607,-1.02652 7.70562,-4.79048 0.88953,-3.76396 -1.18977,-17.79751 1.47884,-24.64105 2.66862,-6.84356 13.63218,-2.74597 15.41125,-1.37727 1.77908,1.36871 -3.55073,12.99418 -0.88212,12.99418 2.66861,0 7.1163,4.44831 10.37793,9.58098 3.26164,5.13265 7.11631,25.6804 8.30235,33.89266 1.18606,8.21226 6.24159,12.30983 8.61369,15.38942 2.3721,3.0796 0.27798,-10.26104 -0.90807,-16.07805 -1.18605,-5.817 2.0793,-16.43306 4.74791,-22.93444 2.66861,-6.50136 8.9065,-8.21654 14.24373,-7.87436 5.63373,0.34219 6.20822,2.75026 7.39427,6.85638 1.18606,4.10614 1.20829,7.54075 3.58039,9.25163 2.3721,1.71089 8.58033,17.42538 11.54546,17.42538 2.96513,0 4.74419,5.1455 8.30235,9.25162 3.55814,4.10613 6.5381,1.03081 6.5381,-4.10185 0,-5.13266 -8.02438,-11.28758 -11.28601,-18.4733 -3.26163,-7.18573 2.09413,-9.93599 5.05925,-11.64686 2.96512,-1.7109 -1.7902,-8.89234 -3.86579,-13.68282 -2.07558,-4.79048 -3.26905,-16.42879 -3.26905,-19.85057 0,-1.62949 -1.00843,-3.01186 -2.25719,-4.10185 -0.0389,0.10667 -0.0535,0.22481 -0.10381,0.32935 -1.48256,3.07958 -2.6575,6.1763 -8.58774,5.14977 -5.93025,-1.02654 -14.82934,1.00942 -15.12585,-5.14977 -0.29651,-6.1592 0.28909,-12.65628 -3.26904,-18.47331 -3.55816,-5.81702 -8.01327,-16.41594 -11.5714,-15.38942 -3.55817,1.02654 -8.29494,8.21653 -7.1089,10.2696 1.18605,2.05306 0.003,7.87008 -3.55443,4.79048 -3.55817,-3.0796 -6.22677,-7.8829 -8.30236,-6.85637 -2.07559,1.02653 1.46773,11.98476 -2.38693,13.35346 -5.33723,-3.07958 -7.9873,-3.08813 -13.62105,-13.35346 -5.63374,-10.26532 -7.41652,-15.39372 -6.82348,-18.47331 0.19472,-1.01124 -0.58599,-3.16027 -1.81614,-5.59887 z"
       id="24_Lakonien"
       style="fill:none;stroke:#000000;stroke-width:1px;stroke-linecap:butt;stroke-linejoin:miter;stroke-opacity:1" />
    <path
       d="m 311.51751,1014.176 c -4.82232,-5.807 -3.56432,-12.3397 -2.51599,-17.42082 1.04833,-5.081 3.35466,-12.58172 3.145,-16.45301 -0.20968,-3.87128 0.20966,-7.74256 1.25799,-6.53287 1.04833,1.20979 2.09666,10.88809 6.08031,10.16215 3.98366,-0.72586 4.19332,-7.25864 3.56431,-13.06557 -0.62898,-5.80695 3.145,-10.16216 4.61266,-8.22651 1.46767,1.93564 -1.258,13.79152 1.25799,16.211 2.51601,2.41958 14.67664,3.87138 18.45061,2.90351 3.774,-0.96777 3.56433,-11.13002 9.01565,-8.95236 5.45132,2.17757 9.64464,9.4363 5.24165,11.12993 -4.40298,1.69372 -13.83795,1.20979 -8.38665,3.87133 5.45132,2.6615 11.32197,-1.69368 12.9993,1.20978 1.67733,2.90342 -0.41933,13.79154 4.40299,12.58174 4.82232,-1.2098 17.19879,1.4446 20.75694,-2.66152 3.77398,-4.3553 23.48258,-7.2586 24.53092,-4.8392 1.04833,2.4196 10.90264,0 7.75765,2.9036 -3.145,2.9034 -5.24165,8.46842 -3.35466,11.61382 1.88699,3.1454 2.30633,6.2909 -0.83867,8.9524 -3.14499,2.6616 -5.45131,-5.323 -7.12864,-1.6937 -1.67732,3.6294 3.77398,10.888 -0.20967,12.0978 -3.98365,1.2098 -12.16062,4.1132 -16.5636,3.6294 -4.40299,-0.4839 -10.06399,-10.1622 -17.61196,-11.614 -7.54798,-1.4516 -17.61195,-2.1775 -23.27292,-1.4516 -5.66099,0.7258 -20.12794,-5.807 -25.15993,-4.5972 -5.03199,1.2097 -14.2573,1.6936 -18.03128,0.2419 z"
       id="25_Chania"
       style="fill:none;stroke:#000000;stroke-width:1px;stroke-linecap:butt;stroke-linejoin:miter;stroke-opacity:1" />
    <path
       d="m 432.07169,992.63538 c -1.04658,0.1208 -6.05546,1.3362 -10.97468,2.7246 2.33369,0.06 4.23245,0.1346 2.5945,1.6467 -3.145,2.9035 -5.2339,8.47152 -3.34689,11.61692 1.88699,3.1455 2.28881,6.2908 -0.85618,8.9524 -3.14499,2.6614 -5.43156,-5.3361 -7.10889,-1.7067 -1.67733,3.6294 3.75015,10.8862 -0.2335,12.0959 -1.60058,0.486 -3.86693,1.2429 -6.3046,1.9463 1.78045,2.2479 3.26956,4.7342 3.58039,7.0059 0.629,4.5973 -3.76134,13.0542 -1.24536,13.0542 2.51601,0 28.31347,1.454 32.71645,-0.2396 4.40299,-1.6938 21.38685,-6.7616 28.30583,-7.2455 6.91899,-0.4841 18.44034,-2.8922 26.82697,-4.102 8.38665,-1.2098 22.86439,-1.2098 24.75138,0 1.88701,1.2098 10.67664,0.9518 11.93464,-4.3713 1.258,-5.323 3.36163,-18.1503 1.89396,-23.4734 -1.46765,-5.323 -6.93425,4.6013 -8.82124,5.569 -1.88699,0.9679 -7.12285,-3.8664 -10.89683,-0.4791 -3.77398,3.3875 -17.18524,12.3526 -21.37855,10.6589 -4.19333,-1.6938 -6.29552,-9.9265 -4.61819,-14.2817 1.67733,-4.3552 8.7982,-11.1427 3.3469,-10.6588 -5.45134,0.4839 -17.82122,5.3318 -23.27254,5.0899 -5.45132,-0.242 -18.42993,-5.3392 -20.10725,-4.3713 -1.67733,0.9677 -13.63435,1.4493 -14.89235,0.2395 -1.25799,-1.2098 0.20269,-9.91272 -1.89397,-9.67082 z"
       id="26_Iraklio"
       style="fill:none;stroke:#000000;stroke-width:1px;stroke-linecap:butt;stroke-linejoin:miter;stroke-opacity:1" />
    <path
       d="m 686.09375,866.17468 c -1.33294,0.01 -0.57167,2.67737 -2.40625,3.3125 -2.09667,0.72587 -16.99527,7.7305 -22.65625,11.84375 -5.66098,4.11325 -7.54143,11.86354 -9.21875,16.21875 -1.67733,4.3552 -7.14825,4.36169 -8.40625,6.78125 -1.258,2.41957 4.82376,2.64479 7.96875,7 3.14499,4.35521 -4.17842,11.12963 -3.96875,15.96875 6.91898,10.64606 8.37209,4.84189 10.46875,2.90625 2.09667,-1.93565 6.52034,-11.59034 9.875,-16.1875 3.35466,-4.59716 8.367,-0.49473 9.625,-3.15625 1.258,-2.66151 -3.133,-3.64201 -1.875,-5.09375 1.258,-1.45174 8.79251,-18.13241 11.9375,-25.875 3.14499,-7.74259 1.68133,-12.59468 -0.625,-13.5625 -0.28829,-0.12098 -0.52833,-0.15767 -0.71875,-0.15625 z m -75.375,69.375 c -1.25801,0 -2.53924,6.52414 -1.28125,7.25 1.258,0.72586 -3.33976,10.17512 -3.96875,13.5625 -0.62899,3.38739 -6.93133,15.7011 -4.625,21.75 2.30633,6.0489 0.4226,12.59469 4.40625,13.5625 3.35466,-0.48391 5.45276,-5.32147 7.96875,-6.53125 2.51599,-1.20978 -1.47492,-9.43315 -3.78125,-13.0625 -2.30632,-3.62934 -3.11883,-6.78404 -0.8125,-9.6875 2.30633,-2.90347 3.98692,-10.168 4.40625,-14.28125 0.41934,-4.11325 -1.0545,-12.5625 -2.3125,-12.5625 z m -17.65625,53.875 c -1.52687,0.0905 -3.57238,0.69481 -4.375,0.5625 -1.46766,-0.24196 -6.90226,6.51793 -7.53125,8.9375 0,0 1.46583,1.44462 3.5625,0.71875 2.09667,-0.72586 9.01415,-5.78403 10.0625,-8.6875 0.39312,-1.0888 -0.17482,-1.47596 -1.09375,-1.53125 -0.19144,-0.0115 -0.40688,-0.0129 -0.625,0 z"
       id="27_Rhodos"
       style="fill:none;stroke:#000000;stroke-width:01px;stroke-linecap:butt;stroke-linejoin:miter;stroke-opacity:1" />
    <path
       d="m 569.6875,782.73718 c -1.22311,0.0428 -2.18023,0.61173 -2.625,1.125 -3.4099,3.42177 2.64971,2.91412 3.6875,4.625 1.03779,1.71089 -0.88809,3.41726 1.1875,5.8125 2.07559,2.39524 3.8779,1.3923 6.25,5.15625 2.37211,3.76395 2.81178,4.95323 2.21875,8.375 -0.59302,3.42177 -0.73184,9.24842 1.34375,8.90625 2.07559,-0.34218 5.02544,1.18347 6.65625,-3.09375 1.63082,-4.27721 0.58141,-7.70165 -3.125,-10.78125 -3.7064,-3.07959 -7.40697,-5.63444 -8,-7.6875 -0.59302,-2.05307 -0.44112,-6.85948 -3.40625,-10.28125 -1.48256,-1.71089 -2.96439,-2.19902 -4.1875,-2.15625 z m 38.9375,35.5 c -2.79834,-0.0642 -6.36772,0.36488 -10,1.5625 -7.26456,2.39524 -12.14099,12.84533 -12.4375,13.1875 -0.29651,0.34218 -4.89244,0.86016 -6.375,1.03125 -1.48258,0.1711 2.22091,10.4375 4,10.4375 2.22383,-1.5398 0.14316,-5.31182 2.21875,-8.5625 2.0756,-3.25069 8.6032,-1.36173 9.9375,-1.875 1.33431,-0.51325 6.67877,-6.17895 12.3125,-7.71875 5.63374,-1.5398 6.9673,-5.11645 5.78125,-6.65625 -0.59302,-0.7699 -2.63916,-1.34209 -5.4375,-1.40625 z m -7.78125,31.8125 c -0.18442,-0.006 -0.35865,-8.2e-4 -0.5625,0.0312 -3.26164,1.19762 -4.45858,3.08991 -2.53125,5.65625 1.92733,2.56633 5.03997,4.61084 5.78125,1.53125 0.69495,-2.88713 0.0787,-7.12289 -2.6875,-7.21875 z"
       id="28_Kos"
       style="fill:none;stroke:#000000;stroke-width:1px;stroke-linecap:butt;stroke-linejoin:miter;stroke-opacity:1" />
    <path
       d="m 388.53125,785.14343 c -0.30298,0.0256 -0.61849,0.0664 -0.96875,0.15625 -5.60409,1.43714 -7.07326,6.23011 -4.375,10.0625 3.11338,0 6.84841,1.43679 8.09375,-1.4375 1.16753,-2.69465 1.79466,-9.16545 -2.75,-8.78125 z m 82.78125,0.75 c -2.20148,0 -6.46252,8.12382 -10.71875,10.15625 -4.25623,2.03243 -3.0709,7.287 -1.75,10.84375 1.3209,3.55675 2.76165,8.11453 5.84375,12.6875 2.05472,-0.50811 7.95086,-4.55942 9.125,-5.40625 1.17413,-0.84685 3.21875,-13.38076 3.21875,-16.9375 0,-3.55675 -3.51726,-11.34375 -5.71875,-11.34375 z m -25.1875,5.71875 c -0.11736,-10e-4 -0.2245,0.0101 -0.34375,0.0312 -3.81592,0.67748 -10.72093,10.17394 -13.65625,15.59375 -2.93533,5.41981 -7.48383,6.10259 -6.75,8.8125 2.34826,3.72612 7.48601,-0.86188 9.6875,-1.03125 2.20149,-0.16937 0.41961,-7.11188 1.59375,-7.28125 1.17413,-0.16937 8.82136,5.43294 12.34375,-0.15625 3.41231,-5.41452 0.76308,-15.93365 -2.875,-15.96875 z m -44.96875,14.0625 c -0.41796,0.0482 -0.81898,0.19929 -1.15625,0.46875 -0.62268,3.11381 2.27471,10.56339 3.3125,14.15625 1.03779,3.59286 6.04012,-3.13635 5.625,-6.96875 -0.36323,-3.35334 -4.85556,-7.99355 -7.78125,-7.65625 z m 108.375,11.625 c -2.75195,0.47805 -9.77353,6.75557 -10.84375,9.5625 -1.14157,2.99405 -9.23881,6.47434 -9.03125,8.03125 0.20756,1.19762 0.32063,1.80744 2.5,2.40625 2.17938,0.59881 4.9734,-2.75524 6.21875,-2.875 1.24535,-0.11976 7.8029,-9.33922 10.8125,-12.09375 3.0096,-2.75453 6.95756,-0.36488 6.75,-1.5625 -0.20756,-1.19762 -3.65435,-3.10945 -5.9375,-3.46875 -0.1427,-0.0225 -0.28529,-0.0319 -0.46875,0 z m -28.5,2.28125 c -1.27971,-0.0463 -2.62674,0.75129 -3.09375,2.03125 -0.83024,2.27548 0.093,3.33345 2.6875,3.8125 2.28315,-1.55692 3.85029,-1.30797 2.8125,-4.0625 -0.45403,-1.20511 -1.41091,-1.74523 -2.40625,-1.78125 z m -87.75,8.125 c -2.1595,0.0492 -4.64448,0.45 -4.28125,3.59375 0.41512,3.59286 -0.19679,8.38549 -2.6875,8.625 -2.49071,0.23952 -3.33721,-5.76012 -4.375,-4.5625 -1.03779,1.19761 -0.39928,4.33381 1.46875,6.25 1.86803,1.91618 -3.94679,-0.011 -6.4375,-2.40625 -2.49071,-2.39524 -2.91744,4.08397 -3.125,6.71875 -0.20756,2.63477 8.3e-4,5.49947 8.71875,3.34375 8.71747,-2.15572 7.69216,-1.91832 8.9375,-8.625 1.24535,-6.70669 1.65203,-5.26101 3.3125,-7.65625 1.66047,-2.39524 2.07326,-2.88601 -0.625,-5.28125 -0.28539,0 -0.59775,-0.007 -0.90625,0 z m 56.8125,5.71875 c -3.77399,0.24196 -1.04216,9.20544 2.3125,11.625 4.40299,5.32303 6.29143,6.05354 7.96875,4.84375 1.67732,-1.20979 1.04216,-8.00185 -2.3125,-9.9375 -3.35466,-1.93564 -4.19476,-6.77322 -7.96875,-6.53125 z m -9.9375,9.84375 c -0.23106,0.0126 -0.48792,0.0484 -0.75,0.0937 -4.19332,0.72586 -3.98801,1.45019 -5.875,6.53125 0.83866,5.32303 3.58284,2.64541 6.9375,-0.5 3.14499,-2.94885 3.15344,-6.31284 -0.3125,-6.125 z m -22.59375,5.03125 c -0.2133,0.0181 -0.41028,0.0494 -0.59375,0.125 -3.98364,0.72585 -1.24273,2.44213 2.53125,7.28125 3.77399,4.83913 6.27726,2.39635 6.90625,0.21875 0.58967,-2.0415 -5.64424,-7.89614 -8.84375,-7.625 z m 40.6875,20.3125 c -1.91725,-0.23924 0.77125,5.94125 2.34375,9.34375 1.67732,3.62934 -3.57051,6.27507 -2.3125,7.96875 9.01564,5.32303 10.70967,-2.87871 10.5,-6.75 -0.20966,-3.87129 -7.3681,-9.19646 -10.09375,-10.40625 -0.17036,-0.0756 -0.30969,-0.1403 -0.4375,-0.15625 z"
       id="29_Naxos"
       style="fill:none;stroke:#000000;stroke-width:1px;stroke-linecap:butt;stroke-linejoin:miter;stroke-opacity:1" />
    <path
       d="m 409.75,692.01843 c -2.22238,0.11127 -6.6875,3.04595 -6.6875,8 0.29354,5.75855 7.46921,9.14578 12.3125,13.71875 4.84328,4.57298 6.45756,13.0482 8.21875,15.25 1.76119,2.20179 3.2416,-5.4151 4.5625,-8.125 1.3209,-2.70991 -1.77285,-2.89814 -3.09375,-3.40625 -1.3209,-0.50811 -0.42241,-7.77078 -1.15625,-12.34375 -0.73383,-4.57297 -5.42739,-2.21256 -8.65625,-3.90625 -3.22886,-1.69369 -3.37889,-7.28818 -4.40625,-8.8125 -0.19263,-0.28581 -0.58089,-0.40068 -1.09375,-0.375 z m -31.8125,38 c -0.73943,0.0243 -1.61315,0.20321 -2.625,0.5625 -4.0474,1.43714 -5.72762,8.26625 -5.3125,10.78125 0.41512,2.515 -0.61919,6.23464 0.9375,7.3125 3.5285,-1.43714 9.65741,-11.2769 9.96875,-14.75 0.2335,-2.60483 -0.75047,-3.97923 -2.96875,-3.90625 z m 51,0.5625 c -1.02737,0.0212 -1.88309,0.27816 -2.25,1.125 -0.73383,1.69369 4.53623,6.75191 7.03125,7.9375 2.49503,1.18559 5.30737,7.79629 11.03125,8.8125 5.72389,1.01621 4.54633,-7.10761 3.8125,-10.15625 -0.73383,-3.04864 -3.51726,-3.73688 -5.71875,-3.90625 -2.20149,-0.16937 -8.09873,-1.19134 -10.59375,-3.5625 -1.10075,-0.0847 -2.28513,-0.27117 -3.3125,-0.25 z m -6.8125,20.03125 c -0.81488,-0.0315 -1.33432,2.36713 -1.25,3.4375 0.10378,1.31738 -1.87078,3.95357 -3.53125,5.75 -1.66047,1.79643 0.51584,5.26083 1.96875,6.9375 2.07559,0.83833 4.13313,-1.19309 6.3125,-2.75 2.17937,-1.55691 0.44172,-3.08887 -1.21875,-4.40625 -1.66047,-1.31738 -0.54593,-6.85458 -1.6875,-8.53125 -0.21404,-0.31438 -0.4057,-0.43022 -0.59375,-0.4375 z m 35.5625,0.4375 c -1.96038,0.10681 -3.60495,0.92077 -3.6875,1.96875 -0.14677,1.86306 -2.06748,2.22568 -4.5625,3.75 -2.49502,1.52432 -6.74782,4.56014 -3.8125,8.625 2.05473,2.54054 5.73212,-0.33757 6.90625,-2.03125 1.17413,-1.69369 3.79571,-2.03936 6.4375,-1.53125 2.64179,0.50811 4.40454,-3.54127 6.3125,-4.21875 1.90796,-0.67748 -0.12717,-2.87883 -3.0625,-5.25 -1.2842,-1.03738 -3.00651,-1.39557 -4.53125,-1.3125 z m -75.65625,3.1875 c -1.81059,-0.22616 -3.441,3.67175 -4.03125,5.8125 -0.72646,2.63477 1.26351,2.64125 2.09375,5.15625 0.83024,2.515 -2.92631,7.0475 -2.71875,9.5625 2.38693,0.83833 5.29593,-3.21422 6.4375,-5.96875 1.14157,-2.75453 1.65203,-3.23464 3.3125,-4.3125 1.66047,-1.07786 -1.5606,-6.3497 -3.84375,-9.34375 -0.42809,-0.56138 -0.83217,-0.85406 -1.25,-0.90625 z"
       id="30_Mykonos"
       style="fill:none;stroke:#000000;stroke-width:1px;stroke-linecap:butt;stroke-linejoin:miter;stroke-opacity:1" />
    <path
       d="m 564.3125,711.08093 c -5.80208,0.0869 -12.9333,7.44492 -14.25,12.4375 0.20756,4.31143 0.83953,4.5625 2.5,4.5625 1.66047,0 5.38007,-4.0831 9.53125,-3.125 4.15118,0.9581 2.91787,4.55273 6.03125,7.1875 3.11338,2.63477 4.76816,1.91619 6.84375,0 2.07559,-1.91619 5.00085,-6.21893 10.8125,-6.9375 5.81165,-0.71857 3.11149,-2.89702 2.28125,-7.6875 -0.83024,-4.79048 -6.03632,-2.6353 -10.1875,-2.15625 -4.15118,0.47905 -5.7933,-2.38583 -11.8125,-4.0625 -0.5643,-0.15719 -1.14978,-0.22774 -1.75,-0.21875 z m -32.84375,17.78125 c -0.23958,9.4e-4 -0.54302,0.13679 -0.90625,0.40625 -2.90582,2.15572 -10.59693,3.11488 -17.03125,4.3125 -6.43432,1.19762 -11.62268,11.00107 -11,15.3125 4.98141,-0.47905 8.94679,-2.63601 11.4375,-5.03125 2.49071,-2.39524 8.09228,-0.44904 13.28125,-5 4.54035,-3.98209 5.89584,-10.00655 4.21875,-10 z"
       id="31_Ikaria"
       style="fill:none;stroke:#000000;stroke-width:1px;stroke-linecap:butt;stroke-linejoin:miter;stroke-opacity:1" />
    <path
       d="m 505.65126,673.45717 c -2.49069,0 -14.5291,-7.18573 -12.86863,-11.49717 1.66047,-4.31142 11.62329,-7.18572 10.79305,-11.01809 -0.83023,-3.83239 -2.90582,-12.69478 -5.81164,-13.89242 -2.90582,-1.19761 -11.00061,-9.58095 -7.47211,-12.69477 3.5285,-3.11381 12.86864,-4.79049 16.81225,-2.87429 3.94361,1.91619 9.96283,4.07192 8.71748,9.58096 -1.24537,5.50906 -2.49071,11.97621 -1.86803,15.09003 0.62266,3.11381 4.35873,7.66477 1.86803,10.06001 -2.49071,2.39524 -5.81165,3.83238 -4.77387,7.66478 1.0378,3.83238 -0.41511,3.59285 -2.69826,4.55095 -2.28314,0.9581 -2.28314,3.83238 -2.69827,5.03001 z"
       id="32_Chios"
       style="fill:none;stroke:#000000;stroke-width:1px;stroke-linecap:butt;stroke-linejoin:miter;stroke-opacity:1" />
    <path
       d="m 504.40592,563.51558 c -5.39653,-0.71857 -16.6047,-9.10191 -14.11399,-13.65287 2.4907,-4.55096 8.09479,-8.38335 17.64249,-10.06002 9.5477,-1.67667 8.09479,-4.79048 8.09479,-7.42524 0,-2.63477 10.37794,-2.63477 12.66109,-1.19762 2.28315,1.43714 7.057,4.07192 6.43431,7.18572 -0.62266,3.11381 -3.32093,4.07191 -0.62266,6.46715 2.69826,2.39524 13.69888,15.09003 14.94422,20.12002 1.24535,5.03002 2.49071,6.46717 0.62269,7.90431 -1.86803,1.43715 -3.5285,-1.19762 -5.60409,2.39523 -2.0756,3.59288 -5.60409,6.70668 -13.69888,2.39524 -8.0948,-4.31142 -9.96283,-5.98809 -12.45353,-5.02999 -2.4907,0.95809 -4.77385,1.67667 -5.60409,-3.11382 -0.83024,-4.79049 2.49071,-7.90429 5.60409,-9.10192 3.11338,-1.19762 10.17037,-3.83239 8.5099,-6.22763 -1.66046,-2.39524 -10.37793,-7.42525 -11.0006,-3.11381 -0.62268,4.31144 -0.20757,5.26953 -2.90583,8.62288 -2.69827,3.35332 1.86803,4.55095 -8.50991,3.83237 z"
       id="33_Lesbos"
       style="fill:none;stroke:#000000;stroke-width:1px;stroke-linecap:butt;stroke-linejoin:miter;stroke-opacity:1" />
    <path
       d="m 441.30806,483.03547 c -6.43433,-1.19762 -6.01921,-6.9462 -8.0948,-6.9462 -2.07558,0 -1.45292,6.46716 -4.15117,2.39524 -2.69826,-4.07191 -2.28315,-17.72479 -1.0378,-18.92241 1.24536,-1.19761 12.66108,-0.95809 14.73667,0.23953 2.0756,1.19761 1.86803,6.70668 3.32094,5.74858 1.45291,-0.95809 5.18898,-7.66477 8.50991,-9.34144 3.32095,-1.67668 7.057,1.43714 2.69827,6.9462 -4.35874,5.50905 -7.67968,13.41335 -6.84944,15.56907 0.83024,2.15571 3.5285,10.77859 -1.24536,5.03 -4.77385,-5.74858 -3.11338,-11.25763 -4.35872,-11.97621 -1.24536,-0.71856 -3.73608,-1.91619 -4.35874,1.67667 -0.62268,3.59287 3.32093,8.62288 0.83024,9.58097 z"
       id="34_Limnos"
       style="fill:none;stroke:#000000;stroke-width:1px;stroke-linecap:butt;stroke-linejoin:miter;stroke-opacity:1" />
  </g>
</svg>
