<?xml version="1.0" encoding="UTF-8" standalone="no"?>
<!-- Created with Inkscape (http://www.inkscape.org/) -->

<svg
   xmlns:dc="http://purl.org/dc/elements/1.1/"
   xmlns:cc="http://creativecommons.org/ns#"
   xmlns:rdf="http://www.w3.org/1999/02/22-rdf-syntax-ns#"
   xmlns:svg="http://www.w3.org/2000/svg"
   xmlns="http://www.w3.org/2000/svg"
   xmlns:xlink="http://www.w3.org/1999/xlink"
   version="1.1"
   width="700"
   height="800"
   id="svg2">
  <title
     id="title3854">regions</title>
  <defs
     id="defs4">
    <marker
       refX="0"
       refY="0"
       orient="auto"
       id="Arrow2Lend"
       style="overflow:visible">
      <path
         d="M 8.7185878,4.0337352 -2.2072895,0.01601326 8.7185884,-4.0017078 c -1.7454984,2.3720609 -1.7354408,5.6174519 -6e-7,8.035443 z"
         transform="matrix(-1.1,0,0,-1.1,-1.1,0)"
         id="path4370"
         style="font-size:12px;fill-rule:evenodd;stroke-width:0.625;stroke-linejoin:round" />
    </marker>
    <marker
       refX="0"
       refY="0"
       orient="auto"
       id="Arrow2Lstart"
       style="overflow:visible">
      <path
         d="M 8.7185878,4.0337352 -2.2072895,0.01601326 8.7185884,-4.0017078 c -1.7454984,2.3720609 -1.7354408,5.6174519 -6e-7,8.035443 z"
         transform="matrix(1.1,0,0,1.1,1.1,0)"
         id="path4367"
         style="font-size:12px;fill-rule:evenodd;stroke-width:0.625;stroke-linejoin:round" />
    </marker>
    <marker
       refX="0"
       refY="0"
       orient="auto"
       id="Arrow1Send"
       style="overflow:visible">
      <path
         d="M 0,0 5,-5 -12.5,0 5,5 0,0 z"
         transform="matrix(-0.2,0,0,-0.2,-1.2,0)"
         id="path4364"
         style="fill-rule:evenodd;stroke:#000000;stroke-width:1pt;marker-start:none" />
    </marker>
    <marker
       refX="0"
       refY="0"
       orient="auto"
       id="Arrow1Sstart"
       style="overflow:visible">
      <path
         d="M 0,0 5,-5 -12.5,0 5,5 0,0 z"
         transform="matrix(0.2,0,0,0.2,1.2,0)"
         id="path4361"
         style="fill-rule:evenodd;stroke:#000000;stroke-width:1pt;marker-start:none" />
    </marker>
  </defs>
  <metadata
     id="metadata7">
    <rdf:RDF>
      <cc:Work
         rdf:about="">
        <dc:format>image/svg+xml</dc:format>
        <dc:type
           rdf:resource="http://purl.org/dc/dcmitype/StillImage" />
        <dc:title>regions</dc:title>
      </cc:Work>
    </rdf:RDF>
  </metadata>
  <g
     transform="translate(0,-252.36218)"
     id="connections">
    <path
       d="m 380.07822,346.26718 17.22737,30.18004"
       id="path3942"
       style="fill:none;stroke:#000000;stroke-width:0.89187753;stroke-linecap:butt;stroke-linejoin:miter;stroke-miterlimit:4;stroke-opacity:1;stroke-dasharray:3.56750988, 1.78375494;stroke-dashoffset:0;marker-start:url(#Arrow2Lstart);marker-end:url(#Arrow2Lend)" />
    <path
       d="m 91.03271,716.27985 48.43287,-12.19459"
       id="path4124"
       style="fill:none;stroke:#000000;stroke-width:0.89187753;stroke-linecap:butt;stroke-linejoin:miter;stroke-miterlimit:4;stroke-opacity:1;stroke-dasharray:3.56750988, 1.78375494;stroke-dashoffset:0;marker-start:url(#Arrow2Lstart);marker-end:url(#Arrow2Lend)" />
    <path
       d="m 372.19098,435.13064 60.19205,29.701"
       id="path4306"
       style="fill:none;stroke:#000000;stroke-width:0.89187753;stroke-linecap:butt;stroke-linejoin:miter;stroke-miterlimit:4;stroke-opacity:1;stroke-dasharray:3.56750988, 1.78375494;stroke-dashoffset:0;marker-start:url(#Arrow2Lstart);marker-end:url(#Arrow2Lend)" />
    <path
       d="m 467.2529,408.78298 -29.05823,56.5277"
       id="path4308"
       style="fill:none;stroke:#000000;stroke-width:0.89187753;stroke-linecap:butt;stroke-linejoin:miter;stroke-miterlimit:4;stroke-opacity:1;stroke-dasharray:3.56750988, 1.78375494;stroke-dashoffset:0;marker-start:url(#Arrow2Lstart);marker-end:url(#Arrow2Lend)" />
    <path
       d="m 447.74238,471.05927 51.47458,77.12677"
       id="path4310"
       style="fill:none;stroke:#000000;stroke-width:0.89187753;stroke-linecap:butt;stroke-linejoin:miter;stroke-miterlimit:4;stroke-opacity:1;stroke-dasharray:3.56750988, 1.78375494;stroke-dashoffset:0;marker-start:url(#Arrow2Lstart);marker-end:url(#Arrow2Lend)" />
    <path
       d="m 333.16993,399.20202 59.36182,-17.24575"
       id="path4312"
       style="fill:none;stroke:#000000;stroke-width:0.89187753;stroke-linecap:butt;stroke-linejoin:miter;stroke-miterlimit:4;stroke-opacity:1;stroke-dasharray:3.56750988, 1.78375494;stroke-dashoffset:0;marker-start:url(#Arrow2Lstart);marker-end:url(#Arrow2Lend)" />
    <path
       d="m 472.64943,401.59726 9.96281,-56.04865"
       id="path4314"
       style="fill:none;stroke:#000000;stroke-width:0.89187753;stroke-linecap:butt;stroke-linejoin:miter;stroke-miterlimit:4;stroke-opacity:1;stroke-dasharray:3.56750988, 1.78375494;stroke-dashoffset:0;marker-start:url(#Arrow2Lstart);marker-end:url(#Arrow2Lend)" />
    <path
       d="m 352.68046,624.35472 37.7757,-34.49149"
       id="path4316"
       style="fill:none;stroke:#000000;stroke-width:0.89187753;stroke-linecap:butt;stroke-linejoin:miter;stroke-miterlimit:4;stroke-opacity:1;stroke-dasharray:3.56750988, 1.78375494;stroke-dashoffset:0;marker-start:url(#Arrow2Lstart);marker-end:url(#Arrow2Lend)" />
    <path
       d="M 524.12401,570.22226 504.61348,629.1452"
       id="path4318"
       style="fill:none;stroke:#000000;stroke-width:0.89187753;stroke-linecap:butt;stroke-linejoin:miter;stroke-miterlimit:4;stroke-opacity:1;stroke-dasharray:3.56750988, 1.78375494;stroke-dashoffset:0;marker-start:url(#Arrow2Lstart);marker-end:url(#Arrow2Lend)" />
    <path
       d="m 501.70765,663.15764 53.13505,57.00673"
       id="path4320"
       style="fill:none;stroke:#000000;stroke-width:0.89187753;stroke-linecap:butt;stroke-linejoin:miter;stroke-miterlimit:4;stroke-opacity:1;stroke-dasharray:3.56750988, 1.78375494;stroke-dashoffset:0;marker-start:url(#Arrow2Lstart);marker-end:url(#Arrow2Lend)" />
    <path
       d="M 525.36936,1029.1506 588.0521,993.22188"
       id="path4322"
       style="fill:none;stroke:#000000;stroke-width:0.89187753;stroke-linecap:butt;stroke-linejoin:miter;stroke-miterlimit:4;stroke-opacity:1;stroke-dasharray:3.56750988, 1.78375494;stroke-dashoffset:0;marker-start:url(#Arrow2Lstart);marker-end:url(#Arrow2Lend)" />
    <path
       d="M 608.39287,955.3771 656.5465,908.43036"
       id="path4324"
       style="fill:none;stroke:#000000;stroke-width:0.89187753;stroke-linecap:butt;stroke-linejoin:miter;stroke-miterlimit:4;stroke-opacity:1;stroke-dasharray:3.56750988, 1.78375494;stroke-dashoffset:0;marker-start:url(#Arrow2Lstart);marker-end:url(#Arrow2Lend)" />
    <path
       d="M 655.30115,897.89131 600.50563,855.256"
       id="path4326"
       style="fill:none;stroke:#000000;stroke-width:0.89187753;stroke-linecap:butt;stroke-linejoin:miter;stroke-miterlimit:4;stroke-opacity:1;stroke-dasharray:3.56750988, 1.78375494;stroke-dashoffset:0;marker-start:url(#Arrow2Lstart);marker-end:url(#Arrow2Lend)" />
    <path
       d="m 500.87742,827.4712 82.19327,-17.72479"
       id="path4328"
       style="fill:none;stroke:#000000;stroke-width:0.89187753;stroke-linecap:butt;stroke-linejoin:miter;stroke-miterlimit:4;stroke-opacity:1;stroke-dasharray:3.56750988, 1.78375494;stroke-dashoffset:0;marker-start:url(#Arrow2Lstart);marker-end:url(#Arrow2Lend)" />
    <path
       d="m 572.27764,728.3082 1.24535,62.27628"
       id="path4330"
       style="fill:none;stroke:#000000;stroke-width:0.89187753;stroke-linecap:butt;stroke-linejoin:miter;stroke-miterlimit:4;stroke-opacity:1;stroke-dasharray:3.56750988, 1.78375494;stroke-dashoffset:0;marker-start:url(#Arrow2Lstart);marker-end:url(#Arrow2Lend)" />
    <path
       d="m 383.39916,686.15196 24.90705,16.28763"
       id="path4332"
       style="fill:none;stroke:#000000;stroke-width:0.89187753;stroke-linecap:butt;stroke-linejoin:miter;stroke-miterlimit:4;stroke-opacity:1;stroke-dasharray:3.56750988, 1.78375494;stroke-dashoffset:0;marker-start:url(#Arrow2Lstart);marker-end:url(#Arrow2Lend)" />
    <path
       d="M 459.78078,755.61395 508.34953,743.1587"
       id="path4334"
       style="fill:none;stroke:#000000;stroke-width:0.89187753;stroke-linecap:butt;stroke-linejoin:miter;stroke-miterlimit:4;stroke-opacity:1;stroke-dasharray:3.56750988, 1.78375494;stroke-dashoffset:0;marker-start:url(#Arrow2Lstart);marker-end:url(#Arrow2Lend)" />
    <path
       d="M 443.17609,799.20735 421.17485,761.36253"
       id="path4336"
       style="fill:none;stroke:#000000;stroke-width:0.89187753;stroke-linecap:butt;stroke-linejoin:miter;stroke-miterlimit:4;stroke-opacity:1;stroke-dasharray:3.56750988, 1.78375494;stroke-dashoffset:0;marker-start:url(#Arrow2Lstart);marker-end:url(#Arrow2Lend)" />
    <path
       d="M 371.36075,737.41012 346.45369,713.93675"
       id="path4338"
       style="fill:none;stroke:#000000;stroke-width:0.89187753;stroke-linecap:butt;stroke-linejoin:miter;stroke-miterlimit:4;stroke-opacity:1;stroke-dasharray:3.56750988, 1.78375494;stroke-dashoffset:0;marker-start:url(#Arrow2Lstart);marker-end:url(#Arrow2Lend)" />
    <path
       d="m 262.16213,837.54816 3.5224,58.94046"
       id="path4340"
       style="fill:none;stroke:#000000;stroke-width:0.89187753;stroke-linecap:butt;stroke-linejoin:miter;stroke-miterlimit:4;stroke-opacity:1;stroke-dasharray:3.56750988, 1.78375494;stroke-dashoffset:0;marker-start:url(#Arrow2Lstart);marker-end:url(#Arrow2Lend)" />
    <path
       d="m 266.85864,906.65076 49.31345,89.42702"
       id="path4342"
       style="fill:none;stroke:#000000;stroke-width:0.89187753;stroke-linecap:butt;stroke-linejoin:miter;stroke-miterlimit:4;stroke-opacity:1;stroke-dasharray:3.56750988, 1.78375494;stroke-dashoffset:0;marker-start:url(#Arrow2Lstart);marker-end:url(#Arrow2Lend)" />
    <path
       d="m 399.17363,599.44421 97.13749,28.7429"
       id="path4344"
       style="fill:none;stroke:#000000;stroke-width:0.89187753;stroke-linecap:butt;stroke-linejoin:miter;stroke-miterlimit:4;stroke-opacity:1;stroke-dasharray:3.56750988, 1.78375494;stroke-dashoffset:0;marker-start:url(#Arrow2Lstart);marker-end:url(#Arrow2Lend)" />
  </g>
  <g
     transform="translate(0,-252.36218)"
     id="regions"
     style="display:inline">
    <g
       transform="matrix(0.83023509,0,0,0.95809661,49.644649,161.24705)"
       id="00_Evros">
      <path
         d="m 541.44176,209.13734 c -7.57614,-4.79822 -29.29442,0.75762 -38.38579,-2.27284 -9.09137,-3.03046 -14.14214,-11.86929 -23.73859,-11.61675 -9.59645,0.25254 -13.88959,3.03045 -16.66751,-1.76777 -2.77792,-4.79822 -9.59645,-19.95051 -7.32361,-22.98097 2.27284,-3.03046 9.34391,-14.89975 14.39467,-12.37437 5.05077,2.52538 15.40483,2.52538 22.4759,0 7.07107,-2.52538 28.78935,-10.85914 34.59772,-10.6066 5.80838,0.25254 21.97082,4.04061 26.26397,-1.26269 4.29315,-5.3033 9.84899,-30.30458 2.27284,-34.09265 -7.57614,-3.78807 -11.36421,-15.152288 -1.26269,-15.152288 10.10153,0 29.04189,3.030458 35.60788,13.384518 6.56599,10.35407 18.68782,34.59773 9.59645,36.36549 -9.09137,1.76777 -22.72843,2.77792 -25.00128,10.10153 -2.27284,7.32361 6.81853,29.7995 2.02031,36.11295 -4.79823,6.31346 -15.40483,27.52666 -22.4759,27.52666 -7.07106,0 0.75762,-3.03046 -12.37437,-11.36422 z"
         id="Evros"
         style="fill:none;stroke:#000000;stroke-width:1px;stroke-linecap:butt;stroke-linejoin:miter;stroke-opacity:1" />
      <path
         d="m 495,252.11218 c 2.75,-2.5 11.75,-5.25 16.25,-3 4.5,2.25 9,9 6.5,10.5 -2.5,1.5 -8.75,3 -13.5,1.75 -4.75,-1.25 -10,-6 -9.25,-9.25 z"
         id="path3149"
         style="fill:none;stroke:#000000;stroke-width:1px;stroke-linecap:butt;stroke-linejoin:miter;stroke-opacity:1" />
    </g>
    <path
       d="m 365.44532,276.93723 c -6.44345,0.0825 -10.96015,8.36834 -13.05025,12.09596 -2.30634,4.11325 -7.76015,2.17106 -17.82412,3.6228 -10.06396,1.45172 -15.08514,5.57851 -16.55281,13.56305 1.04833,2.66152 6.09138,-0.48802 9.23637,3.38328 3.14498,3.8713 -3.57486,8.21253 1.0378,13.2936 4.61265,5.08107 15.09278,9.44904 20.96343,10.65882 5.87065,1.20978 8.60605,11.6119 4.20306,21.04819 -4.40298,9.43628 -16.35855,7.26658 -17.61655,11.13787 -1.258,3.87129 8.80927,8.69082 12.58326,10.86841 3.77398,2.1776 19.48312,-4.58805 22.20879,-12.81454 2.72565,-8.22651 11.38459,-15.12338 14.68478,-14.76068 4.40298,0.48391 15.52541,13.30089 22.23473,12.57502 6.70931,-0.72586 11.74314,-8.46664 15.30746,-12.09597 2.29569,-2.33756 5.88754,-4.63587 9.39203,-6.19769 -2.59484,-6.11676 -6.14641,-16.32145 -4.59223,-18.71282 1.88698,-2.90348 7.76725,-14.27601 11.96057,-11.85646 0.92331,0.53276 2.07274,0.92943 3.34689,1.22758 -0.5855,-2.07329 -1.7393,-4.17254 -2.93178,-6.07793 -2.72566,-4.35521 -10.2565,-3.87115 -17.17548,-8.95222 -6.91898,-5.08107 -18.87586,-2.40815 -22.64986,-4.10184 -3.77397,-1.6937 -7.54363,-4.8341 -8.17261,-9.43127 -0.62901,-4.59716 -2.10918,-6.30697 -6.51217,-4.37131 -4.40298,1.93563 -10.4837,-1.92668 -18.03167,-3.86233 -0.70762,-0.18146 -1.38308,-0.24806 -2.04964,-0.23952 z"
       id="01_Drama"
       style="fill:none;stroke:#000000;stroke-width:0.89187753px;stroke-linecap:butt;stroke-linejoin:miter;stroke-opacity:1" />
    <path
       d="m 390.5616,387.99403 c -3.56432,-3.38739 -2.51599,-12.82367 1.25799,-16.45301 3.77401,-3.62933 11.95096,-7.01672 14.67664,1.45174 2.72565,8.46846 5.03197,13.06562 1.88698,15.96909 -3.14499,2.90348 -6.49964,6.77477 -9.8543,5.08108 -3.35466,-1.69369 -3.14498,-7.98455 -7.96731,-6.0489 z"
       id="02_Thasos"
       style="fill:none;stroke:#000000;stroke-width:0.89187753px;stroke-linecap:butt;stroke-linejoin:miter;stroke-opacity:1" />
    <path
       d="m 299.83081,296.69796 c -8.81689,0.24544 -11.68532,8.65183 -13.25782,10.23966 -1.67732,1.69369 -19.91156,-5.80041 -23.89521,-3.6228 -2.51599,1.6937 -1.46976,10.64255 0.20757,15.23972 1.67733,4.59715 16.97134,8.71588 21.79366,11.3774 4.82232,2.66151 4.20584,10.39331 6.51216,15.9583 2.30633,5.56498 8.38637,11.8572 15.51501,14.76067 7.12866,2.90347 3.75845,4.85598 6.69377,7.27554 2.93533,2.41956 15.93145,3.1389 20.96344,3.62281 2.06829,0.1989 3.0765,-0.46419 3.76201,-1.37727 -1.69293,-1.48701 -2.74097,-3.02231 -2.28315,-4.43119 1.258,-3.87129 13.21357,-1.70159 17.61655,-11.13787 4.40299,-9.43629 1.66759,-19.83841 -4.20306,-21.04819 -5.87065,-1.20978 -16.35078,-5.57775 -20.96343,-10.65882 -4.61266,-5.08107 2.10718,-9.4223 -1.0378,-13.2936 -3.14499,-3.8713 -8.18804,-0.72176 -9.23637,-3.38328 0.47002,-2.557 1.32074,-4.69251 2.56854,-6.49709 -4.78918,-1.6546 -11.44845,-2.23089 -18.91379,-2.93417 -0.6421,-0.0605 -1.25429,-0.10623 -1.84208,-0.0898 z"
       id="03_Serres"
       style="fill:none;stroke:#000000;stroke-width:0.89187753px;stroke-linecap:butt;stroke-linejoin:miter;stroke-opacity:1" />
    <path
       d="m 261.61405,304.27292 c -2.73844,0.23248 -4.83626,1.2343 -6.69377,2.42517 -3.77399,2.41956 -2.94441,11.62574 -1.68641,16.70681 1.25799,5.08108 -12.16037,3.60821 -15.51503,5.05996 -3.35465,1.45173 -9.6528,-2.17032 -14.68478,-0.71857 -3.774,0.96782 -2.51033,4.8268 -3.13934,10.14982 -0.62898,5.32304 -4.82995,5.09066 -4.41061,7.99413 0.41933,2.90346 10.91988,10.89834 16.3712,10.89834 5.45131,0 10.67953,6.52947 6.4862,6.28752 -4.19332,-0.24195 -2.71721,4.58166 -0.83022,7.48513 1.88698,2.90346 -3.77321,4.61402 -5.24086,7.27554 -1.46767,2.66151 5.23308,5.06146 8.58773,10.86841 3.35466,5.80693 6.71617,12.35009 9.65149,10.89834 2.93533,-1.45173 11.31049,-13.79527 14.03617,-14.52114 2.72566,-0.72587 4.41694,5.8124 3.78795,11.3774 -0.62901,5.56498 -5.04095,3.86718 -9.44393,3.38326 -4.40298,-0.48391 -1.24892,5.5843 1.68641,7.03603 2.93533,1.45174 2.71499,7.96007 8.79531,11.34746 1.14956,0.64042 2.18059,1.15959 3.13932,1.55691 -0.0762,-5.2162 3.61071,-10.2696 6.09704,-10.2696 2.93532,0 6.07175,-4.10505 8.58774,-6.76656 2.51599,-2.66152 12.59024,-5.54705 14.47723,-7.72465 1.88699,-2.17761 11.92896,-5.80846 15.07396,-5.80846 3.14499,0 9.44458,-5.56332 11.96057,-3.14375 1.02049,0.98137 1.82995,2.25612 2.64637,3.50303 -1.62404,-3.40725 -4.45857,-6.59585 -5.99325,-8.11388 -1.97079,-1.9494 1.44208,-7.05043 4.72196,-10.2696 -5.98454,-0.51246 -14.37785,-1.36376 -16.68255,-3.26352 -2.93532,-2.41956 0.43489,-4.37207 -6.69377,-7.27554 -7.12864,-2.90347 -13.20868,-9.19569 -15.51501,-14.76067 -2.30632,-5.56499 -1.68984,-13.29679 -6.51216,-15.9583 -4.82232,-2.66152 -20.11633,-6.78025 -21.79366,-11.3774 -1.46766,-4.02252 -2.44825,-11.37127 -0.98591,-14.28162 -0.0928,0.005 -0.194,-0.008 -0.28539,0 z"
       id="04_Thessaloniki"
       style="fill:none;stroke:#000000;stroke-width:0.89187753px;stroke-linecap:butt;stroke-linejoin:miter;stroke-opacity:1" />
    <path
       d="m 272.93897,422.59372 c -1.887,-6.04889 2.72565,-13.06561 5.66098,-13.06561 2.93533,0 6.08031,-4.11325 8.5963,-6.77476 2.51599,-2.66151 12.57997,-5.56499 14.46695,-7.74259 1.887,-2.17761 11.95097,-5.80694 15.09597,-5.80694 3.14498,0 9.43496,-5.56499 11.95096,-3.14544 2.51599,2.41957 3.77399,6.77477 6.91897,7.50064 3.14499,0.72587 11.04941,6.48441 2.47406,7.37966 -4.63642,0.48402 -5.61904,5.44401 -2.47406,8.10553 3.14499,2.6615 5.47229,6.41182 12.18161,7.13769 6.7093,0.72587 15.26367,3.00025 17.77967,8.08133 2.51599,5.08107 17.27648,14.73511 14.76049,17.63858 -2.516,2.90348 -5.30455,6.33925 -10.54621,-0.67748 -5.24165,-7.01671 -6.91897,-12.09779 -12.16062,-14.2754 -5.24165,-2.1776 -17.52808,-9.77502 -22.76974,-8.63782 -2.41182,0.52326 -9.93816,-1.0404 -9.30916,4.28261 0.62899,5.32304 2.30632,11.37194 9.64463,15.24323 7.33832,3.8713 8.59632,7.01672 11.53163,12.33975 2.93533,5.32303 5.66099,18.63061 0.62899,17.66279 -5.03197,-0.96784 -14.59275,-11.20255 -15.85074,-15.3158 -1.258,-4.11326 -6.16418,-16.42881 -10.56716,-18.60642 -4.40299,-2.1776 -12.9364,-6.16987 -16.77329,-5.51659 -3.1113,0.52973 -6.60448,1.42754 -5.45131,10.16214 1.18664,8.98816 6.85608,17.15467 12.51705,19.57424 5.66098,2.41956 22.70683,11.88003 14.94919,11.63807 -7.75764,-0.24196 -21.30206,-4.74232 -25.11799,-8.71041 -3.50023,-3.63981 -5.49325,-14.54154 -5.49325,-17.44501 0,-2.90348 1.25801,-11.5897 -3.35465,-12.31556 -4.61265,-0.72588 -14.67663,-4.11326 -19.28927,-8.71043 z"
       id="05_Chalkidiki"
       style="fill:none;stroke:#000000;stroke-width:0.89187753px;stroke-linecap:butt;stroke-linejoin:miter;stroke-opacity:1" />
    <path
       d="m 213.64203,322.17734 c -4.32975,0.054 -14.2513,2.17912 -19.9516,5.80847 -6.08031,3.87129 -12.17089,13.54998 -14.47722,20.80866 -1.04833,3.62934 3.15408,1.7025 1.68642,5.08988 -1.46766,3.38739 -5.0445,3.63087 -6.51216,5.80847 -1.46767,2.1776 1.26985,5.06875 3.99551,10.14983 2.72566,5.08107 8.17262,6.78587 8.17262,13.80258 0,7.01673 1.26774,15.46467 4.20307,16.9164 2.93532,1.45173 14.94103,12.3864 16.34525,18.17388 1.46767,6.0489 -3.76767,9.18353 -0.62267,15.9583 3.14498,6.77477 4.61673,11.36616 7.34239,6.52704 2.72566,-4.83912 7.94755,0.24834 7.10888,5.32941 -0.83866,5.08108 2.72487,7.00608 5.24086,7.00608 2.51599,0 7.56457,10.88861 13.85455,11.85645 6.28998,0.96782 1.89333,-5.32287 -0.62266,-8.95222 -2.516,-3.62933 -1.68577,-18.61479 0.83022,-25.38956 2.51599,-6.77477 2.91846,-12.36133 1.66047,-15.74872 -1.258,-3.38737 -1.24259,-10.37719 1.06374,-11.58697 1.26165,-0.6618 2.77595,-2.98899 4.43658,-5.11983 -2.09371,-1.96621 -4.32625,-6.08157 -6.53812,-9.91031 -3.35465,-5.80695 -10.0554,-8.2069 -8.58773,-10.86841 1.46765,-2.66152 7.12784,-4.37208 5.24086,-7.27554 -1.88699,-2.90347 -3.3631,-7.72708 0.83022,-7.48513 4.19333,0.24195 -1.03489,-6.28752 -6.4862,-6.28752 -5.45132,0 -15.95187,-7.99488 -16.3712,-10.89834 -0.41934,-2.90347 3.78163,-2.67109 4.41061,-7.99413 0.62901,-5.32302 -0.63466,-9.182 3.13934,-10.14982 0.28833,-0.0832 0.58628,-0.12788 0.88212,-0.17965 -4.5065,-3.10462 -8.22875,-5.30972 -9.46986,-5.3893 -0.23588,-0.0152 -0.51564,-0.004 -0.80429,0 z"
       id="06_Imathia"
       style="fill:none;stroke:#000000;stroke-width:0.89187753px;stroke-linecap:butt;stroke-linejoin:miter;stroke-opacity:1" />
    <path
       d="m 180.19912,346.09982 c -5.76522,0.76763 -13.4038,6.71421 -16.39714,9.37138 -3.85467,3.42178 -6.22306,-5.462 -9.78122,-5.11983 -3.55815,0.34217 -14.8182,4.43976 -19.56241,3.41322 -4.74421,-1.02653 -16.6047,3.43034 -18.68029,10.95823 -1.18604,5.13266 4.43656,8.19087 6.51216,13.32354 2.07559,5.13266 0.60415,6.84782 -2.36098,15.06008 -2.96513,8.21226 -13.05027,7.54501 -17.20144,9.94025 -4.15117,2.39523 -4.15117,9.22167 -2.07559,11.61692 2.07559,2.39524 9.18448,7.17716 13.33566,15.38942 4.15117,8.21226 3.85465,8.92228 8.30235,6.52704 4.44769,-2.39525 1.18233,-15.06008 3.55445,-19.85057 2.37209,-4.79048 16.61209,-4.46114 24.02493,-6.85637 7.41281,-2.39525 8.00212,-18.13112 9.7812,-20.86855 1.77908,-2.73741 16.6084,-1.02652 19.27702,-2.39523 1.56661,-0.80352 3.33359,-5.70739 5.18897,-9.85045 -1.80149,-2.26786 -4.20064,-4.05815 -5.73381,-6.91625 -2.72566,-5.08108 -5.46318,-7.97223 -3.99551,-10.14983 1.46766,-2.1776 5.0445,-2.42108 6.51216,-5.80847 1.46766,-3.38738 -2.73475,-1.46054 -1.68642,-5.08988 0.27609,-0.86894 0.60787,-1.77047 0.98591,-2.69465 z"
       id="07_Florina"
       style="fill:none;stroke:#000000;stroke-width:0.89187753px;stroke-linecap:butt;stroke-linejoin:miter;stroke-opacity:1" />
    <path
       d="m 184.11679,376.7589 c -1.85538,4.14306 -3.62236,9.04693 -5.18897,9.85045 -2.66862,1.36871 -17.49794,-0.34218 -19.27702,2.39523 -1.77908,2.73743 -2.36839,18.4733 -9.7812,20.86855 -7.41284,2.39523 -21.65284,2.06589 -24.02493,6.85637 -2.37212,4.79049 0.89324,17.45532 -3.55445,19.85057 -4.21478,2.26981 -4.29312,1.54004 -7.8094,-5.50906 -0.11979,3.56716 -0.0404,7.16328 -0.49295,9.25162 -0.88954,4.10614 2.66491,5.4834 7.70562,8.56299 5.04071,3.0796 -2.37951,6.15493 -3.26906,11.28757 -0.88953,5.13267 8.89539,9.25591 16.60471,9.94026 7.70933,0.68436 4.4514,7.1686 10.97467,4.4312 6.52328,-2.73742 12.45353,-3.76823 18.6803,-3.08388 6.22675,0.68437 18.09467,4.79904 21.94933,6.16775 3.85467,1.36872 -0.60044,-8.2208 -3.26904,-13.35348 -2.66862,-5.13265 5.05553,-5.11126 8.61368,-8.53304 2.07547,-1.99592 8.76873,-11.5446 14.71073,-20.59909 -0.0757,-0.16438 -0.12996,-0.28193 -0.20756,-0.4491 -3.145,-6.77477 2.09034,-9.9094 0.62267,-15.9583 -1.40422,-5.78748 -13.40993,-16.72215 -16.34525,-18.17388 -2.93533,-1.45173 -4.20307,-9.89967 -4.20307,-16.9164 0,-3.06981 -1.03766,-5.12243 -2.43881,-6.88633 z"
       id="08_Kozani"
       style="fill:none;stroke:#000000;stroke-width:0.89187753px;stroke-linecap:butt;stroke-linejoin:miter;stroke-opacity:1" />
    <path
       d="m 100.62626,414.60373 c -2.35625,1.68585 -4.32541,3.67848 -5.05924,5.08988 -1.887,3.62934 -1.47109,16.68887 -4.82575,24.43146 -3.35465,7.7426 -11.95978,-0.22903 -17.201418,1.70662 -5.24165,1.93564 -2.51521,7.48513 -5.240859,7.48513 -2.725664,0 -6.693117,0.97254 -4.177124,8.47317 2.935325,2.90347 5.013683,7.99806 4.384677,13.56305 -0.628993,5.56499 2.536936,4.34214 5.681926,7.2456 3.144988,2.90348 2.497028,7.2447 1.868018,13.29359 -0.628978,6.0489 1.0644,7.52556 3.5804,9.4612 2.51599,1.93565 6.47989,11.83366 7.10888,20.06016 0.62901,8.22651 3.41815,6.09337 6.09704,3.65274 3.98366,-3.62934 15.00229,4.47264 18.86191,-3.89227 3.89747,-8.4469 8.61683,-15.10504 13.41348,-12.81455 6.08032,2.90349 5.66019,-3.85897 5.24087,-10.14982 -0.41934,-6.29085 -5.64544,-4.11797 -6.69377,-8.47317 -1.04834,-4.35521 6.08294,-3.87935 10.0666,-2.18567 3.98365,1.6937 -1.70117,-7.26248 -0.2335,-14.52115 0.44801,-2.21577 1.25716,-4.51409 2.15342,-6.82643 -0.20847,-0.0298 -0.39575,-0.0697 -0.62268,-0.0898 -7.70932,-0.68435 -17.49424,-4.8076 -16.60471,-9.94025 0.88955,-5.13266 8.30977,-8.20798 3.26906,-11.28757 -5.04071,-3.0796 -8.59516,-4.45687 -7.70562,-8.56299 0.45241,-2.08835 0.37316,-5.68446 0.49295,-9.25164 -0.19431,-0.38957 -0.27559,-0.58797 -0.49295,-1.01802 -4.15118,-8.21225 -11.26007,-12.99418 -13.33566,-15.38942 -0.0128,-0.0148 -0.0133,-0.0447 -0.0259,-0.0599 z m 13.85456,16.46728 c 0.79181,1.58735 1.39028,2.81809 1.91992,3.80245 -0.49445,-0.93599 -1.18658,-2.33232 -1.91992,-3.80245 z m 1.91992,3.80245 c 0.20537,0.38169 0.41274,0.74898 0.59674,1.04792 -0.19193,-0.319 -0.37812,-0.63407 -0.59674,-1.04792 z m 8.38018,-5.23959 c -0.0319,0.69738 -0.0799,1.36581 -0.15566,2.00601 0.0766,-0.6382 0.12392,-1.31043 0.15566,-2.00601 z m -0.72645,4.64077 c -0.12552,0.3486 -0.27179,0.66722 -0.44106,0.95811 0.1705,-0.29246 0.31451,-0.60757 0.44106,-0.95811 z"
       id="09_Ioannina"
       style="fill:none;stroke:#000000;stroke-width:0.89187753px;stroke-linecap:butt;stroke-linejoin:miter;stroke-opacity:1" />
    <g
       transform="matrix(0.83023509,0,0,0.95809661,49.644649,161.24705)"
       id="10_Korfu-Thesprotia">
      <path
         d="m 13.21875,325.40625 c -2.612305,-0.0244 -0.53125,7.71875 0.71875,10.53125 1.428572,3.21429 -4.6428571,8.57143 -10,10 -5,1.07143 -4.30357146,4.99554 -5.375,9.28125 -1.0714286,4.28572 0.022321,6.78572 6.09375,10 6.071429,3.21429 0.3526786,3.92858 -0.71875,7.5 -1.0714285,3.57143 6.428572,13.91518 12.5,20.34375 6.071429,6.42857 11.0625,-1.04911 16.0625,-1.40625 5,-0.35715 12.133928,-0.71429 16.0625,-2.5 1.215324,-0.55242 2.01944,-2.34174 2.5625,-4.59375 -2.930702,2.17837 -5.749648,3.3269 -6.4375,-4.46875 -0.757614,-8.58629 -5.532043,-18.9172 -8.5625,-20.9375 -3.030458,-2.02031 -5.070114,-3.56155 -4.3125,-9.875 0.757615,-6.31345 1.538072,-10.84454 -2.25,-13.875 -3.59601,-2.8768 -7.196662,-1.89031 -6.90625,-6.75 -3.391164,-0.86176 -6.399858,-1.73405 -8,-2.71875 -0.580357,-0.35714 -1.064314,-0.52776 -1.4375,-0.53125 z"
         id="10_Thesprotia"
         style="fill:none;stroke:#000000;stroke-width:1px;stroke-linecap:butt;stroke-linejoin:miter;stroke-opacity:1" />
      <path
         d="m -47.678572,339.32647 c -3.214285,-5.35715 0.178572,-14.64286 4.642858,-12.85715 4.464285,1.78572 14.821428,-1.96428 16.964285,0.35715 2.142858,2.32143 9.285715,1.25 6.428572,4.46428 -2.857143,3.21429 -13.392857,4.46429 -11.785714,9.82143 1.607142,5.35714 8.392857,7.85714 7.678571,12.67857 -0.714286,4.82143 1.071429,14.10715 6.428571,16.42857 5.357143,2.32143 6.785715,-1.42857 10.5357147,5.71429 3.75,7.14286 2.1428571,8.57143 -2.3214286,5.53571 C -13.571429,378.43361 -27.321429,375.3979 -29.285714,369.68361 -31.25,363.96932 -33.035714,348.79075 -40,347.36218 c -6.964286,-1.42857 -7.678572,-8.03571 -7.678572,-8.03571 z"
         id="10_Korfu"
         style="fill:none;stroke:#000000;stroke-width:1px;stroke-linecap:butt;stroke-linejoin:miter;stroke-opacity:1" />
    </g>
    <path
       d="m 124.78092,429.63387 c -0.0318,0.69558 -0.0792,1.36781 -0.15566,2.00601 0.0758,-0.6402 0.12385,-1.30863 0.15566,-2.00601 z m -1.45291,82.27654 c -4.16998,-0.14456 -8.21301,5.87259 -11.62329,13.26365 -3.85962,8.36491 -14.87825,0.26293 -18.86191,3.89227 -0.24668,0.22474 -0.50563,0.41707 -0.7524,0.62874 -0.002,0.01 0.002,0.0202 0,0.0299 -0.45078,2.1439 -1.12303,3.84443 -2.12748,4.37132 -3.26163,1.71087 -9.18446,2.05305 -13.33565,2.39523 -1.799278,0.14831 -3.604198,1.56357 -5.474358,2.63477 1.13292,2.84244 2.1637,5.48247 2.38693,6.85638 0.629,3.87128 10.283898,12.33625 14.477218,15.23972 4.19331,2.90346 0.83656,8.72394 0.20755,13.56305 -0.62898,4.83913 9.01196,0.96297 10.68929,0.47906 1.67732,-0.48392 -3.97865,-4.12207 -5.65598,-5.08989 -1.67733,-0.96782 2.72763,-3.87281 7.54996,-5.80847 4.8223,-1.93564 9.85824,4.8601 15.0999,3.89228 7.75763,-1.93565 4.38534,-8.23927 6.90133,-10.65883 2.51598,-2.41956 6.29326,0.47661 12.58325,0.71857 6.28998,0.24196 6.08439,-6.5132 7.34239,-10.86841 1.258,-4.3552 3.55655,-6.53585 3.34688,-11.61692 -0.20966,-5.08107 -8.80227,-5.80922 -10.68927,-8.7127 -1.88701,-2.90347 -4.82574,-7.99 -4.82574,-11.37738 0,-0.93922 -0.46883,-2.19797 -1.14158,-3.53299 -0.80887,0.97246 -2.13062,1.18889 -4.30685,0.1497 -0.59958,-0.28625 -1.19448,-0.42839 -1.79019,-0.44906 z m -37.72381,6.70668 c 0.15122,0.61315 0.28728,1.23721 0.41512,1.85631 -0.1269,-0.61689 -0.26483,-1.24534 -0.41512,-1.85631 z m 1.29725,8.23363 c 0.0541,0.41881 0.11337,0.81779 0.18161,1.16769 -0.0708,-0.3621 -0.12598,-0.73201 -0.18161,-1.16769 z m 0.18161,1.16769 c 0.0721,0.36957 0.14682,0.69021 0.2335,0.98804 -0.0849,-0.29344 -0.16266,-0.62594 -0.2335,-0.98804 z"
       id="11_Arta"
       style="fill:none;stroke:#000000;stroke-width:0.89187753px;stroke-linecap:butt;stroke-linejoin:miter;stroke-opacity:1" />
    <path
       d="m 185.49187,468.61642 c 2.21833,4.82561 4.05202,10.04554 1.14157,9.0121 -3.85466,-1.36871 -15.72258,-5.48338 -21.94933,-6.16775 -6.22677,-0.68435 -12.15702,0.34646 -18.6803,3.08388 -6.33125,2.65682 -3.47883,-3.35839 -10.35199,-4.34138 -0.89626,2.31234 -1.70541,4.61066 -2.15342,6.82643 -1.46767,7.25867 4.21715,16.21485 0.2335,14.52115 -3.98366,-1.69368 -11.11494,-2.16954 -10.0666,2.18567 1.04833,4.3552 6.27443,2.18232 6.69377,8.47317 0.26924,4.03927 0.51707,8.25556 -0.93402,10.00014 0.67275,1.335 1.14158,2.59376 1.14158,3.53297 0,3.38738 2.93873,8.47393 4.82574,11.3774 1.887,2.90347 10.47961,3.63161 10.68927,8.71268 0.20967,5.08108 -2.08888,7.26174 -3.34688,11.61694 -0.64983,2.24968 -0.92817,5.13012 -1.89397,7.36535 4.35771,-0.53954 9.82325,-3.91212 13.20592,-6.88631 4.40299,-3.8713 11.131,-2.18079 13.64699,-2.66471 2.516,-0.48392 0.4221,9.92642 2.3091,14.28163 1.88698,4.35521 6.07662,-2.41302 10.68928,-3.6228 4.61264,-1.20977 1.24034,13.05239 6.90132,16.19782 5.66098,3.14542 14.48631,-10.87722 16.16364,-15.9583 1.67733,-5.08107 6.70075,-9.4571 8.58774,-12.84449 1.88699,-3.38739 -3.35532,-5.30022 -2.51665,-8.2037 0.83866,-2.90347 1.04412,-6.29388 0.41511,-11.61691 -0.62898,-5.32303 -0.63109,-12.09507 0.20758,-18.14397 0.83865,-6.04889 -8.79386,-5.82456 -11.51952,-10.17977 -2.72566,-4.3552 -7.33673,-2.64114 -10.48172,-7.96417 -3.145,-5.32303 6.70431,-5.58505 5.65597,-9.94026 -0.60855,-2.52819 -5.01064,-6.08709 -8.61368,-8.65281 z m -60.37367,43.74309 c 0.36189,0.17283 0.69565,0.28358 1.01185,0.38923 -0.31621,-0.10634 -0.65126,-0.21704 -1.01185,-0.38923 z m -4.09927,0.0898 c -0.22603,0.10844 -0.44999,0.21962 -0.67458,0.35929 0.22506,-0.14074 0.44798,-0.24951 0.67458,-0.35929 z m -0.72647,0.41921 c -0.32161,0.2042 -0.64173,0.42464 -0.95996,0.68863 0.3163,-0.2619 0.63984,-0.48442 0.95996,-0.68863 z"
       id="12_Trikala"
       style="fill:none;stroke:#000000;stroke-width:0.89187753px;stroke-linecap:butt;stroke-linejoin:miter;stroke-opacity:1" />
    <path
       d="m 206.68881,435.14291 c -5.942,9.05449 -12.63526,18.60317 -14.71073,20.59909 -3.55815,3.42178 -11.2823,3.40039 -8.61368,8.53304 0.65368,1.25729 1.40777,2.77582 2.12747,4.34138 0.002,0.004 0.024,-0.004 0.0259,0 3.59968,2.56474 7.98019,6.12885 8.58772,8.65281 1.04835,4.35521 -8.80096,4.61723 -5.65596,9.94026 3.14499,5.32303 7.75606,3.60897 10.48172,7.96417 2.72566,4.35521 12.35817,4.13088 11.51952,10.17977 -0.83867,6.0489 -0.83656,12.82094 -0.20758,18.14397 0.62901,5.32303 0.42355,8.71344 -0.41511,11.61691 -0.83867,2.90348 4.40364,4.81631 2.51665,8.2037 -0.23587,0.42343 -0.50901,0.86363 -0.83024,1.31739 1.80755,1.08086 3.54951,1.66468 5.03331,1.58684 4.61265,-0.24195 6.70983,2.4413 10.27415,6.7965 3.56432,4.35522 2.72698,7.98683 5.03331,8.71269 2.30632,0.72588 3.14144,-6.53099 2.93177,-12.09597 -0.20967,-5.56499 2.29434,-3.16153 3.762,-4.37131 1.46766,-1.20978 3.97589,-7.49804 3.34688,-9.19174 -0.62899,-1.69369 -0.82049,-7.74487 3.37284,-8.71269 4.19331,-0.96783 1.47042,0.95414 2.30908,-4.61084 0.83866,-5.56498 3.77597,-4.3324 7.54995,-8.2037 3.774,-3.87129 6.28142,-6.05361 8.58775,-8.47316 2.30633,-2.41956 -2.09943,-10.39332 -2.3091,-15.9583 -0.20966,-5.565 -5.44696,-10.66688 -8.17261,-12.84449 -2.72567,-2.17759 -4.81733,-12.09672 -5.65599,-15.00019 -0.48795,-1.68931 -4.16165,-3.29131 -7.16077,-4.34138 2.44107,3.62223 5.11456,8.33197 -0.38918,7.48513 -6.28998,-0.96784 -11.33855,-11.85645 -13.85455,-11.85645 -2.516,0 -6.07952,-1.925 -5.24086,-7.00608 0.83867,-5.08107 -4.38322,-10.16853 -7.10888,-5.32941 -2.6584,4.7197 -4.14625,0.42028 -7.13483,-6.07794 z m -20.08131,36.0484 c 0.2708,0.6624 0.51238,1.27222 0.72645,1.88625 -0.21262,-0.60925 -0.45802,-1.22934 -0.72645,-1.88625 z m 1.5048,5.03001 c 0.017,0.22298 0.0188,0.44916 0,0.62875 0.0208,-0.18406 0.0176,-0.39809 0,-0.62875 z"
       id="13_Larisa"
       style="fill:none;stroke:#000000;stroke-width:0.89187753px;stroke-linecap:butt;stroke-linejoin:miter;stroke-opacity:1" />
    <g
       transform="matrix(0.83023509,0,0,0.95809661,49.644649,161.24705)"
       id="14_Magnisia-Sporaden">
      <g
         id="14_Sporaden">
        <path
           d="m 304.64286,412.18361 c 1.25,-3.03571 6.25,-5 7.5,-3.92857 1.25,1.07143 0.71428,3.92857 -1.60715,6.07143 -2.32142,2.14285 -6.07142,3.39285 -7.5,0.71428 -1.42857,-2.67857 0,-2.67857 1.60715,-2.85714 z"
           id="path3906"
           style="fill:none;stroke:#000000;stroke-width:1px;stroke-linecap:butt;stroke-linejoin:miter;stroke-opacity:1" />
        <path
           d="m 321.25,407.8979 c 2.67857,-0.71429 8.57143,5.35714 10.35714,5.17857 1.78572,-0.17857 6.78572,3.03571 7.85715,3.03571 1.07143,0 2.14285,3.92857 0,5.53572 -2.14286,1.60714 -6.25,5.35714 -9.10715,2.32142 -2.85714,-3.03571 -3.75,-6.78571 -5.35714,-8.92857 -1.60714,-2.14285 -5,-5 -3.75,-7.14285 z"
           id="path3908"
           style="fill:none;stroke:#000000;stroke-width:1px;stroke-linecap:butt;stroke-linejoin:miter;stroke-opacity:1" />
        <path
           d="m 348.03572,409.1479 c 1.07142,-2.67858 3.92857,-7.5 6.25,-8.03572 2.32142,-0.53571 3.75,1.07143 3.03571,3.75 -0.71429,2.67857 -5.17857,4.10714 -6.25,7.14286 -1.07143,3.03571 -3.03571,6.07143 -5.71429,4.28571 -2.67857,-1.78571 1.60715,-4.28571 2.67858,-7.14285 z"
           id="path3910"
           style="fill:none;stroke:#000000;stroke-width:1px;stroke-linecap:butt;stroke-linejoin:miter;stroke-opacity:1" />
        <path
           d="m 365,389.86218 c 1.42857,-2.67857 6.42857,-3.57143 6.60714,-1.96428 0.17858,1.60714 0.53572,9.10714 -2.14285,9.64285 -2.67857,0.53572 -8.21429,-1.96428 -7.5,-3.92857 0.71428,-1.96428 2.5,-1.07143 3.03571,-3.75 z"
           id="path3912"
           style="fill:none;stroke:#000000;stroke-width:1px;stroke-linecap:butt;stroke-linejoin:miter;stroke-opacity:1" />
      </g>
      <path
         d="m 256.8125,360.78125 c -2.51562,2.19974 -5.30464,4.40621 -9.3125,7.96875 -4.54568,4.04061 -8.0836,2.75413 -9.09375,8.5625 -1.01015,5.80838 2.26951,3.80235 -2.78125,4.8125 -5.05076,1.01015 -4.82011,7.32598 -4.0625,9.09375 0.75762,1.76777 -2.26348,8.33106 -4.03125,9.59375 -1.76777,1.26269 -4.78378,-1.24588 -4.53125,4.5625 0.25254,5.80837 -0.75333,13.38262 -3.53125,12.625 -1.6694,-0.45529 -1.99937,-2.00469 -2.90625,-4.15625 0.31616,5.98447 1.1028,12.21163 1.65625,13.6875 1.07142,2.85715 8.20536,-0.53571 16.0625,0 7.85715,0.53572 7.875,5.35268 16.625,6.78125 8.75,1.42857 12.29911,0.71428 16.40625,-1.25 4.10714,-1.96429 2.33482,-3.7366 -0.34375,-2.84375 -2.67858,0.89286 -5.90625,-1.42411 -3.40625,-4.28125 2.5,-2.85714 -3.57143,-9.45536 -5,-12.3125 -1.42857,-2.85714 -6.59821,-2.14286 -9.8125,-6.25 -3.21429,-4.10714 2.66964,-7.15179 4.8125,-7.6875 2.14286,-0.53571 6.60268,-6.95536 10.53125,-8.5625 3.92857,-1.60714 15.36161,7.48661 18.21875,9.09375 2.85714,1.60715 3.23214,12.32143 1.625,15 -1.60714,2.67858 -11.44196,2.33482 -13.40625,4.65625 -1.96428,2.32143 10.88393,1.24553 16.0625,-0.71875 5.17857,-1.96429 9.82143,-5.88839 11.25,-9.28125 1.42857,-3.39286 -6.76786,-14.30803 -7.125,-16.09375 -0.35715,-1.78571 -5.91071,-8.37053 -6.625,-10.15625 -0.71428,-1.78571 -10.15179,-12.88393 -13.1875,-15.5625 -3.03572,-2.67857 -7.33928,-3.74553 -9.125,-4.28125 -0.75312,-0.22594 -2.8435,-1.5653 -4.96875,-3 z"
         id="14_Magnisia"
         style="fill:none;stroke:#000000;stroke-width:1px;stroke-linecap:butt;stroke-linejoin:miter;stroke-opacity:1" />
    </g>
    <g
       transform="matrix(0.83023509,0,0,0.95809661,49.644649,161.24705)"
       id="15_Lefkada-Zakynthos">
      <path
         d="m 41.037447,580.36841 c -2.399112,-3.66181 -8.08122,-10.73288 -6.944799,-13.76333 1.136422,-3.03046 4.545687,-8.33376 6.439723,-8.71257 1.894036,-0.37881 3.156727,5.93465 5.934646,7.70241 2.77792,1.76777 9.848987,2.39912 13.005714,4.79823 3.156727,2.39911 3.661803,8.83883 6.187185,10.10152 2.525381,1.26269 6.060915,5.80838 4.04061,5.17704 -2.020305,-0.63135 -6.692261,-6.31346 -9.343911,-4.67196 -2.651651,1.6415 -7.576144,5.55584 -5.555839,7.57614 2.020305,2.02031 1.388959,6.06092 -1.010153,4.54569 -2.399112,-1.51523 -8.460027,-11.23795 -12.753176,-12.75317 z"
         id="15_Zakynthos"
         style="fill:none;stroke:#000000;stroke-width:1px;stroke-linecap:butt;stroke-linejoin:miter;stroke-opacity:1" />
      <path
         d="M 9.8214286,524.68361 C 10.892857,520.57647 14.107143,505.3979 16.25,505.21932 c 2.142857,-0.17857 6.607143,5.35715 8.214286,4.10715 1.607143,-1.25 5,-8.03572 4.821428,-10.71429 -0.178571,-2.67857 -0.178571,-11.60714 1.428572,-8.92857 1.607143,2.67857 7.5,13.92857 6.071428,17.14286 -1.428571,3.21428 -3.571428,9.82143 -0.178571,9.64285 3.392857,-0.17857 7.142857,-0.35714 9.821429,5.71429 2.678571,6.07143 11.071428,16.60714 7.857142,18.03571 -3.214285,1.42858 -16.25,-8.21428 -18.214285,-6.60714 -1.964286,1.60714 -10.714286,7.14286 -11.785715,1.96429 -1.071428,-5.17857 -0.535714,-16.42857 -2.142857,-17.5 -1.607143,-1.07143 -2.321428,0.89285 -3.035714,4.28571 -0.714286,3.39286 -1.071429,7.67857 -3.392857,7.67857 -2.321429,0 -6.6071431,-2.32143 -5.8928574,-5.35714 z"
         id="15_Kefalonia"
         style="fill:none;stroke:#000000;stroke-width:1px;stroke-linecap:butt;stroke-linejoin:miter;stroke-opacity:1" />
      <path
         d="m 47.5,512.18361 c -2.321428,0.17857 -4.107143,-5 -5.178571,-8.39286 -1.071429,-3.39285 -2.678572,-9.46428 -4.642857,-10.89285 -1.964286,-1.42858 0.892857,-8.21429 3.214285,-6.96429 2.321429,1.25 3.75,5.89286 3.75,8.75 0,2.85714 2.678572,5 3.75,6.78571 1.071429,1.78572 0.892857,10.35715 -0.892857,10.71429 z"
         id="15_Ithaka"
         style="fill:none;stroke:#000000;stroke-width:1px;stroke-linecap:butt;stroke-linejoin:miter;stroke-opacity:1" />
      <path
         d="m 31.607143,477.18361 c -2.142857,-1.25 -1.071429,-8.39286 1.428571,-14.28571 2.5,-5.89286 7.678572,-16.07143 10.535715,-16.60715 2.857143,-0.53571 4.107143,3.57143 4.464285,8.92857 0.357143,5.35715 0.178572,8.03572 1.428572,10.71429 1.25,2.67857 2.678571,5.17857 -1.607143,6.96429 -4.285714,1.78571 -4.642857,8.03571 -6.964286,4.64285 -2.321428,-3.39285 -3.571428,-8.75 -4.107143,-8.03571 -0.535714,0.71428 -3.035714,6.96428 -5.178571,7.67857 z"
         id="15_Lefkada"
         style="fill:none;stroke:#000000;stroke-width:1px;stroke-linecap:butt;stroke-linejoin:miter;stroke-opacity:1" />
    </g>
    <path
       d="m 145.17357,553.52774 c -1.48088,0.62549 -2.94375,1.11543 -4.30684,1.28743 -0.90627,2.09746 -2.42249,3.62044 -5.47436,3.50306 -6.28999,-0.24197 -10.06727,-3.13815 -12.58325,-0.71858 -1.75488,1.68761 -0.63851,5.2676 -2.43882,7.93423 1.31104,2.22856 2.53862,4.07459 3.295,4.88031 2.72566,2.90346 0.83168,10.89105 -1.89397,11.61692 -2.72568,0.72586 -7.32976,0.5058 -8.58775,-2.15572 -1.258,-2.66152 -14.89301,-1.1078 -17.409,-1.1078 -2.51599,0 -2.1653,2.78854 -1.16751,7.27556 0.88397,3.97521 -3.2389,1.67343 -3.65823,7.60487 -0.20478,2.89665 3.77806,4.3584 7.3424,2.66472 3.5643,-1.6937 3.33845,-1.21145 4.17711,3.14375 0.83867,4.35521 3.98774,9.43689 7.3424,11.85644 3.35466,2.41957 2.52297,12.83552 1.89397,16.70681 -0.62899,3.8713 4.39377,-4.34866 6.0711,-3.6228 1.67731,0.72587 2.10785,13.06532 1.47886,17.90444 -0.629,4.83912 1.67231,10.86596 5.65597,11.10792 3.98365,0.24196 10.68572,-9.19005 13.62104,-12.33548 2.93532,-3.14543 5.67416,9.93371 9.02881,13.56305 3.35466,3.62933 5.04093,-1.22832 9.44392,-4.13179 4.40299,-2.90348 11.31683,1.47438 13.41349,0.74851 2.09666,-0.72587 4.8131,-3.63087 6.07109,-5.80847 1.258,-2.1776 4.39798,-4.83652 5.65597,-9.19173 1.258,-4.35521 6.09561,-5.80923 8.82125,-8.7127 2.72567,-2.90347 -0.0175,-10.17324 -0.85617,-13.80257 -0.83866,-3.62933 2.31751,-8.2344 1.47885,-11.13788 -0.83866,-2.90348 -1.88133,-4.35596 -3.13932,-2.90422 -1.258,1.45174 -9.23004,4.37937 -9.85904,6.55697 -0.629,2.1776 -5.04449,5.55846 -6.51216,3.6228 -1.46766,-1.93564 -13.61749,-5.81895 -16.55281,-7.75459 -2.93531,-1.93565 2.71854,-10.1579 5.86354,-12.33549 3.14498,-2.17761 -6.69021,-6.76732 -9.62554,-9.6708 -2.93532,-2.90347 -9.87801,-9.67641 -7.99101,-12.09596 1.88698,-2.41957 3.14986,-5.31802 2.10153,-9.43127 -0.46325,-1.81761 -0.67429,-3.53081 -0.70052,-5.05994 z"
       id="16_Akarnanien"
       style="fill:none;stroke:#000000;stroke-width:0.89187753px;stroke-linecap:butt;stroke-linejoin:miter;stroke-opacity:1" />
    <path
       d="m 211.51455,544.6354 c -2.24859,3.17636 -6.28985,7.08116 -7.75751,11.5271 -1.67733,5.08108 -10.50266,19.10372 -16.16364,15.9583 -5.66098,-3.14543 -2.28868,-17.40759 -6.90132,-16.19782 -4.61266,1.20978 -8.8023,7.97801 -10.68928,3.6228 -1.887,-4.35521 0.2069,-14.76555 -2.3091,-14.28163 -2.51599,0.48392 -9.244,-1.20659 -13.64699,2.66471 -2.3191,2.03905 -5.62421,4.22661 -8.87314,5.59888 0.0262,1.52913 0.23727,3.24233 0.70052,5.05994 1.04833,4.11325 -0.21455,7.0117 -2.10153,9.43127 -1.887,2.41955 5.05569,9.19249 7.99101,12.09596 2.93533,2.90348 12.77052,7.49319 9.62554,9.6708 -3.145,2.17759 -8.79885,10.39984 -5.86354,12.33549 2.93532,1.93564 15.08515,5.81895 16.55281,7.75459 1.46767,1.93566 5.88316,-1.4452 6.51216,-3.6228 0.629,-2.1776 8.60104,-5.10523 9.85904,-6.55697 1.22074,-1.40876 2.23594,-0.0681 3.06148,2.66471 1.27009,-0.95385 2.31895,-1.61474 2.80206,-1.67668 1.887,-0.24195 6.25271,6.10358 9.36609,5.41923 3.11337,-0.68435 10.37052,-7.67761 12.29785,-7.33542 1.92733,0.34217 -1.92733,4.95302 -2.07558,7.00608 -0.14826,2.05307 3.11707,2.5535 7.86127,1.52696 4.74421,-1.02653 16.16735,-1.7066 20.91155,0.68864 4.74421,2.39524 12.88718,3.61424 17.92789,4.64078 5.04072,1.02653 2.23867,-5.84269 2.38693,-8.92227 0.14826,-3.0796 -4.15117,-3.0796 -7.26455,-2.39525 -3.11339,0.68436 -7.86871,-4.9359 -10.09255,-6.6468 -2.22384,-1.71087 -8.43207,-1.55261 -10.50767,-2.06588 -2.07558,-0.51326 2.79834,-5.9924 4.28092,-6.67674 1.48255,-0.68436 12.30898,4.78192 14.08804,4.61084 1.77907,-0.17109 4.229,-4.3371 9.41798,-5.44918 5.18896,-1.11207 7.34609,-6.69384 8.97692,-7.63483 0.42509,-0.24529 -0.045,-0.58184 -0.95996,-0.9581 -3.1561,1.61655 -6.16962,2.14999 -12.97243,0.86827 -7.26456,-1.3687 -7.27938,-5.98381 -13.80265,-6.49708 -6.52328,-0.51326 -12.44613,2.73742 -13.33565,0 -0.4595,-1.41403 -1.1126,-7.38025 -1.37508,-13.11395 -0.49997,-1.36883 -1.1981,-2.99266 -2.62043,-4.73061 -3.56433,-4.3552 -5.66151,-7.03845 -10.27416,-6.7965 -1.4838,0.0778 -3.22576,-0.50598 -5.0333,-1.58684 z m 23.63575,2.00601 c -0.0391,0.0827 -0.0701,0.17099 -0.1038,0.26947 0.0329,-0.0973 0.0654,-0.18751 0.1038,-0.26947 z"
       id="17_Evrytania"
       style="fill:none;stroke:#000000;stroke-width:0.89187753px;stroke-linecap:butt;stroke-linejoin:miter;stroke-opacity:1" />
    <path
       d="m 215.97706,598.76786 c -1.92733,-0.34219 -9.18448,6.65107 -12.29785,7.33542 -3.11338,0.68435 -7.47909,-5.66118 -9.36609,-5.41923 -0.48311,0.0619 -1.53197,0.72283 -2.80206,1.67668 0.0252,0.0833 0.053,0.15352 0.0777,0.23951 0.83865,2.90348 -2.31752,7.50855 -1.47887,11.13788 0.83867,3.62933 3.58184,10.8991 0.85619,13.80257 -2.72565,2.90347 -7.56326,4.35749 -8.82125,8.7127 -1.15556,4.00056 -3.87857,6.57313 -5.29275,8.65282 1.69902,1.01463 3.22479,1.82127 3.83984,2.21559 1.88699,1.20977 7.95096,-2.65741 11.93463,-3.38328 3.98365,-0.72586 8.82401,9.67808 11.13034,8.95221 2.30632,-0.72586 8.37031,-2.89374 11.93463,-0.9581 3.56432,1.93566 4.61608,-3.3889 4.82574,-5.80846 0.20967,-2.41956 4.19739,-5.33107 7.34239,-2.18565 3.14499,3.14543 4.82429,15.9656 7.54995,15.23972 2.72565,-0.72586 1.45924,-4.10747 0.83024,-6.52704 -0.629,-2.41955 3.36294,-7.26263 6.92726,-5.56893 0.41935,2.1776 -0.84288,6.04068 0.41512,6.76657 1.258,0.72586 6.09494,6.55529 6.3046,9.70072 0.20967,3.14542 10.67796,4.10186 16.96794,4.10186 6.28998,0 3.57261,3.87766 6.92726,5.3294 3.35466,1.45173 4.4001,-1.45174 5.44842,0 1.04834,1.45173 10.25941,-1.46222 11.72708,-1.94613 1.46766,-0.48391 1.4907,-7.98196 5.47436,-9.19174 3.98366,-1.20978 3.97798,0.25 3.13933,2.18566 -0.83867,1.93563 -0.22166,3.88011 3.76199,5.08988 3.98366,1.20979 6.92373,7.48514 9.85905,7.48514 2.93533,0 5.87894,-5.08001 6.92727,-15.00021 1.04833,-9.9202 1.462,-5.068 3.13933,-7.2456 1.67733,-2.1776 -7.95729,-3.88497 -11.31195,-4.61084 -3.35466,-0.72588 -6.5065,-6.53508 -9.65149,-8.71269 -3.14499,-2.1776 -7.75396,3.14376 -10.68928,3.14376 -2.93531,0 -0.84708,-3.13966 0.83024,-6.52704 1.67733,-3.38738 2.10785,-6.05361 1.47886,-8.47318 -0.62901,-2.41956 0.19281,-5.32773 1.66046,-8.47316 1.46767,-3.14543 -11.31471,-6.04311 -13.62104,-6.52703 -2.30632,-0.48392 -3.55931,3.15106 -5.65597,2.42518 -2.09667,-0.72586 -3.15263,-7.99974 -4.41062,-10.41929 -0.54093,-1.04039 -4.44097,-1.70802 -8.89909,-2.18566 -0.0956,3.11824 2.60879,9.8498 -2.38693,8.83245 -5.04071,-1.02654 -13.18369,-2.24554 -17.92789,-4.64078 -4.7442,-2.39524 -16.16734,-1.71517 -20.91154,-0.68864 -4.74421,1.02654 -8.00954,0.52611 -7.86129,-1.52696 0.14826,-2.05306 4.00292,-6.66391 2.07559,-7.00608 z"
       id="18_Fokida"
       style="fill:none;stroke:#000000;stroke-width:0.89187753px;stroke-linecap:butt;stroke-linejoin:miter;stroke-opacity:1" />
    <g
       transform="matrix(0.83023509,0,0,0.95809661,49.644649,161.24705)"
       id="19_Euboa">
      <path
         d="m 402.79833,448.5435 c -1.01015,-2.77792 1.26269,-8.08122 1.76776,-11.11168 0.50508,-3.03046 7.82869,3.03046 9.84899,3.78807 2.02031,0.75762 -0.50507,6.81853 3.283,9.09137 3.78807,2.27285 13.63706,7.57615 8.33376,9.84899 -5.3033,2.27285 -11.61676,1.76777 -12.37437,-2.52538 -0.75762,-4.29315 -4.79823,-7.07107 -6.06092,-6.81853 -1.26269,0.25254 -3.03046,0.50508 -4.79822,-2.27284 z"
         id="path3995"
         style="fill:none;stroke:#000000;stroke-width:1px;stroke-linecap:butt;stroke-linejoin:miter;stroke-opacity:1" />
      <path
         d="m 292.375,428.5625 c -2.2787,-0.0272 -4.62738,1.40213 -7.5,1.8125 -3.53554,0.50508 -8.85216,6.28458 -11.125,9.0625 -2.27284,2.77791 -21.21954,6.83692 -24.25,10.625 -3.03046,3.78807 6.05393,1.75 13.125,1.75 7.07107,0 9.36564,0.0102 13.40625,-1 4.04061,-1.01015 6.56916,4.78966 12.125,7.0625 5.55584,2.27284 20.1959,15.93321 22.46875,19.46875 2.27284,3.53553 3.01682,6.3125 7.5625,6.3125 4.54569,0 5.55235,5.80568 6.5625,9.59375 1.01016,3.78807 -4.01095,4.80409 -6.03125,2.53125 -2.02031,-2.27284 -8.34533,-0.51095 -14.40625,-2.53125 -3.12313,-1.04105 -6.6431,-0.79617 -10.15625,-0.1875 -0.34024,1.22054 -0.89841,2.53316 -1.71875,3.96875 -2.0203,3.53553 -4.53553,6.8125 -1,6.8125 3.53553,0 9.08693,-5.55409 12.875,-3.28125 3.78808,2.27285 7.58439,8.33613 11.625,9.09375 1.96905,0.36919 5.73425,0.98725 8.84375,1.78125 0.16637,-2.79776 0.72407,-5.67301 2.5,-7.09375 3.78807,-3.03046 1.77443,-1.76523 5.5625,-0.25 3.78808,1.51523 17.18734,0.52871 26.53125,0.78125 9.34391,0.25254 4.5414,5.78712 3.53125,8.3125 -1.01015,2.52538 8.06583,7.32091 10.84375,9.59375 2.77792,2.27284 1.51856,10.85977 2.78125,12.375 1.26269,1.51523 6.55567,6.82852 10.34375,8.34375 3.78807,1.51523 1.53029,9.10295 7.84375,14.40625 6.31345,5.3033 3.01936,-3.53379 7.3125,-3.28125 4.29315,0.25253 8.83439,5.78807 12.875,2 4.04061,-3.78807 2.28046,-17.43068 -0.75,-21.21875 -3.03045,-3.78808 -7.0717,2.2914 -12.375,1.28125 -5.30331,-1.01015 -14.8834,-6.56916 -17.15625,-12.125 -2.27284,-5.55584 -8.58026,-20.21779 -6.8125,-26.53125 1.76777,-6.31345 -0.27697,-11.09962 -3.8125,-13.625 -3.53553,-2.52538 0.0178,-6.06329 -1.75,-9.09375 -1.76776,-3.03046 -17.95177,-4.28125 -22.75,-4.28125 -4.79822,0 -15.64609,-6.56758 -16.65625,-6.0625 -1.01015,0.50507 -15.16037,-6.32932 -20.96875,-10.875 -5.80838,-4.54569 -6.05489,-12.86818 -6.8125,-16.65625 -0.75762,-3.78807 -6.54806,-6.82598 -11.09375,-8.59375 -0.52086,-0.1894 -1.0679,-0.27496 -1.59375,-0.28125 z"
         id="path3997"
         style="fill:none;stroke:#000000;stroke-width:1px;stroke-linecap:butt;stroke-linejoin:miter;stroke-opacity:1" />
    </g>
    <g
       transform="matrix(0.83023509,0,0,0.95809661,49.644649,161.24705)"
       id="20_Attkia-Inseln">
      <path
         d="m 333.0625,513.34375 c -1.03289,0.009 -2.33466,0.0372 -3.53125,0.0625 0.29718,0.33995 0.35831,0.69456 0.0312,1.0625 -2.02031,2.27284 -2.51856,-2.79157 -3.78125,7.5625 -1.26269,10.35406 -4.80822,15.65625 -8.34375,15.65625 -3.53554,0 -7.07678,-6.54981 -11.875,-7.8125 -4.79823,-1.26269 -5.5414,-3.2922 -4.53125,-5.3125 1.01015,-2.02031 1.01697,-3.54394 -3.78125,-2.28125 -4.79823,1.26269 -4.82599,9.08868 -6.59375,9.59375 -1.20544,0.34441 -6.69561,1.85837 -10.5,2.3125 0.46528,2.58515 0.64716,4.76875 -0.15625,6.03125 -2.5,3.92858 -6.0625,6.43304 -6.0625,10.71875 0,4.28571 6.7634,10 8.90625,10 2.14286,0 11.42857,-3.22322 15,-3.9375 3.57143,-0.71429 3.23661,5.71428 3.59375,10 0.35714,4.28571 8.90625,2.16072 13.90625,0.375 5,-1.78571 5.73661,-3.9375 11.09375,-3.9375 5.35714,0 5.69643,6.42411 12.125,14.28125 6.42857,7.85715 5.00447,-0.35268 8.21875,3.21875 3.21429,3.57143 6.43304,10.7009 13.21875,12.84375 7.85714,-2.14285 6.41964,-3.91518 8.5625,-10.34375 2.14286,-6.42857 -3.91518,-9.63393 -5.34375,-13.5625 -1.42858,-3.92857 -2.14732,-16.8125 -3.21875,-21.8125 -1.07143,-5 -3.58036,-3.56696 1.0625,-6.78125 4.64286,-3.21428 5.36161,-10.36161 3.21875,-15.71875 -2.14285,-5.35715 -23.56696,-11.76786 -26.78125,-12.125 -0.80357,-0.0893 -2.41741,-0.11049 -4.4375,-0.0937 z"
         id="20_Attkika"
         style="fill:none;stroke:#000000;stroke-width:1px;stroke-linecap:butt;stroke-linejoin:miter;stroke-opacity:1" />
      <g
         id="20_Inseln">
        <path
           d="m 258.21429,778.43361 c -6.42858,-5.71428 -9.64286,-19.28571 -5.71429,-24.28571 3.92857,-5 5.71429,2.5 10.35714,4.64285 4.64286,2.14286 11.78572,7.5 10.71429,9.64286 -1.07143,2.14286 -7.5,1.07143 -7.5,4.28572 0,3.21428 1.42857,8.92857 0,8.92857 -1.42857,0 -4.28572,-2.85715 -7.85714,-3.21429 z"
           id="path4014"
           style="fill:none;stroke:#000000;stroke-width:1px;stroke-linecap:butt;stroke-linejoin:miter;stroke-opacity:1" />
        <path
           d="m 305,581.6479 c 6.07143,-1.07143 14.64286,-2.5 13.92857,0.71428 -0.71428,3.21429 -3.57143,11.07143 -6.78571,11.42857 -3.21429,0.35715 -2.5,-7.85714 -4.64286,-7.85714 -2.14286,0 -5.71429,-2.5 -2.5,-4.28571 z"
           id="path4016"
           style="fill:none;stroke:#000000;stroke-width:1px;stroke-linecap:butt;stroke-linejoin:miter;stroke-opacity:1" />
        <path
           d="m 283.21429,603.79075 c 2.14285,0 8.57142,5.35715 11.78571,5.35715 3.21429,0 3.92857,-0.35715 1.78571,-3.57143 -2.14285,-3.21429 0.71429,-13.57143 4.64286,-10 3.92857,3.57143 -1.07143,7.5 1.78572,11.42857 2.85714,3.92857 9.64285,3.57143 10,5.35714 0.35714,1.78572 5.35714,7.85714 3.21428,9.64286 -2.14286,1.78571 -5.35714,3.92857 -9.28571,3.92857 -3.92857,0 0.71428,-7.5 -3.57143,-7.5 -4.28572,0 -9.64286,-1.78571 -16.07143,-4.64286 -6.42857,-2.85714 -11.42857,-5 -4.28571,-10 z"
           id="path4018"
           style="fill:none;stroke:#000000;stroke-width:1px;stroke-linecap:butt;stroke-linejoin:miter;stroke-opacity:1" />
        <path
           d="m 293.92857,635.21932 c 6.42857,-1.78571 6.42857,-0.71428 12.85714,-2.85714 6.42858,-2.14286 11.78572,-4.64286 11.78572,-1.07143 0,3.57143 -3.21429,8.57143 -9.64286,8.57143 -6.42857,0 -13.92857,-1.42857 -15,-4.64286 z"
           id="path4020"
           style="fill:none;stroke:#000000;stroke-width:1px;stroke-linecap:butt;stroke-linejoin:miter;stroke-opacity:1" />
      </g>
    </g>
    <path
       d="m 223.08594,674.42755 c -1.6249,-0.0302 -3.09757,0.29453 -4.67006,0.77845 0,0 0.84288,6.99226 -0.41512,11.34746 -1.258,4.35521 -8.60315,10.17734 -9.65149,10.4193 -1.04833,0.24196 -0.81903,7.5134 0.64863,10.65883 1.46766,3.14542 9.00772,7.47783 11.1044,8.2037 2.09665,0.72587 -1.26213,13.78291 -0.20758,12.60496 2.84414,-3.17694 7.87141,1.65636 10.06662,8.2037 2.13589,6.37049 1.87711,14.76386 3.55444,17.42539 1.67731,2.66151 9.44668,-0.47494 11.75301,-3.86233 2.30633,-3.38738 -0.007,-9.21197 3.34689,-10.17978 3.35466,-0.96783 7.56114,8.48045 9.0288,7.75459 1.46766,-0.72586 8.16064,1.45326 11.93464,5.80847 3.77397,4.3552 7.13126,1.93959 10.06659,5.56894 2.93532,3.62933 -5.45053,3.61624 -5.24085,7.24559 0.20967,3.62934 5.87959,5.34478 9.44393,6.79651 3.56431,1.45173 6.08162,-6.55774 5.03329,-9.46121 -1.04834,-2.90348 5.22189,-2.17837 7.10889,-2.90423 1.22444,-0.471 4.43708,-0.85829 7.26455,-1.31739 -0.27603,-2.09377 0.96176,-5.74858 -1.58263,-5.74858 -3.55815,0 -7.99843,-1.7237 -13.33565,-4.46112 -5.10661,-2.61914 -9.11126,-4.61892 -4.25496,-8.98216 -1.72861,-2.87696 -3.2577,-6.1439 -4.229,-7.54501 -1.67733,-2.41958 1.26076,-8.21981 2.30909,-12.57503 1.04832,-4.3552 -1.68497,-7.50047 -4.41064,-8.9522 -2.72564,-1.45174 -7.73577,-8.24656 -7.31643,-9.94026 0.41931,-1.69369 7.96151,0.98241 10.89683,-1.43715 0.58769,-0.48442 1.0727,-1.16305 1.47885,-1.94613 -2.34664,-1.6314 -5.7338,-5.64054 -5.7338,-8.83246 0,-1.60173 0.44343,-2.95698 1.11562,-4.2216 -4.75226,-1.16867 -11.18683,-1.68631 -13.43942,-1.22757 -3.56434,0.72587 -6.70642,6.07792 -5.44843,6.07792 1.258,0 5.67351,2.8977 6.51216,6.52703 0.83866,3.62934 -8.60592,1.44445 -11.96057,0.71858 -3.35466,-0.72586 -6.90897,-11.14107 -11.31195,-13.80258 -4.40299,-2.66152 -9.45157,-5.79143 -13.85455,-7.48513 -2.2015,-0.84684 -3.97918,-1.22726 -5.6041,-1.2575 z"
       id="21_Korinthia"
       style="fill:none;stroke:#000000;stroke-width:0.89187753px;stroke-linecap:butt;stroke-linejoin:miter;stroke-opacity:1" />
    <path
       d="m 177.99381,651.97216 c -0.49936,0.0238 -0.98962,0.0942 -1.45292,0.17965 -7.41281,1.3687 -13.32453,16.74102 -19.84781,19.82062 -6.52327,3.07959 -14.5254,-6.83072 -16.00797,-5.11983 -1.48255,1.71089 -5.95248,15.04725 -9.80715,22.57516 -3.85466,7.52789 -13.63586,10.62459 -13.93237,14.73073 -0.29652,4.10612 14.54393,9.92314 16.91604,14.37144 2.37209,4.4483 -0.89696,9.22168 2.95771,9.22168 3.85466,0 9.18447,7.20712 17.48682,15.41938 3.55815,5.13265 5.63745,13.31924 6.8235,17.42538 1.18605,4.10611 5.34834,0.36783 12.16812,-0.6587 6.8198,-1.02653 5.62632,-4.79048 7.1089,-7.18573 1.48255,-2.39524 8.00583,0.32935 6.22676,-4.46112 -1.77908,-4.79049 -8.93161,-11.22497 -15.12585,-13.68283 -1.70514,-0.6766 1.78278,-18.81547 2.67232,-23.26378 1.68278,-8.415 7.40911,-0.33789 11.8568,3.08388 4.44769,3.42177 9.79973,-0.70574 14.84044,-1.04792 2.39156,-0.16234 5.97385,-1.77647 9.46988,-3.95216 -0.59917,-0.6216 -1.08227,-1.22448 -1.34913,-1.79642 -1.46766,-3.14543 -1.69696,-10.41687 -0.64863,-10.65883 1.04834,-0.24196 8.39349,-6.06409 9.65149,-10.4193 1.258,-4.3552 0.41512,-11.34746 0.41512,-11.34746 0.89154,-0.27436 1.74712,-0.49239 2.62043,-0.62875 -2.83216,-4.13884 -6.71066,-5.00006 -9.49582,-5.00006 -3.55814,0 -7.4054,-1.02226 -11.26005,-6.4971 -3.61376,-5.13266 -14.79636,-11.4638 -22.28663,-11.10793 z"
       id="22_Elis"
       style="fill:none;stroke:#000000;stroke-width:0.89187753px;stroke-linecap:butt;stroke-linejoin:miter;stroke-opacity:1" />
    <path
       d="m 207.88226,702.99081 c 0.0648,0.56535 0.15879,1.13117 0.25946,1.67667 -0.10222,-0.54502 -0.19375,-1.1123 -0.25946,-1.67667 z m 0.25946,1.67667 c 0.10443,0.566 0.21912,1.11482 0.36323,1.61679 -0.14468,-0.50034 -0.25748,-1.05289 -0.36323,-1.61679 z m -31.36733,2.96411 c -1.1532,0.0539 -2.06862,1.08293 -2.59448,3.71262 -0.88954,4.44831 -4.37746,22.58718 -2.67232,23.26378 6.19424,2.45786 13.34677,8.89234 15.12585,13.68283 1.1399,3.06938 -1.1279,3.07092 -3.29499,3.29345 1.23015,2.4386 2.01086,4.58763 1.81614,5.59887 -0.59304,3.07959 1.18975,8.20799 6.82349,18.47331 5.63375,10.26533 8.28382,10.27388 13.62105,13.35346 3.85465,-1.3687 0.31134,-12.32693 2.38692,-13.35346 2.07559,-1.02653 4.74419,3.77677 8.30235,6.85637 3.55815,3.0796 4.74049,-2.73742 3.55445,-4.79048 -1.18605,-2.05307 3.55072,-9.24306 7.10888,-10.2696 3.55815,-1.02652 8.01325,9.5724 11.57141,15.38942 3.55814,5.81703 2.97254,12.31411 3.26904,18.47331 0.29652,6.15919 9.1956,4.12323 15.12584,5.14977 5.93025,1.02653 7.1052,-2.07019 8.58775,-5.14977 1.48257,-3.0796 -2.0867,-7.18573 -3.86577,-7.18573 -1.77908,0 -1.47887,-7.84441 -1.47887,-10.23966 0,-2.39524 -9.18447,-18.49039 -9.18447,-21.22782 0,-1.41421 -2.75858,-6.94043 -5.47436,-12.84448 -0.0734,0.13205 -0.14792,0.26351 -0.23351,0.38923 -2.30633,3.38739 -10.0757,6.52384 -11.75301,3.86233 -1.67733,-2.66153 -1.41855,-11.0549 -3.55444,-17.42539 -2.19521,-6.54734 -7.22248,-11.38064 -10.06662,-8.2037 -1.05455,1.17795 2.30423,-11.87909 0.20758,-12.60496 -1.71545,-0.59389 -7.05921,-3.61026 -9.75527,-6.40728 -3.49603,2.17569 -7.07832,3.78982 -9.46988,3.95216 -5.04071,0.34218 -10.39275,4.46969 -14.84044,1.04792 -3.05778,-2.35248 -6.72527,-6.91517 -9.26232,-6.7965 z"
       id="23_Arkadien"
       style="fill:none;stroke:#000000;stroke-width:0.89187753px;stroke-linecap:butt;stroke-linejoin:miter;stroke-opacity:1" />
    <path
       d="m 186.63344,748.29082 c 0.1112,0.29939 0.18392,0.56461 0.23351,0.80838 -0.0496,-0.24384 -0.12245,-0.50935 -0.23351,-0.80838 z m 0.23351,0.80838 c 0.0474,0.23291 0.0808,0.44113 0.0777,0.62876 0.002,-0.18327 -0.032,-0.40332 -0.0777,-0.62876 z m -0.0259,1.16769 c -0.0451,0.12594 -0.1069,0.2595 -0.18161,0.35928 0.0752,-0.10027 0.13613,-0.23295 0.18161,-0.35928 z m -0.2335,0.41916 c -0.0961,0.11391 -0.20561,0.1865 -0.33729,0.26946 0.12398,-0.0801 0.24521,-0.16163 0.33729,-0.26946 z m -0.33733,0.26946 c -0.13167,0.083 -0.28036,0.1514 -0.44107,0.20959 0.15683,-0.059 0.31249,-0.12654 0.44107,-0.20959 z m -0.44107,0.20959 c -0.16071,0.0581 -0.33566,0.11012 -0.51889,0.1497 0.18584,-0.0414 0.35659,-0.0887 0.51889,-0.1497 z m -2.49069,0.41917 c -1.21516,0.12477 -2.39912,0.30713 -2.93177,1.16767 -1.48258,2.39525 -0.2891,6.1592 -7.1089,7.18573 -5.00828,0.75387 -8.56986,2.95714 -10.58549,2.45513 0.50189,2.91713 0.97386,5.56353 1.08969,6.76654 0.29651,3.0796 -1.48998,3.08389 -5.34464,7.87437 -3.85467,4.79048 -7.10889,15.38514 -5.03331,19.49128 2.07559,4.10612 5.34093,10.28243 8.89909,21.91646 3.55814,11.63403 7.1163,13.00701 12.45353,17.45532 5.33722,4.4483 6.81607,-1.02652 7.70562,-4.79048 0.88953,-3.76396 -1.18977,-17.79751 1.47884,-24.64105 2.66862,-6.84356 13.63218,-2.74597 15.41125,-1.37727 1.77908,1.36871 -3.55073,12.99418 -0.88212,12.99418 2.66861,0 7.1163,4.44831 10.37793,9.58098 3.26164,5.13265 7.11631,25.6804 8.30235,33.89266 1.18606,8.21226 6.24159,12.30983 8.61369,15.38942 2.3721,3.0796 0.27798,-10.26104 -0.90807,-16.07805 -1.18605,-5.817 2.0793,-16.43306 4.74791,-22.93444 2.66861,-6.50136 8.9065,-8.21654 14.24373,-7.87436 5.63373,0.34219 6.20822,2.75026 7.39427,6.85638 1.18606,4.10614 1.20829,7.54075 3.58039,9.25163 2.3721,1.71089 8.58033,17.42538 11.54546,17.42538 2.96513,0 4.74419,5.1455 8.30235,9.25162 3.55814,4.10613 6.5381,1.03081 6.5381,-4.10185 0,-5.13266 -8.02438,-11.28758 -11.28601,-18.4733 -3.26163,-7.18573 2.09413,-9.93599 5.05925,-11.64686 2.96512,-1.7109 -1.7902,-8.89234 -3.86579,-13.68282 -2.07558,-4.79048 -3.26905,-16.42879 -3.26905,-19.85057 0,-1.62949 -1.00843,-3.01186 -2.25719,-4.10185 -0.0389,0.10667 -0.0535,0.22481 -0.10381,0.32935 -1.48256,3.07958 -2.6575,6.1763 -8.58774,5.14977 -5.93025,-1.02654 -14.82934,1.00942 -15.12585,-5.14977 -0.29651,-6.1592 0.28909,-12.65628 -3.26904,-18.47331 -3.55816,-5.81702 -8.01327,-16.41594 -11.5714,-15.38942 -3.55817,1.02654 -8.29494,8.21653 -7.1089,10.2696 1.18605,2.05306 0.003,7.87008 -3.55443,4.79048 -3.55817,-3.0796 -6.22677,-7.8829 -8.30236,-6.85637 -2.07559,1.02653 1.46773,11.98476 -2.38693,13.35346 -5.33723,-3.07958 -7.9873,-3.08813 -13.62105,-13.35346 -5.63374,-10.26532 -7.41652,-15.39372 -6.82348,-18.47331 0.19472,-1.01124 -0.58599,-3.16027 -1.81614,-5.59887 z"
       id="24_Lakonien"
       style="fill:none;stroke:#000000;stroke-width:0.89187753px;stroke-linecap:butt;stroke-linejoin:miter;stroke-opacity:1" />
    <path
       d="m 311.51751,1014.176 c -4.82232,-5.807 -3.56432,-12.3397 -2.51599,-17.42082 1.04833,-5.081 3.35466,-12.58172 3.145,-16.45301 -0.20968,-3.87128 0.20966,-7.74256 1.25799,-6.53287 1.04833,1.20979 2.09666,10.88809 6.08031,10.16215 3.98366,-0.72586 4.19332,-7.25864 3.56431,-13.06557 -0.62898,-5.80695 3.145,-10.16216 4.61266,-8.22651 1.46767,1.93564 -1.258,13.79152 1.25799,16.211 2.51601,2.41958 14.67664,3.87138 18.45061,2.90351 3.774,-0.96777 3.56433,-11.13002 9.01565,-8.95236 5.45132,2.17757 9.64464,9.4363 5.24165,11.12993 -4.40298,1.69372 -13.83795,1.20979 -8.38665,3.87133 5.45132,2.6615 11.32197,-1.69368 12.9993,1.20978 1.67733,2.90342 -0.41933,13.79154 4.40299,12.58174 4.82232,-1.2098 17.19879,1.4446 20.75694,-2.66152 3.77398,-4.3553 23.48258,-7.2586 24.53092,-4.8392 1.04833,2.4196 10.90264,0 7.75765,2.9036 -3.145,2.9034 -5.24165,8.46842 -3.35466,11.61382 1.88699,3.1454 2.30633,6.2909 -0.83867,8.9524 -3.14499,2.6616 -5.45131,-5.323 -7.12864,-1.6937 -1.67732,3.6294 3.77398,10.888 -0.20967,12.0978 -3.98365,1.2098 -12.16062,4.1132 -16.5636,3.6294 -4.40299,-0.4839 -10.06399,-10.1622 -17.61196,-11.614 -7.54798,-1.4516 -17.61195,-2.1775 -23.27292,-1.4516 -5.66099,0.7258 -20.12794,-5.807 -25.15993,-4.5972 -5.03199,1.2097 -14.2573,1.6936 -18.03128,0.2419 z"
       id="25_Chania"
       style="fill:none;stroke:#000000;stroke-width:0.89187753px;stroke-linecap:butt;stroke-linejoin:miter;stroke-opacity:1" />
    <path
       d="m 432.07169,992.63538 c -1.04658,0.1208 -6.05546,1.3362 -10.97468,2.7246 2.33369,0.06 4.23245,0.1346 2.5945,1.6467 -3.145,2.9035 -5.2339,8.47152 -3.34689,11.61692 1.88699,3.1455 2.28881,6.2908 -0.85618,8.9524 -3.14499,2.6614 -5.43156,-5.3361 -7.10889,-1.7067 -1.67733,3.6294 3.75015,10.8862 -0.2335,12.0959 -1.60058,0.486 -3.86693,1.2429 -6.3046,1.9463 1.78045,2.2479 3.26956,4.7342 3.58039,7.0059 0.629,4.5973 -3.76134,13.0542 -1.24536,13.0542 2.51601,0 28.31347,1.454 32.71645,-0.2396 4.40299,-1.6938 21.38685,-6.7616 28.30583,-7.2455 6.91899,-0.4841 18.44034,-2.8922 26.82697,-4.102 8.38665,-1.2098 22.86439,-1.2098 24.75138,0 1.88701,1.2098 10.67664,0.9518 11.93464,-4.3713 1.258,-5.323 3.36163,-18.1503 1.89396,-23.4734 -1.46765,-5.323 -6.93425,4.6013 -8.82124,5.569 -1.88699,0.9679 -7.12285,-3.8664 -10.89683,-0.4791 -3.77398,3.3875 -17.18524,12.3526 -21.37855,10.6589 -4.19333,-1.6938 -6.29552,-9.9265 -4.61819,-14.2817 1.67733,-4.3552 8.7982,-11.1427 3.3469,-10.6588 -5.45134,0.4839 -17.82122,5.3318 -23.27254,5.0899 -5.45132,-0.242 -18.42993,-5.3392 -20.10725,-4.3713 -1.67733,0.9677 -13.63435,1.4493 -14.89235,0.2395 -1.25799,-1.2098 0.20269,-9.91272 -1.89397,-9.67082 z"
       id="26_Iraklio"
       style="fill:none;stroke:#000000;stroke-width:0.89187753px;stroke-linecap:butt;stroke-linejoin:miter;stroke-opacity:1" />
    <g
       transform="matrix(0.83023509,0,0,0.95809661,49.644649,161.24705)"
       id="27_Karpathos-Rhodos">
      <g
         id="27_Karpathos">
        <path
           d="m 669.22606,866.74665 c -4.79822,-1.01015 -2.52538,-7.82868 -5.3033,-14.14213 -2.77792,-6.31346 4.79823,-19.1929 5.55584,-22.72844 0.75761,-3.53553 6.31345,-13.38452 4.79822,-14.14213 -1.51522,-0.75762 0,-7.57615 1.51523,-7.57615 1.51523,0 3.283,8.83884 2.77792,13.13199 -0.50507,4.29315 -2.52538,11.86929 -5.3033,14.89975 -2.77792,3.03046 -1.76776,6.31345 1.01015,10.10152 2.77792,3.78808 7.57615,12.37437 4.54569,13.63706 -3.03046,1.26269 -5.55584,6.31346 -9.59645,6.81853 z"
           id="path4078"
           style="fill:none;stroke:#000000;stroke-width:1px;stroke-linecap:butt;stroke-linejoin:miter;stroke-opacity:1" />
        <path
           d="m 640.18418,874.3228 c 0.75761,-2.52539 7.3236,-9.59645 9.09137,-9.34391 1.76777,0.25253 8.5863,-2.02031 7.32361,1.01015 -1.2627,3.03046 -9.59645,8.33376 -12.12184,9.09137 -2.52538,0.75762 -4.29314,-0.75761 -4.29314,-0.75761 z"
           id="path4080"
           style="fill:none;stroke:#000000;stroke-width:1px;stroke-linecap:butt;stroke-linejoin:miter;stroke-opacity:1" />
      </g>
      <path
         d="m 719.98623,799.57151 c -0.25254,-5.05076 8.58629,-12.12183 4.79822,-16.66752 -3.78807,-4.54569 -11.11168,-4.79822 -9.59645,-7.32361 1.51523,-2.52538 8.08122,-2.52538 10.10153,-7.07106 2.0203,-4.54569 4.29315,-12.62691 11.11168,-16.92006 6.81853,-4.29315 24.74873,-11.61675 27.27412,-12.37437 2.52538,-0.75761 1.01015,-4.29315 3.78807,-3.28299 2.77792,1.01015 4.54568,6.06091 0.75761,14.14213 -3.78807,8.08122 -12.87944,25.50635 -14.39467,27.02158 -1.51523,1.51523 3.78807,2.52539 2.27284,5.3033 -1.51523,2.77792 -7.57614,-1.51522 -11.61675,3.283 -4.04061,4.79822 -9.34391,14.89975 -11.8693,16.92006 -2.52538,2.0203 -4.29314,8.08122 -12.6269,-3.03046 z"
         id="27_Rhodos"
         style="fill:none;stroke:#000000;stroke-width:1px;stroke-linecap:butt;stroke-linejoin:miter;stroke-opacity:1" />
    </g>
    <g
       transform="matrix(0.83023509,0,0,0.95809661,49.644649,161.24705)"
       id="28_Kos-Kalymnos">
      <g
         id="28_Kos">
        <path
           d="m 643.39286,713.07647 c -2.14286,0 -6.60715,-10.71429 -4.82143,-10.89286 1.78571,-0.17857 7.32143,-0.71428 7.67857,-1.07143 0.35714,-0.35714 6.25,-11.25 15,-13.75 8.75,-2.5 17.14286,-1.78571 18.57143,-0.17857 1.42857,1.60714 -0.17857,5.35714 -6.96429,6.96429 -6.78571,1.60714 -13.21428,7.5 -14.82143,8.03571 -1.60714,0.53572 -9.46428,-1.42857 -11.96428,1.96429 -2.5,3.39285 0,7.32143 -2.67857,8.92857 z"
           id="path3045"
           style="fill:none;stroke:#000000;stroke-width:1px;stroke-linecap:butt;stroke-linejoin:miter;stroke-opacity:1" />
        <path
           d="m 663.21429,718.96933 c -3.92858,1.25 -5.35715,3.21428 -3.03572,5.89285 2.32143,2.67857 6.07143,4.82143 6.96429,1.60715 0.89285,-3.21429 0,-8.03572 -3.92857,-7.5 z"
           id="path3047"
           style="fill:none;stroke:#000000;stroke-width:1px;stroke-linecap:butt;stroke-linejoin:miter;stroke-opacity:1" />
      </g>
      <path
         d="m 623.21429,649.86218 c -4.10715,3.57143 3.21428,3.03572 4.46428,4.82143 1.25,1.78572 -1.07143,3.57143 1.42857,6.07143 2.5,2.5 4.64286,1.42857 7.5,5.35714 2.85715,3.92857 3.39286,5.17857 2.67857,8.75 -0.71428,3.57143 -0.89285,9.64286 1.60715,9.28572 2.5,-0.35715 6.07143,1.25 8.03571,-3.21429 1.96429,-4.46428 0.71429,-8.03571 -3.75,-11.25 -4.46428,-3.21428 -8.92857,-5.89286 -9.64286,-8.03571 -0.71428,-2.14286 -0.53571,-7.14286 -4.10714,-10.71429 -3.57143,-3.57143 -7.14286,-2.14286 -8.21428,-1.07143 z"
         id="28_Kalymnos"
         style="fill:none;stroke:#000000;stroke-width:1px;stroke-linecap:butt;stroke-linejoin:miter;stroke-opacity:1" />
    </g>
    <g
       transform="matrix(0.83023509,0,0,0.95809661,49.644649,161.24705)"
       id="29_Milos-Naxos">
      <g
         id="29_Thira">
        <path
           d="m 492.19683,756.38749 c -1.51523,-1.76777 4.79822,-4.54569 2.77792,-8.33376 -2.02031,-3.78807 -5.55584,-10.85914 -2.27285,-9.59645 3.283,1.26269 11.8693,6.81853 12.12183,10.85914 0.25254,4.04061 -1.76776,12.62691 -12.6269,7.07107 z"
           id="path3061"
           style="fill:none;stroke:#000000;stroke-width:1px;stroke-linecap:butt;stroke-linejoin:miter;stroke-opacity:1" />
        <path
           d="m 485.12576,713.70854 c -4.04061,-2.52538 -7.32361,-11.86929 -2.77792,-12.12183 4.54569,-0.25254 5.55584,4.79823 9.59645,6.81853 4.04061,2.02031 4.79822,9.09137 2.77792,10.35406 -2.02031,1.2627 -4.29315,0.50508 -9.59645,-5.05076 z"
           id="path3063"
           style="fill:none;stroke:#000000;stroke-width:1px;stroke-linecap:butt;stroke-linejoin:miter;stroke-opacity:1" />
        <path
           d="m 462.39733,718.7593 c 2.27284,-5.3033 2.0203,-6.06091 7.07106,-6.81852 5.05077,-0.75762 5.30331,3.03045 1.2627,6.31345 -4.04061,3.28299 -7.32361,6.06091 -8.33376,0.50507 z"
           id="path3065"
           style="fill:none;stroke:#000000;stroke-width:1px;stroke-linecap:butt;stroke-linejoin:miter;stroke-opacity:1" />
        <path
           d="m 442.44681,717.24408 c 3.53554,-1.26269 12.12183,5.55584 11.36422,7.82868 -0.75761,2.27284 -3.78807,4.79822 -8.33376,-0.25254 -4.54568,-5.05076 -7.82868,-6.81853 -3.03046,-7.57614 z"
           id="path3067"
           style="fill:none;stroke:#000000;stroke-width:1px;stroke-linecap:butt;stroke-linejoin:miter;stroke-opacity:1" />
      </g>
      <g
         id="29_Milos">
        <path
           d="m 401.75,661.86218 c -3.25,-4 -1.5,-9 5.25,-10.5 6.75,-1.5 6,6 4.5,9 -1.5,3 -6,1.5 -9.75,1.5 z"
           id="path3075"
           style="fill:none;stroke:#000000;stroke-width:1px;stroke-linecap:butt;stroke-linejoin:miter;stroke-opacity:1" />
        <path
           d="m 422,673.11218 c 3.25,-2.25 10.25,3.5 10.75,7.5 0.5,4 -5.5,11 -6.75,7.25 -1.25,-3.75 -4.75,-11.5 -4,-14.75 z"
           id="path3077"
           style="fill:none;stroke:#000000;stroke-width:1px;stroke-linecap:butt;stroke-linejoin:miter;stroke-opacity:1" />
        <path
           d="m 415,695.61218 c -2.75,0 -6.75,0 -6.25,3.75 0.5,3.75 -0.25,8.75 -3.25,9 -3,0.25 -4,-6 -5.25,-4.75 -1.25,1.25 -0.5,4.5 1.75,6.5 2.25,2 -4.75,0 -7.75,-2.5 -3,-2.5 -3.5,4.25 -3.75,7 -0.25,2.75 0,5.75 10.5,3.5 10.5,-2.25 9.25,-2 10.75,-9 1.5,-7 2,-5.5 4,-8 2,-2.5 2.5,-3 -0.75,-5.5 z"
           id="path3079"
           style="fill:none;stroke:#000000;stroke-width:1px;stroke-linecap:butt;stroke-linejoin:miter;stroke-opacity:1" />
      </g>
      <path
         d="m 452.54834,683.42922 c -0.88388,-2.82843 4.59619,-3.53554 8.13173,-9.19239 3.53553,-5.65685 11.84404,-15.55635 16.44023,-16.26346 4.5962,-0.7071 8.13173,10.78338 3.88909,16.61701 -4.24264,5.83364 -13.43503,0 -14.84924,0.17678 -1.41422,0.17678 0.7071,7.42462 -1.94455,7.6014 -2.65165,0.17678 -8.83883,4.94975 -11.66726,1.06066 z"
         id="29_Paros"
         style="fill:none;stroke:#000000;stroke-width:1px;stroke-linecap:butt;stroke-linejoin:miter;stroke-opacity:1" />
      <g
         id="29_Naxos">
        <path
           d="m 499.9245,687.14153 c -3.71232,-4.77297 -5.48008,-9.54594 -7.07107,-13.25825 -1.59099,-3.71231 -3.00521,-9.19239 2.12132,-11.31371 5.12652,-2.12132 10.25305,-10.6066 12.9047,-10.6066 2.65165,0 6.89429,8.13173 6.89429,11.84404 0,3.71231 -2.47488,16.79378 -3.88909,17.67767 -1.41421,0.88388 -8.48528,5.12652 -10.96015,5.65685 z"
           id="path3088"
           style="fill:none;stroke:#000000;stroke-width:1px;stroke-linecap:butt;stroke-linejoin:miter;stroke-opacity:1" />
        <path
           d="m 530,703.11218 c -0.25,-1.625 9.5,-5.25 10.875,-8.375 1.375,-3.125 10.875,-10.375 13.625,-10 2.75,0.375 6.875,2.375 7.125,3.625 0.25,1.25 -4.5,-1.25 -8.125,1.625 -3.625,2.875 -11.5,12.5 -13,12.625 -1.5,0.125 -4.875,3.625 -7.5,3 -2.625,-0.625 -2.75,-1.25 -3,-2.5 z"
           id="path3090"
           style="fill:none;stroke:#000000;stroke-width:1px;stroke-linecap:butt;stroke-linejoin:miter;stroke-opacity:1" />
        <path
           d="m 519.125,693.23718 c -3.125,-0.5 -4.25,-1.625 -3.25,-4 1,-2.375 5.375,-3.125 6.625,-0.25 1.25,2.875 -0.625,2.625 -3.375,4.25 z"
           id="path3092"
           style="fill:none;stroke:#000000;stroke-width:1px;stroke-linecap:butt;stroke-linejoin:miter;stroke-opacity:1" />
      </g>
    </g>
    <g
       transform="matrix(0.83023509,0,0,0.95809661,49.644649,161.24705)"
       id="30_Andros-Mykonos">
      <path
         d="m 476.94352,630.57299 c -3.53553,-4.24264 1.591,-7.42462 4.5962,-9.01561 3.0052,-1.59099 5.3033,-1.94455 5.48008,-3.88909 0.17677,-1.94455 6.36396,-3.18198 9.89949,-0.70711 3.53554,2.47488 6.01041,4.77297 3.71231,5.48008 -2.2981,0.70711 -4.41942,4.94975 -7.6014,4.41942 -3.18198,-0.53033 -6.36396,-0.17678 -7.77817,1.59099 -1.41421,1.76776 -5.83363,4.77297 -8.30851,2.12132 z"
         id="30_Mykonos"
         style="fill:none;stroke:#000000;stroke-width:1px;stroke-linecap:butt;stroke-linejoin:miter;stroke-opacity:1" />
      <path
         d="m 425.67828,562.33718 c 0,-6.36396 8.13173,-9.54594 9.36917,-7.95495 1.23743,1.59099 1.41421,7.42462 5.3033,9.19239 3.88909,1.76777 9.54594,-0.70711 10.42982,4.06586 0.88389,4.77297 -0.17677,12.37437 1.41422,12.9047 1.59099,0.53033 5.3033,0.70711 3.71231,3.53554 -1.59099,2.82842 -3.35876,10.78337 -5.48008,8.48528 -2.12132,-2.2981 -4.06586,-11.13693 -9.89949,-15.90991 -5.83364,-4.77297 -14.49569,-8.3085 -14.84925,-14.31891 z"
         id="30_Andros"
         style="fill:none;stroke:#000000;stroke-width:1px;stroke-linecap:butt;stroke-linejoin:miter;stroke-opacity:1" />
      <path
         d="m 460.85685,594.51054 c 3.0052,2.47487 10.07627,3.53553 12.72792,3.71231 2.65165,0.17678 6.01041,0.88389 6.89429,4.06587 0.88388,3.18198 2.2981,11.66726 -4.5962,10.6066 -6.89429,-1.06066 -10.25304,-7.95495 -13.25825,-9.19239 -3.0052,-1.23744 -9.36916,-6.54074 -8.48528,-8.30851 0.88388,-1.76776 4.06587,-1.06066 6.71752,-0.88388 z"
         id="30_Tinos"
         style="fill:none;stroke:#000000;stroke-width:1px;stroke-linecap:butt;stroke-linejoin:miter;stroke-opacity:1" />
      <path
         d="m 445.25,631.98718 c -1.75,-1.75 -4.375,-5.375 -2.375,-7.25 2,-1.875 4.375,-4.625 4.25,-6 -0.125,-1.375 0.875,-4.875 2.25,-3.125 1.375,1.75 0,7.5 2,8.875 2,1.375 4.125,3 1.5,4.625 -2.625,1.625 -5.125,3.75 -7.625,2.875 z"
         id="30_Syros"
         style="fill:none;stroke:#000000;stroke-width:1px;stroke-linecap:butt;stroke-linejoin:miter;stroke-opacity:1" />
      <path
         d="m 387,613.11218 c -1.875,-1.125 -0.625,-5 -1.125,-7.625 -0.5,-2.625 1.5,-9.75 6.375,-11.25 4.875,-1.5 7.125,-0.125 6.75,3.5 -0.375,3.625 -7.75,13.875 -12,15.375 z"
         id="30_Kea"
         style="fill:none;stroke:#000000;stroke-width:1px;stroke-linecap:butt;stroke-linejoin:miter;stroke-opacity:1" />
      <path
         d="m 394.75,640.36218 c -0.25,-2.625 4.25,-7.375 3.25,-10 -1,-2.625 -3.375,-2.625 -2.5,-5.375 0.875,-2.75 3.625,-8.25 6.375,-5.125 2.75,3.125 6.625,8.625 4.625,9.75 -2,1.125 -2.625,1.625 -4,4.5 -1.375,2.875 -4.875,7.125 -7.75,6.25 z"
         id="30_Kythnos"
         style="fill:none;stroke:#000000;stroke-width:1px;stroke-linecap:butt;stroke-linejoin:miter;stroke-opacity:1" />
    </g>
    <g
       transform="matrix(0.83023509,0,0,0.95809661,49.644649,161.24705)"
       id="31_Ikaria-Samos">
      <path
         d="m 545.5,613.36218 c -0.75,-4.5 5.5,-14.75 13.25,-16 7.75,-1.25 17,-2.25 20.5,-4.5 3.5,-2.25 2.25,5.25 -4,10 -6.25,4.75 -13,2.75 -16,5.25 -3,2.5 -7.75,4.75 -13.75,5.25 z"
         id="31_Ikaria"
         style="fill:none;stroke:#000000;stroke-width:1px;stroke-linecap:butt;stroke-linejoin:miter;stroke-opacity:1" />
      <path
         d="m 602.75,586.86218 c 1.75,-5.75 12,-14.5 19.25,-12.75 7.25,1.75 9.25,4.75 14.25,4.25 5,-0.5 11.25,-2.75 12.25,2.25 1,5 4.25,7.25 -2.75,8 -7,0.75 -10.5,5.25 -13,7.25 -2.5,2 -4.5,2.75 -8.25,0 -3.75,-2.75 -2.25,-6.5 -7.25,-7.5 -5,-1 -9.5,3.25 -11.5,3.25 -2,0 -2.75,-0.25 -3,-4.75 z"
         id="31_Samos"
         style="fill:none;stroke:#000000;stroke-width:1px;stroke-linecap:butt;stroke-linejoin:miter;stroke-opacity:1" />
    </g>
    <path
       d="m 505.65126,673.45717 c -2.49069,0 -14.5291,-7.18573 -12.86863,-11.49717 1.66047,-4.31142 11.62329,-7.18572 10.79305,-11.01809 -0.83023,-3.83239 -2.90582,-12.69478 -5.81164,-13.89242 -2.90582,-1.19761 -11.00061,-9.58095 -7.47211,-12.69477 3.5285,-3.11381 12.86864,-4.79049 16.81225,-2.87429 3.94361,1.91619 9.96283,4.07192 8.71748,9.58096 -1.24537,5.50906 -2.49071,11.97621 -1.86803,15.09003 0.62266,3.11381 4.35873,7.66477 1.86803,10.06001 -2.49071,2.39524 -5.81165,3.83238 -4.77387,7.66478 1.0378,3.83238 -0.41511,3.59285 -2.69826,4.55095 -2.28314,0.9581 -2.28314,3.83238 -2.69827,5.03001 z"
       id="32_Chios"
       style="fill:none;stroke:#000000;stroke-width:0.89187753px;stroke-linecap:butt;stroke-linejoin:miter;stroke-opacity:1" />
    <path
       d="m 504.40592,563.51558 c -5.39653,-0.71857 -16.6047,-9.10191 -14.11399,-13.65287 2.4907,-4.55096 8.09479,-8.38335 17.64249,-10.06002 9.5477,-1.67667 8.09479,-4.79048 8.09479,-7.42524 0,-2.63477 10.37794,-2.63477 12.66109,-1.19762 2.28315,1.43714 7.057,4.07192 6.43431,7.18572 -0.62266,3.11381 -3.32093,4.07191 -0.62266,6.46715 2.69826,2.39524 13.69888,15.09003 14.94422,20.12002 1.24535,5.03002 2.49071,6.46717 0.62269,7.90431 -1.86803,1.43715 -3.5285,-1.19762 -5.60409,2.39523 -2.0756,3.59288 -5.60409,6.70668 -13.69888,2.39524 -8.0948,-4.31142 -9.96283,-5.98809 -12.45353,-5.02999 -2.4907,0.95809 -4.77385,1.67667 -5.60409,-3.11382 -0.83024,-4.79049 2.49071,-7.90429 5.60409,-9.10192 3.11338,-1.19762 10.17037,-3.83239 8.5099,-6.22763 -1.66046,-2.39524 -10.37793,-7.42525 -11.0006,-3.11381 -0.62268,4.31144 -0.20757,5.26953 -2.90583,8.62288 -2.69827,3.35332 1.86803,4.55095 -8.50991,3.83237 z"
       id="33_Lesbos"
       style="fill:none;stroke:#000000;stroke-width:0.89187753px;stroke-linecap:butt;stroke-linejoin:miter;stroke-opacity:1" />
    <path
       d="m 441.30806,483.03547 c -6.43433,-1.19762 -6.01921,-6.9462 -8.0948,-6.9462 -2.07558,0 -1.45292,6.46716 -4.15117,2.39524 -2.69826,-4.07191 -2.28315,-17.72479 -1.0378,-18.92241 1.24536,-1.19761 12.66108,-0.95809 14.73667,0.23953 2.0756,1.19761 1.86803,6.70668 3.32094,5.74858 1.45291,-0.95809 5.18898,-7.66477 8.50991,-9.34144 3.32095,-1.67668 7.057,1.43714 2.69827,6.9462 -4.35874,5.50905 -7.67968,13.41335 -6.84944,15.56907 0.83024,2.15571 3.5285,10.77859 -1.24536,5.03 -4.77385,-5.74858 -3.11338,-11.25763 -4.35872,-11.97621 -1.24536,-0.71856 -3.73608,-1.91619 -4.35874,1.67667 -0.62268,3.59287 3.32093,8.62288 0.83024,9.58097 z"
       id="34_Limnos"
       style="fill:none;stroke:#000000;stroke-width:0.89187753px;stroke-linecap:butt;stroke-linejoin:miter;stroke-opacity:1" />
  </g>
</svg>
